solid STL generated by MeshLab
  facet normal  8.578721e-01  0.000000e+00  5.138631e-01
    outer loop
      vertex   8.222656e-01 -1.302083e-03  4.069010e-01
      vertex   6.666667e-01  3.333333e-01  6.666667e-01
      vertex   6.666667e-01 -3.333333e-01  6.666667e-01
    endloop
  endfacet
  facet normal  7.320571e-01 -6.797674e-01  4.481972e-02
    outer loop
      vertex   9.114583e-01 -3.750000e-01  3.645833e-02
      vertex   6.250000e-01 -6.666667e-01  2.916667e-01
      vertex   3.333333e-01 -1.000000e+00  0.000000e+00
    endloop
  endfacet
  facet normal  6.630353e-01 -5.988705e-01 -4.491529e-01
    outer loop
      vertex   3.333333e-01 -9.166667e-01 -3.333333e-01
      vertex   3.333333e-01 -6.666667e-01 -6.666667e-01
      vertex   6.250000e-01 -3.750000e-01 -6.250000e-01
    endloop
  endfacet
  facet normal  6.326628e-01 -6.025920e-01 -4.864368e-01
    outer loop
      vertex   6.250000e-01 -3.750000e-01 -6.250000e-01
      vertex   8.841146e-01 -3.541667e-01 -3.138021e-01
      vertex   3.333333e-01 -9.166667e-01 -3.333333e-01
    endloop
  endfacet
  facet normal  5.002744e-01  3.898241e-01 -7.731512e-01
    outer loop
      vertex   3.333333e-01  6.666667e-01 -6.666667e-01
      vertex   6.250000e-01  3.750000e-01 -6.250000e-01
      vertex   3.437500e-01  3.020833e-01 -8.437500e-01
    endloop
  endfacet
  facet normal  7.304125e-01  6.782402e-01  8.054668e-02
    outer loop
      vertex   9.108073e-01  3.736979e-01  3.710938e-02
      vertex   3.333333e-01  1.000000e+00  0.000000e+00
      vertex   6.197917e-01  6.562500e-01  2.968750e-01
    endloop
  endfacet
  facet normal -8.450789e-01  0.000000e+00  5.346417e-01
    outer loop
      vertex  -8.281250e-01  0.000000e+00  4.114583e-01
      vertex  -6.666667e-01 -3.333333e-01  6.666667e-01
      vertex  -6.666667e-01  3.333333e-01  6.666667e-01
    endloop
  endfacet
  facet normal  0.000000e+00 -6.585046e-01  7.525766e-01
    outer loop
      vertex   2.916667e-01 -6.666667e-01  6.250000e-01
      vertex  -2.916667e-01 -6.666667e-01  6.250000e-01
      vertex   0.000000e+00 -1.000000e+00  3.333333e-01
    endloop
  endfacet
  facet normal  1.105278e-02 -1.236007e-02  9.998625e-01
    outer loop
      vertex   4.049479e-01  4.140625e-01  8.242188e-01
      vertex  -4.166667e-01  4.166667e-01  8.333333e-01
      vertex  -4.062500e-01 -4.166667e-01  8.229167e-01
    endloop
  endfacet
  facet normal  0.000000e+00 -1.567372e-03  9.999987e-01
    outer loop
      vertex   4.049479e-01  4.140625e-01  8.242188e-01
      vertex  -4.062500e-01 -4.166667e-01  8.229167e-01
      vertex   4.062500e-01 -4.166667e-01  8.229167e-01
    endloop
  endfacet
  facet normal  0.000000e+00  2.425356e-01 -9.701425e-01
    outer loop
      vertex   2.500000e-01  0.000000e+00 -9.166667e-01
      vertex   0.000000e+00 -3.333333e-01 -1.000000e+00
      vertex  -2.500000e-01  0.000000e+00 -9.166667e-01
    endloop
  endfacet
  facet normal  0.000000e+00 -2.425356e-01 -9.701425e-01
    outer loop
      vertex  -2.500000e-01  0.000000e+00 -9.166667e-01
      vertex   0.000000e+00  3.333333e-01 -1.000000e+00
      vertex   2.500000e-01  0.000000e+00 -9.166667e-01
    endloop
  endfacet
  facet normal  5.227090e-02  7.317917e-01  6.795209e-01
    outer loop
      vertex   2.864583e-01  6.562500e-01  6.302083e-01
      vertex  -4.166667e-02  9.166667e-01  3.750000e-01
      vertex  -3.333333e-01  6.666667e-01  6.666667e-01
    endloop
  endfacet
  facet normal -7.035265e-01  7.035265e-01 -1.005038e-01
    outer loop
      vertex  -9.166667e-01  3.750000e-01  4.166667e-02
      vertex  -6.666667e-01  6.666667e-01  3.333333e-01
      vertex  -3.750000e-01  9.166667e-01  4.166667e-02
    endloop
  endfacet
  facet normal -5.002744e-01 -3.898241e-01 -7.731512e-01
    outer loop
      vertex  -3.333333e-01 -6.666667e-01 -6.666667e-01
      vertex  -6.250000e-01 -3.750000e-01 -6.250000e-01
      vertex  -3.437500e-01 -3.020833e-01 -8.437500e-01
    endloop
  endfacet
  facet normal -7.320571e-01 -6.797674e-01  4.481972e-02
    outer loop
      vertex  -9.114583e-01 -3.750000e-01  3.645833e-02
      vertex  -3.333333e-01 -1.000000e+00  0.000000e+00
      vertex  -6.250000e-01 -6.666667e-01  2.916667e-01
    endloop
  endfacet
  facet normal -6.694388e-01  6.085806e-01 -4.260063e-01
    outer loop
      vertex  -3.437500e-01  8.958333e-01 -3.229167e-01
      vertex  -3.333333e-01  6.666667e-01 -6.666667e-01
      vertex  -6.250000e-01  3.750000e-01 -6.250000e-01
    endloop
  endfacet
  facet normal -6.250023e-01  6.157758e-01 -4.797836e-01
    outer loop
      vertex  -6.250000e-01  3.750000e-01 -6.250000e-01
      vertex  -8.854167e-01  3.541667e-01 -3.125000e-01
      vertex  -3.437500e-01  8.958333e-01 -3.229167e-01
    endloop
  endfacet
  facet normal -5.773502e-01  5.773501e-01  5.773504e-01
    outer loop
      vertex  -4.166667e-01  4.166667e-01  8.333333e-01
      vertex  -3.333333e-01  6.666667e-01  6.666667e-01
      vertex  -5.555556e-01  5.555556e-01  5.555556e-01
    endloop
  endfacet
  facet normal -5.773501e-01  5.773502e-01  5.773504e-01
    outer loop
      vertex  -4.166667e-01  4.166667e-01  8.333333e-01
      vertex  -5.555556e-01  5.555556e-01  5.555556e-01
      vertex  -6.666667e-01  3.333333e-01  6.666667e-01
    endloop
  endfacet
  facet normal -7.524897e-01  5.541800e-01  3.558705e-01
    outer loop
      vertex  -6.666667e-01  3.333333e-01  6.666667e-01
      vertex  -5.555556e-01  5.555556e-01  5.555556e-01
      vertex  -8.528646e-01  3.020833e-01  3.216146e-01
    endloop
  endfacet
  facet normal -7.475082e-01  3.639010e-01  5.557045e-01
    outer loop
      vertex  -5.555556e-01  5.555556e-01  5.555556e-01
      vertex  -6.666667e-01  6.666667e-01  3.333333e-01
      vertex  -8.528646e-01  3.020833e-01  3.216146e-01
    endloop
  endfacet
  facet normal -3.948917e-01  7.274323e-01  5.611619e-01
    outer loop
      vertex  -6.666667e-01  6.666667e-01  3.333333e-01
      vertex  -5.555556e-01  5.555556e-01  5.555556e-01
      vertex  -3.125000e-01  8.750000e-01  3.125000e-01
    endloop
  endfacet
  facet normal -5.611619e-01  7.274323e-01  3.948918e-01
    outer loop
      vertex  -5.555556e-01  5.555556e-01  5.555556e-01
      vertex  -3.333333e-01  6.666667e-01  6.666667e-01
      vertex  -3.125000e-01  8.750000e-01  3.125000e-01
    endloop
  endfacet
  facet normal  0.000000e+00 -1.000000e+00  0.000000e+00
    outer loop
      vertex   0.000000e+00 -1.000000e+00  3.333333e-01
      vertex   0.000000e+00 -1.000000e+00  0.000000e+00
      vertex   3.333333e-01 -1.000000e+00  0.000000e+00
    endloop
  endfacet
  facet normal  3.762884e-01 -8.466488e-01  3.762884e-01
    outer loop
      vertex   3.333333e-01 -1.000000e+00  0.000000e+00
      vertex   3.541667e-01 -8.333333e-01  3.541667e-01
      vertex   0.000000e+00 -1.000000e+00  3.333333e-01
    endloop
  endfacet
  facet normal  0.000000e+00 -9.701425e-01 -2.425356e-01
    outer loop
      vertex   3.333333e-01 -9.166667e-01 -3.333333e-01
      vertex   3.333333e-01 -1.000000e+00  0.000000e+00
      vertex   0.000000e+00 -1.000000e+00  0.000000e+00
    endloop
  endfacet
  facet normal  0.000000e+00 -9.701425e-01 -2.425356e-01
    outer loop
      vertex   0.000000e+00 -1.000000e+00  0.000000e+00
      vertex   0.000000e+00 -9.166667e-01 -3.333333e-01
      vertex   3.333333e-01 -9.166667e-01 -3.333333e-01
    endloop
  endfacet
  facet normal  0.000000e+00 -9.701425e-01 -2.425356e-01
    outer loop
      vertex   0.000000e+00 -9.166667e-01 -3.333333e-01
      vertex   0.000000e+00 -1.000000e+00  0.000000e+00
      vertex  -3.333333e-01 -1.000000e+00  0.000000e+00
    endloop
  endfacet
  facet normal  0.000000e+00 -9.701425e-01 -2.425356e-01
    outer loop
      vertex  -3.333333e-01 -1.000000e+00  0.000000e+00
      vertex  -3.333333e-01 -9.166667e-01 -3.333333e-01
      vertex   0.000000e+00 -9.166667e-01 -3.333333e-01
    endloop
  endfacet
  facet normal  0.000000e+00 -1.000000e+00  0.000000e+00
    outer loop
      vertex  -3.333333e-01 -1.000000e+00  0.000000e+00
      vertex   0.000000e+00 -1.000000e+00  0.000000e+00
      vertex   0.000000e+00 -1.000000e+00  3.333333e-01
    endloop
  endfacet
  facet normal -3.762884e-01 -8.466488e-01  3.762884e-01
    outer loop
      vertex   0.000000e+00 -1.000000e+00  3.333333e-01
      vertex  -3.541667e-01 -8.333333e-01  3.541667e-01
      vertex  -3.333333e-01 -1.000000e+00  0.000000e+00
    endloop
  endfacet
  facet normal  0.000000e+00 -8.000000e-01 -6.000000e-01
    outer loop
      vertex   0.000000e+00 -9.166667e-01 -3.333333e-01
      vertex   0.000000e+00 -6.666667e-01 -6.666667e-01
      vertex   3.333333e-01 -6.666667e-01 -6.666667e-01
    endloop
  endfacet
  facet normal  0.000000e+00 -8.000000e-01 -6.000000e-01
    outer loop
      vertex   0.000000e+00 -9.166667e-01 -3.333333e-01
      vertex   3.333333e-01 -6.666667e-01 -6.666667e-01
      vertex   3.333333e-01 -9.166667e-01 -3.333333e-01
    endloop
  endfacet
  facet normal -0.000000e+00 -4.369039e-01 -8.995082e-01
    outer loop
      vertex   3.333333e-01 -6.666667e-01 -6.666667e-01
      vertex   0.000000e+00 -6.666667e-01 -6.666667e-01
      vertex   3.437500e-01 -3.020833e-01 -8.437500e-01
    endloop
  endfacet
  facet normal  3.598561e-01 -6.597361e-01 -6.597362e-01
    outer loop
      vertex   0.000000e+00 -6.666667e-01 -6.666667e-01
      vertex   0.000000e+00 -3.333333e-01 -1.000000e+00
      vertex   3.437500e-01 -3.020833e-01 -8.437500e-01
    endloop
  endfacet
  facet normal -3.598561e-01 -6.597361e-01 -6.597362e-01
    outer loop
      vertex  -3.437500e-01 -3.020833e-01 -8.437500e-01
      vertex   0.000000e+00 -3.333333e-01 -1.000000e+00
      vertex   0.000000e+00 -6.666667e-01 -6.666667e-01
    endloop
  endfacet
  facet normal  0.000000e+00 -4.369040e-01 -8.995082e-01
    outer loop
      vertex  -3.437500e-01 -3.020833e-01 -8.437500e-01
      vertex   0.000000e+00 -6.666667e-01 -6.666667e-01
      vertex  -3.333333e-01 -6.666667e-01 -6.666667e-01
    endloop
  endfacet
  facet normal  0.000000e+00 -8.000000e-01 -6.000000e-01
    outer loop
      vertex  -3.333333e-01 -6.666667e-01 -6.666667e-01
      vertex   0.000000e+00 -6.666667e-01 -6.666667e-01
      vertex   0.000000e+00 -9.166667e-01 -3.333333e-01
    endloop
  endfacet
  facet normal -0.000000e+00 -8.000000e-01 -6.000000e-01
    outer loop
      vertex   0.000000e+00 -9.166667e-01 -3.333333e-01
      vertex  -3.333333e-01 -9.166667e-01 -3.333333e-01
      vertex  -3.333333e-01 -6.666667e-01 -6.666667e-01
    endloop
  endfacet
  facet normal -7.171809e-01 -4.685914e-01  5.158232e-01
    outer loop
      vertex  -8.463542e-01 -3.020833e-01  3.151042e-01
      vertex  -6.250000e-01 -6.666667e-01  2.916667e-01
      vertex  -5.277778e-01 -5.555556e-01  5.277778e-01
    endloop
  endfacet
  facet normal -7.094493e-01 -6.347703e-01  3.061834e-01
    outer loop
      vertex  -5.277778e-01 -5.555556e-01  5.277778e-01
      vertex  -6.666667e-01 -3.333333e-01  6.666667e-01
      vertex  -8.463542e-01 -3.020833e-01  3.151042e-01
    endloop
  endfacet
  facet normal -5.298129e-01 -6.622662e-01  5.298130e-01
    outer loop
      vertex  -4.062500e-01 -4.166667e-01  8.229167e-01
      vertex  -6.666667e-01 -3.333333e-01  6.666667e-01
      vertex  -5.277778e-01 -5.555556e-01  5.277778e-01
    endloop
  endfacet
  facet normal -5.298129e-01 -6.622662e-01  5.298131e-01
    outer loop
      vertex  -4.062500e-01 -4.166667e-01  8.229167e-01
      vertex  -5.277778e-01 -5.555556e-01  5.277778e-01
      vertex  -2.916667e-01 -6.666667e-01  6.250000e-01
    endloop
  endfacet
  facet normal -5.298129e-01 -6.622663e-01  5.298129e-01
    outer loop
      vertex  -3.541667e-01 -8.333333e-01  3.541667e-01
      vertex  -2.916667e-01 -6.666667e-01  6.250000e-01
      vertex  -5.277778e-01 -5.555556e-01  5.277778e-01
    endloop
  endfacet
  facet normal -5.298129e-01 -6.622663e-01  5.298128e-01
    outer loop
      vertex  -3.541667e-01 -8.333333e-01  3.541667e-01
      vertex  -5.277778e-01 -5.555556e-01  5.277778e-01
      vertex  -6.250000e-01 -6.666667e-01  2.916667e-01
    endloop
  endfacet
  facet normal  3.598561e-01  6.597361e-01 -6.597362e-01
    outer loop
      vertex   3.437500e-01  3.020833e-01 -8.437500e-01
      vertex   0.000000e+00  3.333333e-01 -1.000000e+00
      vertex   0.000000e+00  6.666667e-01 -6.666667e-01
    endloop
  endfacet
  facet normal  0.000000e+00  4.369040e-01 -8.995082e-01
    outer loop
      vertex   3.437500e-01  3.020833e-01 -8.437500e-01
      vertex   0.000000e+00  6.666667e-01 -6.666667e-01
      vertex   3.333333e-01  6.666667e-01 -6.666667e-01
    endloop
  endfacet
  facet normal  0.000000e+00  8.000000e-01 -6.000000e-01
    outer loop
      vertex   3.333333e-01  9.166667e-01 -3.333333e-01
      vertex   3.333333e-01  6.666667e-01 -6.666667e-01
      vertex   0.000000e+00  6.666667e-01 -6.666667e-01
    endloop
  endfacet
  facet normal -3.398146e-02  8.155532e-01 -5.776834e-01
    outer loop
      vertex   0.000000e+00  6.666667e-01 -6.666667e-01
      vertex  -5.208333e-03  9.062500e-01 -3.281250e-01
      vertex   3.333333e-01  9.166667e-01 -3.333333e-01
    endloop
  endfacet
  facet normal  0.000000e+00  8.162712e-01 -5.776688e-01
    outer loop
      vertex  -5.208333e-03  9.062500e-01 -3.281250e-01
      vertex   0.000000e+00  6.666667e-01 -6.666667e-01
      vertex  -3.333333e-01  6.666667e-01 -6.666667e-01
    endloop
  endfacet
  facet normal -3.411194e-02  8.310888e-01 -5.550927e-01
    outer loop
      vertex  -3.333333e-01  6.666667e-01 -6.666667e-01
      vertex  -3.437500e-01  8.958333e-01 -3.229167e-01
      vertex  -5.208333e-03  9.062500e-01 -3.281250e-01
    endloop
  endfacet
  facet normal  0.000000e+00  4.369040e-01 -8.995082e-01
    outer loop
      vertex  -3.437500e-01  3.020833e-01 -8.437500e-01
      vertex  -3.333333e-01  6.666667e-01 -6.666667e-01
      vertex   0.000000e+00  6.666667e-01 -6.666667e-01
    endloop
  endfacet
  facet normal -3.598561e-01  6.597361e-01 -6.597362e-01
    outer loop
      vertex  -3.437500e-01  3.020833e-01 -8.437500e-01
      vertex   0.000000e+00  6.666667e-01 -6.666667e-01
      vertex   0.000000e+00  3.333333e-01 -1.000000e+00
    endloop
  endfacet
  facet normal -1.242948e-01  9.805471e-01 -1.519157e-01
    outer loop
      vertex  -5.208333e-03  9.062500e-01 -3.281250e-01
      vertex  -2.083333e-02  9.583333e-01  2.083333e-02
      vertex   3.333333e-01  1.000000e+00  0.000000e+00
    endloop
  endfacet
  facet normal -3.356300e-02  9.695960e-01 -2.423989e-01
    outer loop
      vertex  -5.208333e-03  9.062500e-01 -3.281250e-01
      vertex   3.333333e-01  1.000000e+00  0.000000e+00
      vertex   3.333333e-01  9.166667e-01 -3.333333e-01
    endloop
  endfacet
  facet normal -7.811228e-02  8.892778e-01  4.506476e-01
    outer loop
      vertex   3.333333e-01  1.000000e+00  0.000000e+00
      vertex  -2.083333e-02  9.583333e-01  2.083333e-02
      vertex   3.463542e-01  8.177083e-01  3.619792e-01
    endloop
  endfacet
  facet normal  2.491217e-01  9.600296e-01  1.275988e-01
    outer loop
      vertex  -2.083333e-02  9.583333e-01  2.083333e-02
      vertex  -4.166667e-02  9.166667e-01  3.750000e-01
      vertex   3.463542e-01  8.177083e-01  3.619792e-01
    endloop
  endfacet
  facet normal -1.748210e-01  9.789971e-01  1.048924e-01
    outer loop
      vertex  -3.125000e-01  8.750000e-01  3.125000e-01
      vertex  -4.166667e-02  9.166667e-01  3.750000e-01
      vertex  -2.083333e-02  9.583333e-01  2.083333e-02
    endloop
  endfacet
  facet normal -1.048924e-01  9.789971e-01  1.748210e-01
    outer loop
      vertex  -3.125000e-01  8.750000e-01  3.125000e-01
      vertex  -2.083333e-02  9.583333e-01  2.083333e-02
      vertex  -3.750000e-01  9.166667e-01  4.166667e-02
    endloop
  endfacet
  facet normal -1.204612e-01  9.904597e-01 -6.692306e-02
    outer loop
      vertex  -3.437500e-01  8.958333e-01 -3.229167e-01
      vertex  -3.750000e-01  9.166667e-01  4.166667e-02
      vertex  -2.083333e-02  9.583333e-01  2.083333e-02
    endloop
  endfacet
  facet normal -3.270118e-02  9.883006e-01 -1.489717e-01
    outer loop
      vertex  -3.437500e-01  8.958333e-01 -3.229167e-01
      vertex  -2.083333e-02  9.583333e-01  2.083333e-02
      vertex  -5.208333e-03  9.062500e-01 -3.281250e-01
    endloop
  endfacet
  facet normal  7.158175e-01  4.764839e-01  5.104590e-01
    outer loop
      vertex   8.440755e-01  3.001302e-01  3.147787e-01
      vertex   6.197917e-01  6.562500e-01  2.968750e-01
      vertex   5.243056e-01  5.486111e-01  5.312500e-01
    endloop
  endfacet
  facet normal  7.023906e-01  6.487320e-01  2.929067e-01
    outer loop
      vertex   5.243056e-01  5.486111e-01  5.312500e-01
      vertex   6.666667e-01  3.333333e-01  6.666667e-01
      vertex   8.440755e-01  3.001302e-01  3.147787e-01
    endloop
  endfacet
  facet normal  5.223565e-01  6.740084e-01  5.223565e-01
    outer loop
      vertex   4.049479e-01  4.140625e-01  8.242188e-01
      vertex   6.666667e-01  3.333333e-01  6.666667e-01
      vertex   5.243056e-01  5.486111e-01  5.312500e-01
    endloop
  endfacet
  facet normal  5.223565e-01  6.740084e-01  5.223566e-01
    outer loop
      vertex   4.049479e-01  4.140625e-01  8.242188e-01
      vertex   5.243056e-01  5.486111e-01  5.312500e-01
      vertex   2.864583e-01  6.562500e-01  6.302083e-01
    endloop
  endfacet
  facet normal  5.223565e-01  6.740085e-01  5.223565e-01
    outer loop
      vertex   3.463542e-01  8.177083e-01  3.619792e-01
      vertex   2.864583e-01  6.562500e-01  6.302083e-01
      vertex   5.243056e-01  5.486111e-01  5.312500e-01
    endloop
  endfacet
  facet normal  5.223565e-01  6.740085e-01  5.223566e-01
    outer loop
      vertex   3.463542e-01  8.177083e-01  3.619792e-01
      vertex   5.243056e-01  5.486111e-01  5.312500e-01
      vertex   6.197917e-01  6.562500e-01  2.968750e-01
    endloop
  endfacet
  facet normal  5.298129e-01 -6.622662e-01  5.298131e-01
    outer loop
      vertex   4.062500e-01 -4.166667e-01  8.229167e-01
      vertex   2.916667e-01 -6.666667e-01  6.250000e-01
      vertex   5.277778e-01 -5.555556e-01  5.277778e-01
    endloop
  endfacet
  facet normal  5.298129e-01 -6.622662e-01  5.298130e-01
    outer loop
      vertex   4.062500e-01 -4.166667e-01  8.229167e-01
      vertex   5.277778e-01 -5.555556e-01  5.277778e-01
      vertex   6.666667e-01 -3.333333e-01  6.666667e-01
    endloop
  endfacet
  facet normal  7.193253e-01 -4.657802e-01  5.153834e-01
    outer loop
      vertex   5.277778e-01 -5.555556e-01  5.277778e-01
      vertex   6.250000e-01 -6.666667e-01  2.916667e-01
      vertex   8.448893e-01 -3.024088e-01  3.139648e-01
    endloop
  endfacet
  facet normal  7.110333e-01 -6.341984e-01  3.036842e-01
    outer loop
      vertex   8.448893e-01 -3.024088e-01  3.139648e-01
      vertex   6.666667e-01 -3.333333e-01  6.666667e-01
      vertex   5.277778e-01 -5.555556e-01  5.277778e-01
    endloop
  endfacet
  facet normal  5.298129e-01 -6.622663e-01  5.298129e-01
    outer loop
      vertex   6.250000e-01 -6.666667e-01  2.916667e-01
      vertex   5.277778e-01 -5.555556e-01  5.277778e-01
      vertex   3.541667e-01 -8.333333e-01  3.541667e-01
    endloop
  endfacet
  facet normal  5.298129e-01 -6.622663e-01  5.298129e-01
    outer loop
      vertex   5.277778e-01 -5.555556e-01  5.277778e-01
      vertex   2.916667e-01 -6.666667e-01  6.250000e-01
      vertex   3.541667e-01 -8.333333e-01  3.541667e-01
    endloop
  endfacet
  facet normal -9.743098e-01 -1.292182e-02  2.248407e-01
    outer loop
      vertex  -9.140625e-01  0.000000e+00  3.906250e-02
      vertex  -8.281250e-01  0.000000e+00  4.114583e-01
      vertex  -8.528646e-01  3.020833e-01  3.216146e-01
    endloop
  endfacet
  facet normal -9.754318e-01 -8.302663e-03  2.201453e-01
    outer loop
      vertex  -8.528646e-01  3.020833e-01  3.216146e-01
      vertex  -9.166667e-01  3.750000e-01  4.166667e-02
      vertex  -9.140625e-01  0.000000e+00  3.906250e-02
    endloop
  endfacet
  facet normal -9.732536e-01 -8.353073e-03  2.295814e-01
    outer loop
      vertex  -9.140625e-01  0.000000e+00  3.906250e-02
      vertex  -9.114583e-01 -3.750000e-01  3.645833e-02
      vertex  -8.463542e-01 -3.020833e-01  3.151042e-01
    endloop
  endfacet
  facet normal -9.743098e-01 -1.292183e-02  2.248407e-01
    outer loop
      vertex  -8.463542e-01 -3.020833e-01  3.151042e-01
      vertex  -8.281250e-01  0.000000e+00  4.114583e-01
      vertex  -9.140625e-01  0.000000e+00  3.906250e-02
    endloop
  endfacet
  facet normal -9.969168e-01 -6.379992e-03 -7.820570e-02
    outer loop
      vertex  -8.841146e-01 -3.541667e-01 -3.138021e-01
      vertex  -9.114583e-01 -3.750000e-01  3.645833e-02
      vertex  -9.140625e-01  0.000000e+00  3.906250e-02
    endloop
  endfacet
  facet normal -9.965571e-01 -1.679581e-03 -8.289293e-02
    outer loop
      vertex  -8.841146e-01 -3.541667e-01 -3.138021e-01
      vertex  -9.140625e-01  0.000000e+00  3.906250e-02
      vertex  -8.847656e-01  0.000000e+00 -3.131510e-01
    endloop
  endfacet
  facet normal -9.965571e-01 -1.679588e-03 -8.289292e-02
    outer loop
      vertex  -8.854167e-01  3.541667e-01 -3.125000e-01
      vertex  -8.847656e-01  0.000000e+00 -3.131510e-01
      vertex  -9.140625e-01  0.000000e+00  3.906250e-02
    endloop
  endfacet
  facet normal -9.961424e-01 -6.309905e-03 -8.752375e-02
    outer loop
      vertex  -9.140625e-01  0.000000e+00  3.906250e-02
      vertex  -9.166667e-01  3.750000e-01  4.166667e-02
      vertex  -8.854167e-01  3.541667e-01 -3.125000e-01
    endloop
  endfacet
  facet normal -7.683527e-01 -2.359397e-04 -6.400266e-01
    outer loop
      vertex  -6.250000e-01  0.000000e+00 -6.250000e-01
      vertex  -8.847656e-01  0.000000e+00 -3.131510e-01
      vertex  -8.854167e-01  3.541667e-01 -3.125000e-01
    endloop
  endfacet
  facet normal -7.682213e-01  0.000000e+00 -6.401844e-01
    outer loop
      vertex  -8.854167e-01  3.541667e-01 -3.125000e-01
      vertex  -6.250000e-01  3.750000e-01 -6.250000e-01
      vertex  -6.250000e-01  0.000000e+00 -6.250000e-01
    endloop
  endfacet
  facet normal -7.684848e-01 -0.000000e+00 -6.398681e-01
    outer loop
      vertex  -6.250000e-01  0.000000e+00 -6.250000e-01
      vertex  -6.250000e-01 -3.750000e-01 -6.250000e-01
      vertex  -8.841146e-01 -3.541667e-01 -3.138021e-01
    endloop
  endfacet
  facet normal -7.683527e-01 -2.359009e-04 -6.400265e-01
    outer loop
      vertex  -8.841146e-01 -3.541667e-01 -3.138021e-01
      vertex  -8.847656e-01  0.000000e+00 -3.131510e-01
      vertex  -6.250000e-01  0.000000e+00 -6.250000e-01
    endloop
  endfacet
  facet normal -6.139407e-01  0.000000e+00 -7.893522e-01
    outer loop
      vertex  -3.437500e-01 -3.020833e-01 -8.437500e-01
      vertex  -6.250000e-01 -3.750000e-01 -6.250000e-01
      vertex  -6.250000e-01  0.000000e+00 -6.250000e-01
    endloop
  endfacet
  facet normal -6.139407e-01 -5.191620e-08 -7.893522e-01
    outer loop
      vertex  -6.250000e-01  0.000000e+00 -6.250000e-01
      vertex  -2.500000e-01  0.000000e+00 -9.166667e-01
      vertex  -3.437500e-01 -3.020833e-01 -8.437500e-01
    endloop
  endfacet
  facet normal -6.139407e-01  3.893715e-08 -7.893522e-01
    outer loop
      vertex  -3.437500e-01  3.020833e-01 -8.437500e-01
      vertex  -2.500000e-01  0.000000e+00 -9.166667e-01
      vertex  -6.250000e-01  0.000000e+00 -6.250000e-01
    endloop
  endfacet
  facet normal -6.139407e-01  0.000000e+00 -7.893522e-01
    outer loop
      vertex  -6.250000e-01  0.000000e+00 -6.250000e-01
      vertex  -6.250000e-01  3.750000e-01 -6.250000e-01
      vertex  -3.437500e-01  3.020833e-01 -8.437500e-01
    endloop
  endfacet
  facet normal  9.724512e-01  6.428739e-04  2.331059e-01
    outer loop
      vertex   8.448893e-01 -3.024088e-01  3.139648e-01
      vertex   9.114583e-01 -3.750000e-01  3.645833e-02
      vertex   9.111328e-01 -6.510417e-04  3.678386e-02
    endloop
  endfacet
  facet normal  9.723631e-01  9.980318e-04  2.334715e-01
    outer loop
      vertex   8.448893e-01 -3.024088e-01  3.139648e-01
      vertex   9.111328e-01 -6.510417e-04  3.678386e-02
      vertex   8.222656e-01 -1.302083e-03  4.069010e-01
    endloop
  endfacet
  facet normal  9.723631e-01  9.980114e-04  2.334715e-01
    outer loop
      vertex   8.440755e-01  3.001302e-01  3.147787e-01
      vertex   8.222656e-01 -1.302083e-03  4.069010e-01
      vertex   9.111328e-01 -6.510417e-04  3.678386e-02
    endloop
  endfacet
  facet normal  9.722760e-01  6.420712e-04  2.338356e-01
    outer loop
      vertex   9.111328e-01 -6.510417e-04  3.678386e-02
      vertex   9.108073e-01  3.736979e-01  3.710938e-02
      vertex   8.440755e-01  3.001302e-01  3.147787e-01
    endloop
  endfacet
  facet normal  9.970244e-01  2.468728e-04 -7.708559e-02
    outer loop
      vertex   9.111328e-01 -6.510417e-04  3.678386e-02
      vertex   8.840332e-01 -1.627604e-04 -3.137207e-01
      vertex   8.839518e-01  3.538412e-01 -3.136393e-01
    endloop
  endfacet
  facet normal  9.970772e-01  9.334032e-04 -7.639518e-02
    outer loop
      vertex   8.839518e-01  3.538412e-01 -3.136393e-01
      vertex   9.108073e-01  3.736979e-01  3.710938e-02
      vertex   9.111328e-01 -6.510417e-04  3.678386e-02
    endloop
  endfacet
  facet normal  9.969705e-01  9.345088e-04 -7.777482e-02
    outer loop
      vertex   9.111328e-01 -6.510417e-04  3.678386e-02
      vertex   9.114583e-01 -3.750000e-01  3.645833e-02
      vertex   8.841146e-01 -3.541667e-01 -3.138021e-01
    endloop
  endfacet
  facet normal  9.970244e-01  2.468681e-04 -7.708560e-02
    outer loop
      vertex   8.841146e-01 -3.541667e-01 -3.138021e-01
      vertex   8.840332e-01 -1.627604e-04 -3.137207e-01
      vertex   9.111328e-01 -6.510417e-04  3.678386e-02
    endloop
  endfacet
  facet normal  7.684848e-01  0.000000e+00 -6.398681e-01
    outer loop
      vertex   8.841146e-01 -3.541667e-01 -3.138021e-01
      vertex   6.250000e-01 -3.750000e-01 -6.250000e-01
      vertex   6.250000e-01  0.000000e+00 -6.250000e-01
    endloop
  endfacet
  facet normal  7.686659e-01  3.237257e-04 -6.396504e-01
    outer loop
      vertex   8.841146e-01 -3.541667e-01 -3.138021e-01
      vertex   6.250000e-01  0.000000e+00 -6.250000e-01
      vertex   8.840332e-01 -1.627604e-04 -3.137207e-01
    endloop
  endfacet
  facet normal  7.686659e-01  3.237257e-04 -6.396504e-01
    outer loop
      vertex   8.839518e-01  3.538412e-01 -3.136393e-01
      vertex   8.840332e-01 -1.627604e-04 -3.137207e-01
      vertex   6.250000e-01  0.000000e+00 -6.250000e-01
    endloop
  endfacet
  facet normal  7.688468e-01  0.000000e+00 -6.394330e-01
    outer loop
      vertex   6.250000e-01  0.000000e+00 -6.250000e-01
      vertex   6.250000e-01  3.750000e-01 -6.250000e-01
      vertex   8.839518e-01  3.538412e-01 -3.136393e-01
    endloop
  endfacet
  facet normal  6.139407e-01  5.191620e-08 -7.893522e-01
    outer loop
      vertex   6.250000e-01  0.000000e+00 -6.250000e-01
      vertex   2.500000e-01  0.000000e+00 -9.166667e-01
      vertex   3.437500e-01  3.020833e-01 -8.437500e-01
    endloop
  endfacet
  facet normal  6.139407e-01  0.000000e+00 -7.893522e-01
    outer loop
      vertex   3.437500e-01  3.020833e-01 -8.437500e-01
      vertex   6.250000e-01  3.750000e-01 -6.250000e-01
      vertex   6.250000e-01  0.000000e+00 -6.250000e-01
    endloop
  endfacet
  facet normal  6.139407e-01 -3.893715e-08 -7.893522e-01
    outer loop
      vertex   3.437500e-01 -3.020833e-01 -8.437500e-01
      vertex   2.500000e-01  0.000000e+00 -9.166667e-01
      vertex   6.250000e-01  0.000000e+00 -6.250000e-01
    endloop
  endfacet
  facet normal  6.139407e-01  0.000000e+00 -7.893522e-01
    outer loop
      vertex   3.437500e-01 -3.020833e-01 -8.437500e-01
      vertex   6.250000e-01  0.000000e+00 -6.250000e-01
      vertex   6.250000e-01 -3.750000e-01 -6.250000e-01
    endloop
  endfacet
  facet normal  8.927850e-01 -7.025982e-02  4.449701e-01
    outer loop
      vertex   8.222656e-01 -1.302083e-03  4.069010e-01
      vertex   6.666667e-01 -3.333333e-01  6.666667e-01
      vertex   8.448893e-01 -3.024088e-01  3.139648e-01
    endloop
  endfacet
  facet normal  5.146220e-01 -5.372693e-04  8.574169e-01
    outer loop
      vertex   4.049479e-01  4.140625e-01  8.242188e-01
      vertex   4.062500e-01 -4.166667e-01  8.229167e-01
      vertex   6.666667e-01 -3.333333e-01  6.666667e-01
    endloop
  endfacet
  facet normal  5.157487e-01  0.000000e+00  8.567399e-01
    outer loop
      vertex   4.049479e-01  4.140625e-01  8.242188e-01
      vertex   6.666667e-01 -3.333333e-01  6.666667e-01
      vertex   6.666667e-01  3.333333e-01  6.666667e-01
    endloop
  endfacet
  facet normal  8.933599e-01  7.096414e-02  4.437028e-01
    outer loop
      vertex   6.666667e-01  3.333333e-01  6.666667e-01
      vertex   8.222656e-01 -1.302083e-03  4.069010e-01
      vertex   8.440755e-01  3.001302e-01  3.147787e-01
    endloop
  endfacet
  facet normal  7.128246e-01 -6.946073e-01 -9.696294e-02
    outer loop
      vertex   3.333333e-01 -9.166667e-01 -3.333333e-01
      vertex   8.841146e-01 -3.541667e-01 -3.138021e-01
      vertex   9.114583e-01 -3.750000e-01  3.645833e-02
    endloop
  endfacet
  facet normal  7.287138e-01 -6.643714e-01 -1.660928e-01
    outer loop
      vertex   3.333333e-01 -9.166667e-01 -3.333333e-01
      vertex   9.114583e-01 -3.750000e-01  3.645833e-02
      vertex   3.333333e-01 -1.000000e+00  0.000000e+00
    endloop
  endfacet
  facet normal  5.488213e-01 -7.683499e-01  3.292929e-01
    outer loop
      vertex   3.333333e-01 -1.000000e+00  0.000000e+00
      vertex   6.250000e-01 -6.666667e-01  2.916667e-01
      vertex   3.541667e-01 -8.333333e-01  3.541667e-01
    endloop
  endfacet
  facet normal  8.010695e-01 -5.034010e-01  3.238441e-01
    outer loop
      vertex   8.448893e-01 -3.024088e-01  3.139648e-01
      vertex   6.250000e-01 -6.666667e-01  2.916667e-01
      vertex   9.114583e-01 -3.750000e-01  3.645833e-02
    endloop
  endfacet
  facet normal  5.002744e-01 -3.898241e-01 -7.731512e-01
    outer loop
      vertex   3.437500e-01 -3.020833e-01 -8.437500e-01
      vertex   6.250000e-01 -3.750000e-01 -6.250000e-01
      vertex   3.333333e-01 -6.666667e-01 -6.666667e-01
    endloop
  endfacet
  facet normal  6.630353e-01  5.988705e-01 -4.491528e-01
    outer loop
      vertex   6.250000e-01  3.750000e-01 -6.250000e-01
      vertex   3.333333e-01  6.666667e-01 -6.666667e-01
      vertex   3.333333e-01  9.166667e-01 -3.333333e-01
    endloop
  endfacet
  facet normal  6.332643e-01  6.025333e-01 -4.857262e-01
    outer loop
      vertex   3.333333e-01  9.166667e-01 -3.333333e-01
      vertex   8.839518e-01  3.538412e-01 -3.136393e-01
      vertex   6.250000e-01  3.750000e-01 -6.250000e-01
    endloop
  endfacet
  facet normal  7.921745e-01  5.153463e-01  3.269216e-01
    outer loop
      vertex   9.108073e-01  3.736979e-01  3.710938e-02
      vertex   6.197917e-01  6.562500e-01  2.968750e-01
      vertex   8.440755e-01  3.001302e-01  3.147787e-01
    endloop
  endfacet
  facet normal  5.363061e-01  7.614225e-01  3.641587e-01
    outer loop
      vertex   3.463542e-01  8.177083e-01  3.619792e-01
      vertex   6.197917e-01  6.562500e-01  2.968750e-01
      vertex   3.333333e-01  1.000000e+00  0.000000e+00
    endloop
  endfacet
  facet normal  7.298861e-01  6.631591e-01 -1.657897e-01
    outer loop
      vertex   3.333333e-01  9.166667e-01 -3.333333e-01
      vertex   3.333333e-01  1.000000e+00  0.000000e+00
      vertex   9.108073e-01  3.736979e-01  3.710938e-02
    endloop
  endfacet
  facet normal  7.132965e-01  6.945390e-01 -9.393407e-02
    outer loop
      vertex   3.333333e-01  9.166667e-01 -3.333333e-01
      vertex   9.108073e-01  3.736979e-01  3.710938e-02
      vertex   8.839518e-01  3.538412e-01 -3.136393e-01
    endloop
  endfacet
  facet normal -8.805816e-01  6.739375e-02  4.690781e-01
    outer loop
      vertex  -8.528646e-01  3.020833e-01  3.216146e-01
      vertex  -8.281250e-01  0.000000e+00  4.114583e-01
      vertex  -6.666667e-01  3.333333e-01  6.666667e-01
    endloop
  endfacet
  facet normal -5.547001e-01  0.000000e+00  8.320504e-01
    outer loop
      vertex  -4.166667e-01  4.166667e-01  8.333333e-01
      vertex  -6.666667e-01  3.333333e-01  6.666667e-01
      vertex  -6.666667e-01 -3.333333e-01  6.666667e-01
    endloop
  endfacet
  facet normal -5.184535e-01 -1.716729e-02  8.549334e-01
    outer loop
      vertex  -4.166667e-01  4.166667e-01  8.333333e-01
      vertex  -6.666667e-01 -3.333333e-01  6.666667e-01
      vertex  -4.062500e-01 -4.166667e-01  8.229167e-01
    endloop
  endfacet
  facet normal -8.900903e-01 -8.887633e-02  4.470349e-01
    outer loop
      vertex  -8.463542e-01 -3.020833e-01  3.151042e-01
      vertex  -6.666667e-01 -3.333333e-01  6.666667e-01
      vertex  -8.281250e-01  0.000000e+00  4.114583e-01
    endloop
  endfacet
  facet normal  3.292929e-01 -7.683499e-01  5.488213e-01
    outer loop
      vertex   3.541667e-01 -8.333333e-01  3.541667e-01
      vertex   2.916667e-01 -6.666667e-01  6.250000e-01
      vertex   0.000000e+00 -1.000000e+00  3.333333e-01
    endloop
  endfacet
  facet normal -3.292929e-01 -7.683499e-01  5.488213e-01
    outer loop
      vertex   0.000000e+00 -1.000000e+00  3.333333e-01
      vertex  -2.916667e-01 -6.666667e-01  6.250000e-01
      vertex  -3.541667e-01 -8.333333e-01  3.541667e-01
    endloop
  endfacet
  facet normal  0.000000e+00 -6.207029e-01  7.840458e-01
    outer loop
      vertex   4.062500e-01 -4.166667e-01  8.229167e-01
      vertex  -4.062500e-01 -4.166667e-01  8.229167e-01
      vertex  -2.916667e-01 -6.666667e-01  6.250000e-01
    endloop
  endfacet
  facet normal  0.000000e+00 -6.207030e-01  7.840458e-01
    outer loop
      vertex   4.062500e-01 -4.166667e-01  8.229167e-01
      vertex  -2.916667e-01 -6.666667e-01  6.250000e-01
      vertex   2.916667e-01 -6.666667e-01  6.250000e-01
    endloop
  endfacet
  facet normal  4.188234e-01  8.817340e-02 -9.037768e-01
    outer loop
      vertex   3.437500e-01  3.020833e-01 -8.437500e-01
      vertex   2.500000e-01  0.000000e+00 -9.166667e-01
      vertex   0.000000e+00  3.333333e-01 -1.000000e+00
    endloop
  endfacet
  facet normal -4.188234e-01  8.817340e-02 -9.037768e-01
    outer loop
      vertex   0.000000e+00  3.333333e-01 -1.000000e+00
      vertex  -2.500000e-01  0.000000e+00 -9.166667e-01
      vertex  -3.437500e-01  3.020833e-01 -8.437500e-01
    endloop
  endfacet
  facet normal -4.188234e-01 -8.817340e-02 -9.037768e-01
    outer loop
      vertex  -2.500000e-01  0.000000e+00 -9.166667e-01
      vertex   0.000000e+00 -3.333333e-01 -1.000000e+00
      vertex  -3.437500e-01 -3.020833e-01 -8.437500e-01
    endloop
  endfacet
  facet normal  4.188234e-01 -8.817340e-02 -9.037768e-01
    outer loop
      vertex   3.437500e-01 -3.020833e-01 -8.437500e-01
      vertex   0.000000e+00 -3.333333e-01 -1.000000e+00
      vertex   2.500000e-01  0.000000e+00 -9.166667e-01
    endloop
  endfacet
  facet normal  5.846189e-02  5.401871e-01  8.395119e-01
    outer loop
      vertex   2.864583e-01  6.562500e-01  6.302083e-01
      vertex  -3.333333e-01  6.666667e-01  6.666667e-01
      vertex  -4.166667e-01  4.166667e-01  8.333333e-01
    endloop
  endfacet
  facet normal  1.062085e-02  6.283314e-01  7.778733e-01
    outer loop
      vertex   2.864583e-01  6.562500e-01  6.302083e-01
      vertex  -4.166667e-01  4.166667e-01  8.333333e-01
      vertex   4.049479e-01  4.140625e-01  8.242188e-01
    endloop
  endfacet
  facet normal -2.407717e-01  8.427010e-01  4.815434e-01
    outer loop
      vertex  -3.333333e-01  6.666667e-01  6.666667e-01
      vertex  -4.166667e-02  9.166667e-01  3.750000e-01
      vertex  -3.125000e-01  8.750000e-01  3.125000e-01
    endloop
  endfacet
  facet normal  2.251054e-01  8.117431e-01  5.388883e-01
    outer loop
      vertex  -4.166667e-02  9.166667e-01  3.750000e-01
      vertex   2.864583e-01  6.562500e-01  6.302083e-01
      vertex   3.463542e-01  8.177083e-01  3.619792e-01
    endloop
  endfacet
  facet normal -7.033145e-01  7.033145e-01 -1.034286e-01
    outer loop
      vertex  -8.854167e-01  3.541667e-01 -3.125000e-01
      vertex  -9.166667e-01  3.750000e-01  4.166667e-02
      vertex  -3.750000e-01  9.166667e-01  4.166667e-02
    endloop
  endfacet
  facet normal -7.044904e-01  7.025572e-01 -1.005310e-01
    outer loop
      vertex  -8.854167e-01  3.541667e-01 -3.125000e-01
      vertex  -3.750000e-01  9.166667e-01  4.166667e-02
      vertex  -3.437500e-01  8.958333e-01 -3.229167e-01
    endloop
  endfacet
  facet normal -4.815433e-01  8.427010e-01  2.407717e-01
    outer loop
      vertex  -3.750000e-01  9.166667e-01  4.166667e-02
      vertex  -6.666667e-01  6.666667e-01  3.333333e-01
      vertex  -3.125000e-01  8.750000e-01  3.125000e-01
    endloop
  endfacet
  facet normal -8.520824e-01  4.253673e-01  3.049890e-01
    outer loop
      vertex  -8.528646e-01  3.020833e-01  3.216146e-01
      vertex  -6.666667e-01  6.666667e-01  3.333333e-01
      vertex  -9.166667e-01  3.750000e-01  4.166667e-02
    endloop
  endfacet
  facet normal -6.630353e-01 -5.988705e-01 -4.491528e-01
    outer loop
      vertex  -6.250000e-01 -3.750000e-01 -6.250000e-01
      vertex  -3.333333e-01 -6.666667e-01 -6.666667e-01
      vertex  -3.333333e-01 -9.166667e-01 -3.333333e-01
    endloop
  endfacet
  facet normal -6.326627e-01 -6.025920e-01 -4.864368e-01
    outer loop
      vertex  -3.333333e-01 -9.166667e-01 -3.333333e-01
      vertex  -8.841146e-01 -3.541667e-01 -3.138021e-01
      vertex  -6.250000e-01 -3.750000e-01 -6.250000e-01
    endloop
  endfacet
  facet normal -8.006822e-01 -5.066784e-01  3.196639e-01
    outer loop
      vertex  -9.114583e-01 -3.750000e-01  3.645833e-02
      vertex  -6.250000e-01 -6.666667e-01  2.916667e-01
      vertex  -8.463542e-01 -3.020833e-01  3.151042e-01
    endloop
  endfacet
  facet normal -5.488213e-01 -7.683499e-01  3.292929e-01
    outer loop
      vertex  -3.541667e-01 -8.333333e-01  3.541667e-01
      vertex  -6.250000e-01 -6.666667e-01  2.916667e-01
      vertex  -3.333333e-01 -1.000000e+00  0.000000e+00
    endloop
  endfacet
  facet normal -7.287138e-01 -6.643714e-01 -1.660928e-01
    outer loop
      vertex  -3.333333e-01 -9.166667e-01 -3.333333e-01
      vertex  -3.333333e-01 -1.000000e+00  0.000000e+00
      vertex  -9.114583e-01 -3.750000e-01  3.645833e-02
    endloop
  endfacet
  facet normal -7.128246e-01 -6.946073e-01 -9.696294e-02
    outer loop
      vertex  -3.333333e-01 -9.166667e-01 -3.333333e-01
      vertex  -9.114583e-01 -3.750000e-01  3.645833e-02
      vertex  -8.841146e-01 -3.541667e-01 -3.138021e-01
    endloop
  endfacet
  facet normal -5.002744e-01  3.898241e-01 -7.731512e-01
    outer loop
      vertex  -3.437500e-01  3.020833e-01 -8.437500e-01
      vertex  -6.250000e-01  3.750000e-01 -6.250000e-01
      vertex  -3.333333e-01  6.666667e-01 -6.666667e-01
    endloop
  endfacet
endsolid vcg
