solid STL generated by MeshLab
  facet normal -1.640434e-01 -1.595178e-01 -9.734700e-01
    outer loop
      vertex   1.129926e+01 -6.769092e+01  4.198095e+01
      vertex   2.626210e+00 -1.000039e+02  4.873745e+01
      vertex  -1.631974e+01 -6.570631e+01  4.630994e+01
    endloop
  endfacet
  facet normal -6.263202e-01 -4.805106e-02 -7.780836e-01
    outer loop
      vertex   5.656104e+00  3.296404e+01 -4.092231e+01
      vertex   1.902907e+01  2.017593e+01 -5.089717e+01
      vertex   1.789975e-02  2.530927e+01 -3.591110e+01
    endloop
  endfacet
  facet normal  5.580826e-01  7.316286e-01  3.914887e-01
    outer loop
      vertex   5.439173e+00  3.389737e+01  9.497749e+01
      vertex   8.128389e+00  5.798867e+01  4.612120e+01
      vertex  -2.451457e+00  3.979008e+01  9.521336e+01
    endloop
  endfacet
  facet normal -1.331670e-01  6.495520e-01  7.485645e-01
    outer loop
      vertex   1.869645e+00 -4.364837e+01  7.645486e+01
      vertex  -1.017518e+01 -6.770219e+01  9.518436e+01
      vertex   8.305512e+00 -6.582267e+01  9.684109e+01
    endloop
  endfacet
  facet normal  3.282618e-01  8.919931e-01 -3.107935e-01
    outer loop
      vertex   2.171516e+00  6.877903e+01  4.039973e+01
      vertex   1.023000e+01  5.927172e+01  2.162468e+01
      vertex  -7.021281e+00  6.396474e+01  1.687301e+01
    endloop
  endfacet
  facet normal  2.192692e-01  9.632301e-01  1.552697e-01
    outer loop
      vertex  -7.021281e+00  6.396474e+01  1.687301e+01
      vertex   1.023000e+01  5.927172e+01  2.162468e+01
      vertex  -5.100496e+00  6.667405e+01 -2.646920e+00
    endloop
  endfacet
  facet normal  5.510485e-01  7.367396e-01  3.918675e-01
    outer loop
      vertex  -2.451457e+00  3.979008e+01  9.521336e+01
      vertex   8.128389e+00  5.798867e+01  4.612120e+01
      vertex  -5.564919e+00  5.658598e+01  6.801403e+01
    endloop
  endfacet
  facet normal -6.379468e-01  4.126189e-01  6.502073e-01
    outer loop
      vertex   1.869645e+00 -4.364837e+01  7.645486e+01
      vertex   8.305512e+00 -6.582267e+01  9.684109e+01
      vertex   2.088280e+01 -5.531864e+01  1.025154e+02
    endloop
  endfacet
  facet normal  9.268357e-01 -3.383791e-01 -1.627121e-01
    outer loop
      vertex   1.411593e+00  2.369769e+01  9.324715e+01
      vertex   5.439173e+00  3.389737e+01  9.497749e+01
      vertex   5.190197e+00  2.060498e+01  1.212024e+02
    endloop
  endfacet
  facet normal -4.882823e-02 -7.582077e-01  6.501821e-01
    outer loop
      vertex   3.262253e+00  5.128277e+01  3.793569e+01
      vertex   8.128389e+00  5.798867e+01  4.612120e+01
      vertex  -6.867028e+00  5.387062e+01  4.019281e+01
    endloop
  endfacet
  facet normal  4.072782e-01 -7.651320e-01 -4.986959e-01
    outer loop
      vertex   8.128389e+00  5.798867e+01  4.612120e+01
      vertex   1.411593e+00  2.369769e+01  9.324715e+01
      vertex  -6.867028e+00  5.387062e+01  4.019281e+01
    endloop
  endfacet
  facet normal  9.301835e-01 -3.469656e-01 -1.198901e-01
    outer loop
      vertex   8.128389e+00  5.798867e+01  4.612120e+01
      vertex   5.439173e+00  3.389737e+01  9.497749e+01
      vertex   1.411593e+00  2.369769e+01  9.324715e+01
    endloop
  endfacet
  facet normal -2.575590e-01  9.439142e-01  2.066140e-01
    outer loop
      vertex   6.483197e+00  3.702967e+01  1.189620e+02
      vertex  -2.451457e+00  3.979008e+01  9.521336e+01
      vertex  -5.885562e+00  3.564733e+01  1.098586e+02
    endloop
  endfacet
  facet normal  5.908099e-01  7.963153e-01 -1.297138e-01
    outer loop
      vertex   6.483197e+00  3.702967e+01  1.189620e+02
      vertex   5.439173e+00  3.389737e+01  9.497749e+01
      vertex  -2.451457e+00  3.979008e+01  9.521336e+01
    endloop
  endfacet
  facet normal  9.960309e-01 -8.284859e-02 -3.253658e-02
    outer loop
      vertex   6.483197e+00  3.702967e+01  1.189620e+02
      vertex   5.190197e+00  2.060498e+01  1.212024e+02
      vertex   5.439173e+00  3.389737e+01  9.497749e+01
    endloop
  endfacet
  facet normal  6.586951e-01  6.025614e-01  4.506004e-01
    outer loop
      vertex  -5.564919e+00  5.658598e+01  6.801403e+01
      vertex   8.128389e+00  5.798867e+01  4.612120e+01
      vertex   2.171516e+00  6.877903e+01  4.039973e+01
    endloop
  endfacet
  facet normal  7.027632e-02  1.565273e-01  9.851702e-01
    outer loop
      vertex  -9.277390e+00  1.953720e+01  3.543431e+01
      vertex   1.214534e+01  1.894495e+01  3.400023e+01
      vertex  -4.704914e+00  4.645239e+01  3.083175e+01
    endloop
  endfacet
  facet normal  5.974194e-01 -7.909577e-01 -1.321962e-01
    outer loop
      vertex   3.262253e+00  5.128277e+01  3.793569e+01
      vertex  -4.704914e+00  4.645239e+01  3.083175e+01
      vertex   1.023000e+01  5.927172e+01  2.162468e+01
    endloop
  endfacet
  facet normal  3.072070e-01  2.924961e-01  9.055771e-01
    outer loop
      vertex   1.214534e+01  1.894495e+01  3.400023e+01
      vertex   1.023000e+01  5.927172e+01  2.162468e+01
      vertex  -4.704914e+00  4.645239e+01  3.083175e+01
    endloop
  endfacet
  facet normal  7.878276e-01 -6.148785e-01  3.538403e-02
    outer loop
      vertex   3.262253e+00  5.128277e+01  3.793569e+01
      vertex   1.023000e+01  5.927172e+01  2.162468e+01
      vertex   8.128389e+00  5.798867e+01  4.612120e+01
    endloop
  endfacet
  facet normal  5.402185e-01 -3.624067e-01  7.594903e-01
    outer loop
      vertex  -6.608681e+00  2.704631e+01  1.326684e+02
      vertex   5.190197e+00  2.060498e+01  1.212024e+02
      vertex   7.961879e+00  4.918040e+01  1.328663e+02
    endloop
  endfacet
  facet normal  9.959919e-01 -8.296581e-02 -3.341844e-02
    outer loop
      vertex   6.483197e+00  3.702967e+01  1.189620e+02
      vertex   7.961879e+00  4.918040e+01  1.328663e+02
      vertex   5.190197e+00  2.060498e+01  1.212024e+02
    endloop
  endfacet
  facet normal  4.211344e-01  8.776058e-01  2.290281e-01
    outer loop
      vertex  -2.374011e+00  5.323646e+01  1.363295e+02
      vertex   7.961879e+00  4.918040e+01  1.328663e+02
      vertex  -4.428483e+00  5.879061e+01  1.188245e+02
    endloop
  endfacet
  facet normal  8.054845e-01  4.011412e-01 -4.362116e-01
    outer loop
      vertex  -4.428483e+00  5.879061e+01  1.188245e+02
      vertex   7.961879e+00  4.918040e+01  1.328663e+02
      vertex   6.483197e+00  3.702967e+01  1.189620e+02
    endloop
  endfacet
  facet normal -1.274841e-01 -8.636941e-01 -4.876272e-01
    outer loop
      vertex   4.567495e+00 -1.125061e+02  7.037418e+01
      vertex  -1.011444e+01 -1.046223e+02  6.024860e+01
      vertex   2.626210e+00 -1.000039e+02  4.873745e+01
    endloop
  endfacet
  facet normal  5.812152e-01 -7.074441e-01 -4.021340e-01
    outer loop
      vertex   4.223168e+00 -7.220683e+01 -1.791378e+01
      vertex   1.780027e+01 -5.608343e+01 -2.665511e+01
      vertex   2.228546e+01 -7.149107e+01  6.932939e+00
    endloop
  endfacet
  facet normal -8.533095e-01 -3.798582e-01  3.571706e-01
    outer loop
      vertex   1.253391e+01 -5.761063e+01 -6.755159e+01
      vertex   7.161427e+00 -4.806278e+01 -7.023255e+01
      vertex   5.931206e+00 -5.892052e+01 -8.471908e+01
    endloop
  endfacet
  facet normal -7.082272e-01  5.924711e-01 -3.839170e-01
    outer loop
      vertex   5.931206e+00 -5.892052e+01 -8.471908e+01
      vertex   7.161427e+00 -4.806278e+01 -7.023255e+01
      vertex   1.601326e+01 -4.961142e+01 -8.895178e+01
    endloop
  endfacet
  facet normal -4.230163e-01  8.870983e-01 -1.846997e-01
    outer loop
      vertex   2.311744e+01 -3.518476e+01 -4.492433e+01
      vertex   7.161427e+00 -4.806278e+01 -7.023255e+01
      vertex   1.598964e+01 -3.639178e+01 -3.439684e+01
    endloop
  endfacet
  facet normal -3.497167e-01  9.055172e-01 -2.402851e-01
    outer loop
      vertex   7.161427e+00 -4.806278e+01 -7.023255e+01
      vertex   2.311744e+01 -3.518476e+01 -4.492433e+01
      vertex   1.601326e+01 -4.961142e+01 -8.895178e+01
    endloop
  endfacet
  facet normal  5.202717e-01  7.831539e-01 -3.405693e-01
    outer loop
      vertex   2.311744e+01 -3.518476e+01 -4.492433e+01
      vertex   2.478939e+01 -5.058847e+01 -7.779168e+01
      vertex   1.601326e+01 -4.961142e+01 -8.895178e+01
    endloop
  endfacet
  facet normal  6.382484e-01 -4.366646e-01  6.340055e-01
    outer loop
      vertex   2.350548e+01 -7.520492e+01  7.700027e+01
      vertex  -1.599250e+00 -8.804117e+01  9.343217e+01
      vertex   4.567495e+00 -1.125061e+02  7.037418e+01
    endloop
  endfacet
  facet normal  3.080273e-01  7.098986e-01  6.333744e-01
    outer loop
      vertex   1.147013e+01 -3.977402e+01  3.450076e+01
      vertex   2.183409e+01 -2.814440e+01  1.642578e+01
      vertex  -1.163023e+01 -2.157467e+01  2.533690e+01
    endloop
  endfacet
  facet normal  5.866985e-01  7.830170e-01  2.065655e-01
    outer loop
      vertex   1.147013e+01 -3.977402e+01  3.450076e+01
      vertex   1.869645e+00 -4.364837e+01  7.645486e+01
      vertex   2.296857e+01 -5.710139e+01  6.752425e+01
    endloop
  endfacet
  facet normal -6.107510e-01 -7.363784e-01  2.910843e-01
    outer loop
      vertex   1.253391e+01 -5.761063e+01 -6.755159e+01
      vertex   5.931206e+00 -5.892052e+01 -8.471908e+01
      vertex   1.845062e+01 -6.817287e+01 -8.185729e+01
    endloop
  endfacet
  facet normal -5.551121e-02 -3.628276e-01 -9.302014e-01
    outer loop
      vertex   5.931206e+00 -5.892052e+01 -8.471908e+01
      vertex   1.601326e+01 -4.961142e+01 -8.895178e+01
      vertex   1.845062e+01 -6.817287e+01 -8.185729e+01
    endloop
  endfacet
  facet normal  7.730337e-01 -1.353703e-01 -6.197531e-01
    outer loop
      vertex   1.601326e+01 -4.961142e+01 -8.895178e+01
      vertex   2.478939e+01 -5.058847e+01 -7.779168e+01
      vertex   1.845062e+01 -6.817287e+01 -8.185729e+01
    endloop
  endfacet
  facet normal -9.342202e-01  3.190826e-01  1.594332e-01
    outer loop
      vertex   5.656104e+00  3.296404e+01 -4.092231e+01
      vertex   1.263486e+01  4.972915e+01 -3.358229e+01
      vertex   1.294278e+01  6.350576e+01 -5.934992e+01
    endloop
  endfacet
  facet normal -8.663190e-01 -8.977698e-02 -4.913567e-01
    outer loop
      vertex   1.624841e+01  4.991017e+01 -6.269405e+01
      vertex   5.656104e+00  3.296404e+01 -4.092231e+01
      vertex   1.294278e+01  6.350576e+01 -5.934992e+01
    endloop
  endfacet
  facet normal -9.595352e-01 -1.800466e-01 -2.165071e-01
    outer loop
      vertex   2.225344e+01  4.528580e+01 -8.546207e+01
      vertex   1.624841e+01  4.991017e+01 -6.269405e+01
      vertex   1.294278e+01  6.350576e+01 -5.934992e+01
    endloop
  endfacet
  facet normal  2.267018e-01  8.577818e-01  4.613204e-01
    outer loop
      vertex   2.237201e+01  4.948949e+01 -3.792170e+01
      vertex   1.294278e+01  6.350576e+01 -5.934992e+01
      vertex   1.263486e+01  4.972915e+01 -3.358229e+01
    endloop
  endfacet
  facet normal -2.847400e-01  7.400161e-01  6.093433e-01
    outer loop
      vertex   2.010057e+01  6.614060e+01 -5.920504e+01
      vertex   1.294278e+01  6.350576e+01 -5.934992e+01
      vertex   2.237201e+01  4.948949e+01 -3.792170e+01
    endloop
  endfacet
  facet normal -2.618835e-01  7.451568e-01 -6.133176e-01
    outer loop
      vertex   2.225344e+01  4.528580e+01 -8.546207e+01
      vertex   1.294278e+01  6.350576e+01 -5.934992e+01
      vertex   2.010057e+01  6.614060e+01 -5.920504e+01
    endloop
  endfacet
  facet normal  7.291668e-01  1.729490e-01  6.621211e-01
    outer loop
      vertex   1.129926e+01 -6.769092e+01  4.198095e+01
      vertex   2.594520e+01 -5.505721e+01  2.255200e+01
      vertex   1.147013e+01 -3.977402e+01  3.450076e+01
    endloop
  endfacet
  facet normal  9.203522e-01 -1.064663e-01 -3.763199e-01
    outer loop
      vertex   1.129926e+01 -6.769092e+01  4.198095e+01
      vertex   1.147013e+01 -3.977402e+01  3.450076e+01
      vertex   2.296857e+01 -5.710139e+01  6.752425e+01
    endloop
  endfacet
  facet normal  7.494371e-01 -5.419072e-01 -3.803691e-01
    outer loop
      vertex   4.567495e+00 -1.125061e+02  7.037418e+01
      vertex   2.626210e+00 -1.000039e+02  4.873745e+01
      vertex   2.682625e+01 -7.309386e+01  5.808016e+01
    endloop
  endfacet
  facet normal  2.040736e-01  9.031556e-01 -3.777088e-01
    outer loop
      vertex   2.875473e+01  5.606043e+01 -9.733830e+00
      vertex   1.263486e+01  4.972915e+01 -3.358229e+01
      vertex  -5.100496e+00  6.667405e+01 -2.646920e+00
    endloop
  endfacet
  facet normal  3.369207e-01 -9.158188e-01 -2.185418e-01
    outer loop
      vertex   2.228546e+01 -7.149107e+01  6.932939e+00
      vertex  -1.175165e+00 -8.407481e+01  2.349756e+01
      vertex   4.223168e+00 -7.220683e+01 -1.791378e+01
    endloop
  endfacet
  facet normal  5.957521e-01 -7.568498e-01  2.688082e-01
    outer loop
      vertex  -1.175165e+00 -8.407481e+01  2.349756e+01
      vertex   2.228546e+01 -7.149107e+01  6.932939e+00
      vertex   1.129926e+01 -6.769092e+01  4.198095e+01
    endloop
  endfacet
  facet normal  8.223919e-01 -4.773400e-01  3.095447e-01
    outer loop
      vertex   2.228546e+01 -7.149107e+01  6.932939e+00
      vertex   2.594520e+01 -5.505721e+01  2.255200e+01
      vertex   1.129926e+01 -6.769092e+01  4.198095e+01
    endloop
  endfacet
  facet normal  9.324664e-01  3.430209e-01 -1.133269e-01
    outer loop
      vertex   3.048632e+01 -4.573158e+01 -1.621573e+01
      vertex   2.478939e+01 -5.058847e+01 -7.779168e+01
      vertex   2.311744e+01 -3.518476e+01 -4.492433e+01
    endloop
  endfacet
  facet normal -8.655291e-01 -4.038337e-01  2.962731e-01
    outer loop
      vertex   7.161427e+00 -4.806278e+01 -7.023255e+01
      vertex   1.253391e+01 -5.761063e+01 -6.755159e+01
      vertex   2.010610e+01 -5.088057e+01 -3.625690e+01
    endloop
  endfacet
  facet normal  7.116893e-01 -3.914198e-01  5.833429e-01
    outer loop
      vertex   2.478939e+01 -5.058847e+01 -7.779168e+01
      vertex   1.253391e+01 -5.761063e+01 -6.755159e+01
      vertex   1.845062e+01 -6.817287e+01 -8.185729e+01
    endloop
  endfacet
  facet normal  3.359921e-01  2.493033e-01 -9.082716e-01
    outer loop
      vertex   3.562130e+00 -2.959653e+01 -3.712891e+01
      vertex   1.536679e+01  8.086569e+00 -2.241878e+01
      vertex   1.598964e+01 -3.639178e+01 -3.439684e+01
    endloop
  endfacet
  facet normal  7.611214e-01  1.785786e-01 -6.235414e-01
    outer loop
      vertex   2.617686e+01  1.616890e+01 -6.908811e+00
      vertex   1.598964e+01 -3.639178e+01 -3.439684e+01
      vertex   1.536679e+01  8.086569e+00 -2.241878e+01
    endloop
  endfacet
  facet normal  8.082499e-01  1.421837e-01 -5.714157e-01
    outer loop
      vertex   1.598964e+01 -3.639178e+01 -3.439684e+01
      vertex   2.617686e+01  1.616890e+01 -6.908811e+00
      vertex   3.048632e+01 -4.573158e+01 -1.621573e+01
    endloop
  endfacet
  facet normal  1.875200e-01 -3.093561e-01  9.322741e-01
    outer loop
      vertex   1.214534e+01  1.894495e+01  3.400023e+01
      vertex  -1.163023e+01 -2.157467e+01  2.533690e+01
      vertex   2.183409e+01 -2.814440e+01  1.642578e+01
    endloop
  endfacet
  facet normal  7.463349e-01 -9.243359e-02  6.591207e-01
    outer loop
      vertex   2.183409e+01 -2.814440e+01  1.642578e+01
      vertex   2.827353e+01  2.804021e+01  1.701347e+01
      vertex   1.214534e+01  1.894495e+01  3.400023e+01
    endloop
  endfacet
  facet normal  9.440845e-01 -1.114494e-01  3.102957e-01
    outer loop
      vertex   2.183409e+01 -2.814440e+01  1.642578e+01
      vertex   3.048632e+01 -4.573158e+01 -1.621573e+01
      vertex   2.827353e+01  2.804021e+01  1.701347e+01
    endloop
  endfacet
  facet normal -9.003296e-01 -2.966741e-01  3.184194e-01
    outer loop
      vertex   7.161427e+00 -4.806278e+01 -7.023255e+01
      vertex   2.010610e+01 -5.088057e+01 -3.625690e+01
      vertex   1.598964e+01 -3.639178e+01 -3.439684e+01
    endloop
  endfacet
  facet normal  4.774037e-03 -3.655022e-01 -9.307982e-01
    outer loop
      vertex   3.562130e+00 -2.959653e+01 -3.712891e+01
      vertex   1.598964e+01 -3.639178e+01 -3.439684e+01
      vertex   1.780027e+01 -5.608343e+01 -2.665511e+01
    endloop
  endfacet
  facet normal  2.510785e-01  9.276775e-01  2.763587e-01
    outer loop
      vertex   2.311744e+01 -3.518476e+01 -4.492433e+01
      vertex   1.598964e+01 -3.639178e+01 -3.439684e+01
      vertex   3.048632e+01 -4.573158e+01 -1.621573e+01
    endloop
  endfacet
  facet normal  6.292773e-01  2.551690e-01  7.340974e-01
    outer loop
      vertex   1.214534e+01  1.894495e+01  3.400023e+01
      vertex   2.827353e+01  2.804021e+01  1.701347e+01
      vertex   1.023000e+01  5.927172e+01  2.162468e+01
    endloop
  endfacet
  facet normal  8.059890e-01  4.014188e-01  4.350227e-01
    outer loop
      vertex   1.023000e+01  5.927172e+01  2.162468e+01
      vertex   2.827353e+01  2.804021e+01  1.701347e+01
      vertex   2.875473e+01  5.606043e+01 -9.733830e+00
    endloop
  endfacet
  facet normal -9.623199e-01 -1.241502e-01  2.419240e-01
    outer loop
      vertex   2.615465e+01  2.153990e+01 -8.212983e+01
      vertex   2.573863e+01  4.096440e+01 -7.381642e+01
      vertex   2.225344e+01  4.528580e+01 -8.546207e+01
    endloop
  endfacet
  facet normal  4.269172e-01  7.248346e-01 -5.407001e-01
    outer loop
      vertex   3.113127e+01  4.458380e+01 -7.939353e+01
      vertex   2.225344e+01  4.528580e+01 -8.546207e+01
      vertex   2.010057e+01  6.614060e+01 -5.920504e+01
    endloop
  endfacet
  facet normal  6.272328e-01 -3.170959e-01 -7.113573e-01
    outer loop
      vertex   1.129926e+01 -6.769092e+01  4.198095e+01
      vertex   2.682625e+01 -7.309386e+01  5.808016e+01
      vertex   2.626210e+00 -1.000039e+02  4.873745e+01
    endloop
  endfacet
  facet normal  7.068278e-01  4.782815e-01 -5.211923e-01
    outer loop
      vertex   2.296857e+01 -5.710139e+01  6.752425e+01
      vertex   2.682625e+01 -7.309386e+01  5.808016e+01
      vertex   1.129926e+01 -6.769092e+01  4.198095e+01
    endloop
  endfacet
  facet normal  8.212729e-01  2.835137e-01  4.951068e-01
    outer loop
      vertex   2.296857e+01 -5.710139e+01  6.752425e+01
      vertex   8.305512e+00 -6.582267e+01  9.684109e+01
      vertex   2.350548e+01 -7.520492e+01  7.700027e+01
    endloop
  endfacet
  facet normal  6.185070e-01 -7.820259e-01  7.671151e-02
    outer loop
      vertex   8.305512e+00 -6.582267e+01  9.684109e+01
      vertex   2.296857e+01 -5.710139e+01  6.752425e+01
      vertex   2.088280e+01 -5.531864e+01  1.025154e+02
    endloop
  endfacet
  facet normal  9.746355e-01  1.257930e-01  1.850989e-01
    outer loop
      vertex   2.682625e+01 -7.309386e+01  5.808016e+01
      vertex   2.296857e+01 -5.710139e+01  6.752425e+01
      vertex   2.350548e+01 -7.520492e+01  7.700027e+01
    endloop
  endfacet
  facet normal  7.490106e-01 -5.586182e-01 -3.562708e-01
    outer loop
      vertex   1.780027e+01 -5.608343e+01 -2.665511e+01
      vertex   3.048632e+01 -4.573158e+01 -1.621573e+01
      vertex   2.228546e+01 -7.149107e+01  6.932939e+00
    endloop
  endfacet
  facet normal  7.604176e-01  2.523722e-01  5.983921e-01
    outer loop
      vertex   2.594520e+01 -5.505721e+01  2.255200e+01
      vertex   2.183409e+01 -2.814440e+01  1.642578e+01
      vertex   1.147013e+01 -3.977402e+01  3.450076e+01
    endloop
  endfacet
  facet normal  9.701278e-01  1.841442e-01  1.579337e-01
    outer loop
      vertex   3.048632e+01 -4.573158e+01 -1.621573e+01
      vertex   2.183409e+01 -2.814440e+01  1.642578e+01
      vertex   2.594520e+01 -5.505721e+01  2.255200e+01
    endloop
  endfacet
  facet normal  5.656923e-01 -7.827134e-01 -2.595226e-01
    outer loop
      vertex   1.902907e+01  2.017593e+01 -5.089717e+01
      vertex   4.056641e+01  2.895657e+01 -3.043348e+01
      vertex   1.536679e+01  8.086569e+00 -2.241878e+01
    endloop
  endfacet
  facet normal  7.181633e-01 -3.125783e-01 -6.217203e-01
    outer loop
      vertex   1.902907e+01  2.017593e+01 -5.089717e+01
      vertex   3.023842e+01  3.970059e+01 -4.776528e+01
      vertex   4.056641e+01  2.895657e+01 -3.043348e+01
    endloop
  endfacet
  facet normal -7.132560e-01 -6.993880e-01 -4.606880e-02
    outer loop
      vertex   2.573863e+01  4.096440e+01 -7.381642e+01
      vertex   1.624841e+01  4.991017e+01 -6.269405e+01
      vertex   2.225344e+01  4.528580e+01 -8.546207e+01
    endloop
  endfacet
  facet normal -1.316725e-01 -8.242961e-01  5.506344e-01
    outer loop
      vertex   2.784956e+01  5.203968e+01 -5.673201e+01
      vertex   1.624841e+01  4.991017e+01 -6.269405e+01
      vertex   2.573863e+01  4.096440e+01 -7.381642e+01
    endloop
  endfacet
  facet normal  7.285116e-01 -6.123981e-01  3.069844e-01
    outer loop
      vertex   2.573863e+01  4.096440e+01 -7.381642e+01
      vertex   3.113127e+01  4.458380e+01 -7.939353e+01
      vertex   2.784956e+01  5.203968e+01 -5.673201e+01
    endloop
  endfacet
  facet normal -9.159887e-01 -2.169153e-01 -3.375092e-01
    outer loop
      vertex   1.598964e+01 -3.639178e+01 -3.439684e+01
      vertex   2.010610e+01 -5.088057e+01 -3.625690e+01
      vertex   1.780027e+01 -5.608343e+01 -2.665511e+01
    endloop
  endfacet
  facet normal  5.298953e-01 -8.463551e-01  5.379689e-02
    outer loop
      vertex   2.010610e+01 -5.088057e+01 -3.625690e+01
      vertex   1.253391e+01 -5.761063e+01 -6.755159e+01
      vertex   2.478939e+01 -5.058847e+01 -7.779168e+01
    endloop
  endfacet
  facet normal  3.857973e-01 -9.218406e-01  3.701814e-02
    outer loop
      vertex   2.010610e+01 -5.088057e+01 -3.625690e+01
      vertex   2.478939e+01 -5.058847e+01 -7.779168e+01
      vertex   3.048632e+01 -4.573158e+01 -1.621573e+01
    endloop
  endfacet
  facet normal  7.114164e-01 -6.751729e-01 -1.950086e-01
    outer loop
      vertex   1.780027e+01 -5.608343e+01 -2.665511e+01
      vertex   2.010610e+01 -5.088057e+01 -3.625690e+01
      vertex   3.048632e+01 -4.573158e+01 -1.621573e+01
    endloop
  endfacet
  facet normal -7.398996e-01 -3.067313e-01 -5.987191e-01
    outer loop
      vertex   1.624841e+01  4.991017e+01 -6.269405e+01
      vertex   1.902907e+01  2.017593e+01 -5.089717e+01
      vertex   5.656104e+00  3.296404e+01 -4.092231e+01
    endloop
  endfacet
  facet normal  4.789987e-01 -2.846539e-01 -8.303809e-01
    outer loop
      vertex   1.624841e+01  4.991017e+01 -6.269405e+01
      vertex   2.784956e+01  5.203968e+01 -5.673201e+01
      vertex   1.902907e+01  2.017593e+01 -5.089717e+01
    endloop
  endfacet
  facet normal  8.114144e-01  4.992124e-01  3.039634e-01
    outer loop
      vertex   2.237201e+01  4.948949e+01 -3.792170e+01
      vertex   2.784956e+01  5.203968e+01 -5.673201e+01
      vertex   2.010057e+01  6.614060e+01 -5.920504e+01
    endloop
  endfacet
  facet normal  7.182486e-01 -3.126488e-01 -6.215864e-01
    outer loop
      vertex   1.902907e+01  2.017593e+01 -5.089717e+01
      vertex   2.784956e+01  5.203968e+01 -5.673201e+01
      vertex   3.023842e+01  3.970059e+01 -4.776528e+01
    endloop
  endfacet
  facet normal  8.684003e-01  3.903442e-01  3.057979e-01
    outer loop
      vertex   2.784956e+01  5.203968e+01 -5.673201e+01
      vertex   2.237201e+01  4.948949e+01 -3.792170e+01
      vertex   3.023842e+01  3.970059e+01 -4.776528e+01
    endloop
  endfacet
  facet normal -7.020012e-02  9.748837e-01 -2.113616e-01
    outer loop
      vertex   2.237201e+01  4.948949e+01 -3.792170e+01
      vertex   1.263486e+01  4.972915e+01 -3.358229e+01
      vertex   2.875473e+01  5.606043e+01 -9.733830e+00
    endloop
  endfacet
  facet normal  5.673481e-01  7.642621e-01 -3.066263e-01
    outer loop
      vertex   2.875473e+01  5.606043e+01 -9.733830e+00
      vertex   3.023842e+01  3.970059e+01 -4.776528e+01
      vertex   2.237201e+01  4.948949e+01 -3.792170e+01
    endloop
  endfacet
  facet normal  8.408221e-01  5.083923e-01 -1.858910e-01
    outer loop
      vertex   4.056641e+01  2.895657e+01 -3.043348e+01
      vertex   3.023842e+01  3.970059e+01 -4.776528e+01
      vertex   2.875473e+01  5.606043e+01 -9.733830e+00
    endloop
  endfacet
  facet normal  3.149168e-01  9.449118e-01  8.926984e-02
    outer loop
      vertex   2.875473e+01  5.606043e+01 -9.733830e+00
      vertex  -5.100496e+00  6.667405e+01 -2.646920e+00
      vertex   1.023000e+01  5.927172e+01  2.162468e+01
    endloop
  endfacet
  facet normal  9.637735e-01 -2.620194e-01  4.986400e-02
    outer loop
      vertex   2.228546e+01 -7.149107e+01  6.932939e+00
      vertex   3.048632e+01 -4.573158e+01 -1.621573e+01
      vertex   2.594520e+01 -5.505721e+01  2.255200e+01
    endloop
  endfacet
  facet normal  8.781981e-01  4.773626e-01 -2.988195e-02
    outer loop
      vertex   2.010057e+01  6.614060e+01 -5.920504e+01
      vertex   2.784956e+01  5.203968e+01 -5.673201e+01
      vertex   3.113127e+01  4.458380e+01 -7.939353e+01
    endloop
  endfacet
  facet normal -3.375679e-01 -3.764697e-01  8.627390e-01
    outer loop
      vertex   3.760465e+01  2.705185e+01 -7.524451e+01
      vertex   2.573863e+01  4.096440e+01 -7.381642e+01
      vertex   2.615465e+01  2.153990e+01 -8.212983e+01
    endloop
  endfacet
  facet normal  4.887190e-01  5.849489e-01 -6.472932e-01
    outer loop
      vertex   3.113127e+01  4.458380e+01 -7.939353e+01
      vertex   3.771045e+01  3.125236e+01 -8.647353e+01
      vertex   2.225344e+01  4.528580e+01 -8.546207e+01
    endloop
  endfacet
  facet normal  5.321535e-01  3.760088e-01  7.585711e-01
    outer loop
      vertex   3.113127e+01  4.458380e+01 -7.939353e+01
      vertex   2.573863e+01  4.096440e+01 -7.381642e+01
      vertex   3.760465e+01  2.705185e+01 -7.524451e+01
    endloop
  endfacet
  facet normal  8.130163e-01 -5.467833e-01  2.000816e-01
    outer loop
      vertex   4.056641e+01  2.895657e+01 -3.043348e+01
      vertex   2.827353e+01  2.804021e+01  1.701347e+01
      vertex   2.617686e+01  1.616890e+01 -6.908811e+00
    endloop
  endfacet
  facet normal  9.430324e-01  2.211092e-01  2.485975e-01
    outer loop
      vertex   2.875473e+01  5.606043e+01 -9.733830e+00
      vertex   2.827353e+01  2.804021e+01  1.701347e+01
      vertex   4.056641e+01  2.895657e+01 -3.043348e+01
    endloop
  endfacet
  facet normal -2.178007e-01 -1.706334e-01 -9.609615e-01
    outer loop
      vertex   3.771045e+01  3.125236e+01 -8.647353e+01
      vertex   2.615465e+01  2.153990e+01 -8.212983e+01
      vertex   2.225344e+01  4.528580e+01 -8.546207e+01
    endloop
  endfacet
  facet normal  9.158164e-01  3.732336e-01  1.482466e-01
    outer loop
      vertex   3.760465e+01  2.705185e+01 -7.524451e+01
      vertex   3.771045e+01  3.125236e+01 -8.647353e+01
      vertex   3.113127e+01  4.458380e+01 -7.939353e+01
    endloop
  endfacet
  facet normal  5.504119e-01 -7.836608e-01 -2.879626e-01
    outer loop
      vertex   3.760465e+01  2.705185e+01 -7.524451e+01
      vertex   2.615465e+01  2.153990e+01 -8.212983e+01
      vertex   3.771045e+01  3.125236e+01 -8.647353e+01
    endloop
  endfacet
  facet normal  4.381703e-02 -5.916134e-01 -8.050303e-01
    outer loop
      vertex  -1.181599e+01  8.789237e+00 -2.441470e+01
      vertex   1.789975e-02  2.530927e+01 -3.591110e+01
      vertex   1.536679e+01  8.086569e+00 -2.241878e+01
    endloop
  endfacet
  facet normal -5.139614e-01 -7.638492e-01 -3.903564e-01
    outer loop
      vertex   1.789975e-02  2.530927e+01 -3.591110e+01
      vertex   1.902907e+01  2.017593e+01 -5.089717e+01
      vertex   1.536679e+01  8.086569e+00 -2.241878e+01
    endloop
  endfacet
  facet normal  5.817791e-02 -2.412540e-01  9.687166e-01
    outer loop
      vertex  -1.163023e+01 -2.157467e+01  2.533690e+01
      vertex   1.214534e+01  1.894495e+01  3.400023e+01
      vertex  -9.277390e+00  1.953720e+01  3.543431e+01
    endloop
  endfacet
  facet normal  6.352041e-01 -3.858209e-01  6.690725e-01
    outer loop
      vertex  -1.599250e+00 -8.804117e+01  9.343217e+01
      vertex   2.350548e+01 -7.520492e+01  7.700027e+01
      vertex   8.305512e+00 -6.582267e+01  9.684109e+01
    endloop
  endfacet
  facet normal  8.794965e-01 -4.647339e-01  1.025110e-01
    outer loop
      vertex   2.350548e+01 -7.520492e+01  7.700027e+01
      vertex   4.567495e+00 -1.125061e+02  7.037418e+01
      vertex   2.682625e+01 -7.309386e+01  5.808016e+01
    endloop
  endfacet
  facet normal  2.509254e-01 -1.736927e-01  9.522957e-01
    outer loop
      vertex  -2.374011e+00  5.323646e+01  1.363295e+02
      vertex  -6.608681e+00  2.704631e+01  1.326684e+02
      vertex   7.961879e+00  4.918040e+01  1.328663e+02
    endloop
  endfacet
  facet normal  8.476796e-01  5.209961e-01  1.000124e-01
    outer loop
      vertex   1.023000e+01  5.927172e+01  2.162468e+01
      vertex   2.171516e+00  6.877903e+01  4.039973e+01
      vertex   8.128389e+00  5.798867e+01  4.612120e+01
    endloop
  endfacet
  facet normal  5.342121e-01  8.452760e-01 -1.122206e-02
    outer loop
      vertex   2.296857e+01 -5.710139e+01  6.752425e+01
      vertex   1.869645e+00 -4.364837e+01  7.645486e+01
      vertex   2.088280e+01 -5.531864e+01  1.025154e+02
    endloop
  endfacet
  facet normal  6.306953e-01 -7.752131e-01 -3.561158e-02
    outer loop
      vertex   4.056641e+01  2.895657e+01 -3.043348e+01
      vertex   2.617686e+01  1.616890e+01 -6.908811e+00
      vertex   1.536679e+01  8.086569e+00 -2.241878e+01
    endloop
  endfacet
  facet normal  9.875170e-01  8.835570e-02 -1.303973e-01
    outer loop
      vertex   3.048632e+01 -4.573158e+01 -1.621573e+01
      vertex   2.617686e+01  1.616890e+01 -6.908811e+00
      vertex   2.827353e+01  2.804021e+01  1.701347e+01
    endloop
  endfacet
  facet normal -9.643355e-02 -4.104119e-01 -9.067870e-01
    outer loop
      vertex   3.562130e+00 -2.959653e+01 -3.712891e+01
      vertex   1.780027e+01 -5.608343e+01 -2.665511e+01
      vertex   4.223168e+00 -7.220683e+01 -1.791378e+01
    endloop
  endfacet
  facet normal  7.760384e-02  3.413539e-01 -9.367258e-01
    outer loop
      vertex   3.562130e+00 -2.959653e+01 -3.712891e+01
      vertex  -1.181599e+01  8.789237e+00 -2.441470e+01
      vertex   1.536679e+01  8.086569e+00 -2.241878e+01
    endloop
  endfacet
  facet normal -1.309061e-01 -8.959418e-01 -4.244431e-01
    outer loop
      vertex  -1.293620e+01 -6.326648e+01  4.011624e+01
      vertex   1.129926e+01 -6.769092e+01  4.198095e+01
      vertex  -1.631974e+01 -6.570631e+01  4.630994e+01
    endloop
  endfacet
  facet normal -1.307940e-01  3.084150e-01  9.422171e-01
    outer loop
      vertex   1.147013e+01 -3.977402e+01  3.450076e+01
      vertex  -1.163023e+01 -2.157467e+01  2.533690e+01
      vertex  -9.118911e+00 -3.732128e+01  3.083983e+01
    endloop
  endfacet
  facet normal  6.180782e-01 -4.996308e-01 -6.069172e-01
    outer loop
      vertex  -1.880711e+01  1.628244e+01 -4.765116e+01
      vertex  -7.729831e+00  2.784644e+01 -4.588998e+01
      vertex   1.789975e-02  2.530927e+01 -3.591110e+01
    endloop
  endfacet
  facet normal -4.690711e-01 -2.152316e-01 -8.565324e-01
    outer loop
      vertex  -7.726936e+00  4.593674e+01 -3.685304e+01
      vertex   5.656104e+00  3.296404e+01 -4.092231e+01
      vertex   1.789975e-02  2.530927e+01 -3.591110e+01
    endloop
  endfacet
  facet normal  7.923075e-01  2.725551e-01 -5.458595e-01
    outer loop
      vertex  -7.726936e+00  4.593674e+01 -3.685304e+01
      vertex   1.789975e-02  2.530927e+01 -3.591110e+01
      vertex  -7.729831e+00  2.784644e+01 -4.588998e+01
    endloop
  endfacet
  facet normal -7.694962e-02  8.552006e-01 -5.125530e-01
    outer loop
      vertex  -7.726936e+00  4.593674e+01 -3.685304e+01
      vertex  -5.100496e+00  6.667405e+01 -2.646920e+00
      vertex   1.263486e+01  4.972915e+01 -3.358229e+01
    endloop
  endfacet
  facet normal  7.929440e-02  3.719159e-01 -9.248735e-01
    outer loop
      vertex   5.656104e+00  3.296404e+01 -4.092231e+01
      vertex  -7.726936e+00  4.593674e+01 -3.685304e+01
      vertex   1.263486e+01  4.972915e+01 -3.358229e+01
    endloop
  endfacet
  facet normal  2.959523e-01  8.065775e-01 -5.117080e-01
    outer loop
      vertex  -2.038354e+01  4.983809e+01 -3.802366e+01
      vertex  -5.100496e+00  6.667405e+01 -2.646920e+00
      vertex  -7.726936e+00  4.593674e+01 -3.685304e+01
    endloop
  endfacet
  facet normal -7.296543e-01  5.413361e-01  4.178035e-01
    outer loop
      vertex  -5.564919e+00  5.658598e+01  6.801403e+01
      vertex  -8.474989e+00  2.139388e+01  1.085293e+02
      vertex  -2.451457e+00  3.979008e+01  9.521336e+01
    endloop
  endfacet
  facet normal -7.678960e-02 -1.176730e-01  9.900790e-01
    outer loop
      vertex  -1.599250e+00 -8.804117e+01  9.343217e+01
      vertex   8.305512e+00 -6.582267e+01  9.684109e+01
      vertex  -1.017518e+01 -6.770219e+01  9.518436e+01
    endloop
  endfacet
  facet normal  8.030338e-01  5.958331e-02  5.929473e-01
    outer loop
      vertex  -2.072376e+01 -6.068102e+01  1.087649e+02
      vertex  -1.017518e+01 -6.770219e+01  9.518436e+01
      vertex   1.869645e+00 -4.364837e+01  7.645486e+01
    endloop
  endfacet
  facet normal -1.560073e-01  9.146002e-01  3.730525e-01
    outer loop
      vertex  -2.072376e+01 -6.068102e+01  1.087649e+02
      vertex   1.869645e+00 -4.364837e+01  7.645486e+01
      vertex  -1.873420e+01 -5.046924e+01  8.456102e+01
    endloop
  endfacet
  facet normal -4.237902e-01 -8.141680e-01 -3.969032e-01
    outer loop
      vertex  -6.867028e+00  5.387062e+01  4.019281e+01
      vertex   1.411593e+00  2.369769e+01  9.324715e+01
      vertex  -8.474989e+00  2.139388e+01  1.085293e+02
    endloop
  endfacet
  facet normal -4.108222e-01  9.113457e-01 -2.596507e-02
    outer loop
      vertex  -7.021281e+00  6.396474e+01  1.687301e+01
      vertex  -8.748009e+00  6.373884e+01  3.626442e+01
      vertex   2.171516e+00  6.877903e+01  4.039973e+01
    endloop
  endfacet
  facet normal  5.088228e-02 -9.918736e-01 -1.166095e-01
    outer loop
      vertex   1.411593e+00  2.369769e+01  9.324715e+01
      vertex   5.190197e+00  2.060498e+01  1.212024e+02
      vertex  -8.474989e+00  2.139388e+01  1.085293e+02
    endloop
  endfacet
  facet normal -2.756854e-01 -9.309815e-01  2.393135e-01
    outer loop
      vertex  -6.608681e+00  2.704631e+01  1.326684e+02
      vertex  -8.474989e+00  2.139388e+01  1.085293e+02
      vertex   5.190197e+00  2.060498e+01  1.212024e+02
    endloop
  endfacet
  facet normal -9.311751e-01 -3.323656e-01  1.498203e-01
    outer loop
      vertex  -1.223157e+01  4.119476e+01  1.291080e+02
      vertex  -8.474989e+00  2.139388e+01  1.085293e+02
      vertex  -6.608681e+00  2.704631e+01  1.326684e+02
    endloop
  endfacet
  facet normal -9.919547e-01  1.217896e-01  3.453947e-02
    outer loop
      vertex  -8.474989e+00  2.139388e+01  1.085293e+02
      vertex  -5.564919e+00  5.658598e+01  6.801403e+01
      vertex  -6.867028e+00  5.387062e+01  4.019281e+01
    endloop
  endfacet
  facet normal -9.662179e-01  1.916085e-01 -1.723632e-01
    outer loop
      vertex  -8.474989e+00  2.139388e+01  1.085293e+02
      vertex  -5.885562e+00  3.564733e+01  1.098586e+02
      vertex  -2.451457e+00  3.979008e+01  9.521336e+01
    endloop
  endfacet
  facet normal -9.121991e-01  1.991190e-01 -3.581125e-01
    outer loop
      vertex  -5.885562e+00  3.564733e+01  1.098586e+02
      vertex  -8.474989e+00  2.139388e+01  1.085293e+02
      vertex  -1.223157e+01  4.119476e+01  1.291080e+02
    endloop
  endfacet
  facet normal -4.799639e-01  8.442947e-01  2.383300e-01
    outer loop
      vertex   2.171516e+00  6.877903e+01  4.039973e+01
      vertex  -8.748009e+00  6.373884e+01  3.626442e+01
      vertex  -5.564919e+00  5.658598e+01  6.801403e+01
    endloop
  endfacet
  facet normal -9.846748e-01 -1.630095e-01  6.199522e-02
    outer loop
      vertex  -6.867028e+00  5.387062e+01  4.019281e+01
      vertex  -5.564919e+00  5.658598e+01  6.801403e+01
      vertex  -8.748009e+00  6.373884e+01  3.626442e+01
    endloop
  endfacet
  facet normal -6.566037e-02 -7.893797e-01  6.103839e-01
    outer loop
      vertex  -6.867028e+00  5.387062e+01  4.019281e+01
      vertex  -4.704914e+00  4.645239e+01  3.083175e+01
      vertex   3.262253e+00  5.128277e+01  3.793569e+01
    endloop
  endfacet
  facet normal -9.759800e-01 -2.096357e-01 -5.929384e-02
    outer loop
      vertex  -6.867028e+00  5.387062e+01  4.019281e+01
      vertex  -8.748009e+00  6.373884e+01  3.626442e+01
      vertex  -4.704914e+00  4.645239e+01  3.083175e+01
    endloop
  endfacet
  facet normal -9.756920e-01 -2.001654e-01 -8.921337e-02
    outer loop
      vertex  -8.748009e+00  6.373884e+01  3.626442e+01
      vertex  -7.021281e+00  6.396474e+01  1.687301e+01
      vertex  -4.704914e+00  4.645239e+01  3.083175e+01
    endloop
  endfacet
  facet normal -5.660430e-01  2.314614e-01  7.912148e-01
    outer loop
      vertex  -9.277390e+00  1.953720e+01  3.543431e+01
      vertex  -4.704914e+00  4.645239e+01  3.083175e+01
      vertex  -2.867520e+01  3.450372e+01  1.717863e+01
    endloop
  endfacet
  facet normal -6.005732e-01  4.482908e-01  6.620779e-01
    outer loop
      vertex  -2.867520e+01  3.450372e+01  1.717863e+01
      vertex  -4.704914e+00  4.645239e+01  3.083175e+01
      vertex  -7.021281e+00  6.396474e+01  1.687301e+01
    endloop
  endfacet
  facet normal  5.507087e-01  2.711562e-01 -7.894266e-01
    outer loop
      vertex  -4.428483e+00  5.879061e+01  1.188245e+02
      vertex   6.483197e+00  3.702967e+01  1.189620e+02
      vertex  -5.885562e+00  3.564733e+01  1.098586e+02
    endloop
  endfacet
  facet normal -9.131117e-01  1.959907e-01 -3.575118e-01
    outer loop
      vertex  -4.428483e+00  5.879061e+01  1.188245e+02
      vertex  -5.885562e+00  3.564733e+01  1.098586e+02
      vertex  -1.223157e+01  4.119476e+01  1.291080e+02
    endloop
  endfacet
  facet normal -8.177146e-01  5.140305e-01  2.590668e-01
    outer loop
      vertex  -4.428483e+00  5.879061e+01  1.188245e+02
      vertex  -1.223157e+01  4.119476e+01  1.291080e+02
      vertex  -2.374011e+00  5.323646e+01  1.363295e+02
    endloop
  endfacet
  facet normal -6.462470e-01 -6.033210e-01  4.672993e-01
    outer loop
      vertex  -1.011444e+01 -1.046223e+02  6.024860e+01
      vertex   4.567495e+00 -1.125061e+02  7.037418e+01
      vertex  -1.599250e+00 -8.804117e+01  9.343217e+01
    endloop
  endfacet
  facet normal -3.735842e-01 -7.643774e-01 -5.255112e-01
    outer loop
      vertex  -1.891922e+01 -7.692245e+01  5.397136e+00
      vertex  -1.779925e+01 -5.698866e+01 -2.439356e+01
      vertex   4.223168e+00 -7.220683e+01 -1.791378e+01
    endloop
  endfacet
  facet normal -7.922792e-01 -4.929217e-01 -3.596133e-01
    outer loop
      vertex  -1.891922e+01 -7.692245e+01  5.397136e+00
      vertex  -2.869395e+01 -4.884437e+01 -1.155436e+01
      vertex  -1.779925e+01 -5.698866e+01 -2.439356e+01
    endloop
  endfacet
  facet normal -2.118921e-01  8.901327e-01 -4.034419e-01
    outer loop
      vertex  -2.044377e+01 -4.645305e+01 -7.604465e+01
      vertex  -7.775867e+00 -4.300363e+01 -7.508736e+01
      vertex  -1.834094e+01 -5.176564e+01 -8.887048e+01
    endloop
  endfacet
  facet normal  9.757936e-02  9.887191e-01  1.136349e-01
    outer loop
      vertex   1.147013e+01 -3.977402e+01  3.450076e+01
      vertex  -9.118911e+00 -3.732128e+01  3.083983e+01
      vertex   1.869645e+00 -4.364837e+01  7.645486e+01
    endloop
  endfacet
  facet normal -9.755955e-01  1.757709e-01 -1.315981e-01
    outer loop
      vertex  -9.118911e+00 -3.732128e+01  3.083983e+01
      vertex  -1.631974e+01 -6.570631e+01  4.630994e+01
      vertex  -1.873420e+01 -5.046924e+01  8.456102e+01
    endloop
  endfacet
  facet normal -8.159617e-01  5.175146e-01 -2.576531e-01
    outer loop
      vertex  -2.672186e+01 -6.658507e+01  7.748734e+01
      vertex  -1.873420e+01 -5.046924e+01  8.456102e+01
      vertex  -1.631974e+01 -6.570631e+01  4.630994e+01
    endloop
  endfacet
  facet normal  9.338689e-01  3.061449e-01 -1.848355e-01
    outer loop
      vertex  -7.775867e+00 -4.300363e+01 -7.508736e+01
      vertex  -2.923437e+00 -5.793452e+01 -7.530097e+01
      vertex  -5.218602e+00 -5.854638e+01 -8.791055e+01
    endloop
  endfacet
  facet normal  5.023125e-01 -8.632659e-01 -4.954169e-02
    outer loop
      vertex  -1.872676e+01 -6.678691e+01 -8.128070e+01
      vertex  -5.218602e+00 -5.854638e+01 -8.791055e+01
      vertex  -2.923437e+00 -5.793452e+01 -7.530097e+01
    endloop
  endfacet
  facet normal  3.736001e-01  6.261166e-01 -6.843983e-01
    outer loop
      vertex  -5.218602e+00 -5.854638e+01 -8.791055e+01
      vertex  -1.834094e+01 -5.176564e+01 -8.887048e+01
      vertex  -7.775867e+00 -4.300363e+01 -7.508736e+01
    endloop
  endfacet
  facet normal -1.636248e-01 -4.415427e-01 -8.821945e-01
    outer loop
      vertex  -1.834094e+01 -5.176564e+01 -8.887048e+01
      vertex  -5.218602e+00 -5.854638e+01 -8.791055e+01
      vertex  -1.872676e+01 -6.678691e+01 -8.128070e+01
    endloop
  endfacet
  facet normal  9.881046e-01  6.859743e-02 -1.376361e-01
    outer loop
      vertex  -7.729831e+00  2.784644e+01 -4.588998e+01
      vertex  -1.225918e+01  6.408813e+01 -6.034393e+01
      vertex  -7.726936e+00  4.593674e+01 -3.685304e+01
    endloop
  endfacet
  facet normal  8.912345e-01 -6.748557e-02 -4.484937e-01
    outer loop
      vertex  -1.457436e+01  4.911530e+01 -6.269159e+01
      vertex  -1.225918e+01  6.408813e+01 -6.034393e+01
      vertex  -7.729831e+00  2.784644e+01 -4.588998e+01
    endloop
  endfacet
  facet normal  1.914624e-01  7.941847e-01  5.767259e-01
    outer loop
      vertex  -7.726936e+00  4.593674e+01 -3.685304e+01
      vertex  -1.225918e+01  6.408813e+01 -6.034393e+01
      vertex  -2.038354e+01  4.983809e+01 -3.802366e+01
    endloop
  endfacet
  facet normal -1.392806e-03  8.430987e-01  5.377570e-01
    outer loop
      vertex  -1.225918e+01  6.408813e+01 -6.034393e+01
      vertex  -2.425814e+01  6.339202e+01 -5.928364e+01
      vertex  -2.038354e+01  4.983809e+01 -3.802366e+01
    endloop
  endfacet
  facet normal -1.781614e-01 -6.735855e-01  7.173151e-01
    outer loop
      vertex  -1.293620e+01 -6.326648e+01  4.011624e+01
      vertex  -1.175165e+00 -8.407481e+01  2.349756e+01
      vertex   1.129926e+01 -6.769092e+01  4.198095e+01
    endloop
  endfacet
  facet normal -8.683498e-01 -4.870536e-02 -4.935548e-01
    outer loop
      vertex  -1.293620e+01 -6.326648e+01  4.011624e+01
      vertex  -1.631974e+01 -6.570631e+01  4.630994e+01
      vertex  -9.118911e+00 -3.732128e+01  3.083983e+01
    endloop
  endfacet
  facet normal -7.027572e-01  3.289377e-01  6.308188e-01
    outer loop
      vertex  -2.539152e+01 -5.592203e+01  2.241079e+01
      vertex  -1.293620e+01 -6.326648e+01  4.011624e+01
      vertex  -9.118911e+00 -3.732128e+01  3.083983e+01
    endloop
  endfacet
  facet normal -5.512471e-01 -3.578542e-01 -7.537022e-01
    outer loop
      vertex  -1.011444e+01 -1.046223e+02  6.024860e+01
      vertex  -1.631974e+01 -6.570631e+01  4.630994e+01
      vertex   2.626210e+00 -1.000039e+02  4.873745e+01
    endloop
  endfacet
  facet normal -3.500046e-01 -3.648348e-01 -8.627818e-01
    outer loop
      vertex  -2.536045e+01 -7.821280e+01  5.526596e+01
      vertex  -1.631974e+01 -6.570631e+01  4.630994e+01
      vertex  -1.011444e+01 -1.046223e+02  6.024860e+01
    endloop
  endfacet
  facet normal -6.480449e-01 -6.640793e-01  3.728759e-01
    outer loop
      vertex  -1.891922e+01 -7.692245e+01  5.397136e+00
      vertex  -1.175165e+00 -8.407481e+01  2.349756e+01
      vertex  -1.293620e+01 -6.326648e+01  4.011624e+01
    endloop
  endfacet
  facet normal -7.862582e-01 -5.167649e-01  3.387509e-01
    outer loop
      vertex  -1.293620e+01 -6.326648e+01  4.011624e+01
      vertex  -2.539152e+01 -5.592203e+01  2.241079e+01
      vertex  -1.891922e+01 -7.692245e+01  5.397136e+00
    endloop
  endfacet
  facet normal  9.483175e-01  3.070504e-01  8.008733e-02
    outer loop
      vertex  -2.923437e+00 -5.793452e+01 -7.530097e+01
      vertex  -7.775867e+00 -4.300363e+01 -7.508736e+01
      vertex  -1.147737e+01 -4.198711e+01 -3.515498e+01
    endloop
  endfacet
  facet normal -2.372001e-01  9.395957e-01 -2.467713e-01
    outer loop
      vertex  -2.193555e+01 -3.396572e+01 -2.706451e+01
      vertex  -7.775867e+00 -4.300363e+01 -7.508736e+01
      vertex  -2.044377e+01 -4.645305e+01 -7.604465e+01
    endloop
  endfacet
  facet normal -7.826858e-01  5.970026e-01 -1.760421e-01
    outer loop
      vertex  -2.682092e+01 -4.365883e+01 -3.821582e+01
      vertex  -2.193555e+01 -3.396572e+01 -2.706451e+01
      vertex  -2.044377e+01 -4.645305e+01 -7.604465e+01
    endloop
  endfacet
  facet normal -1.034404e-01 -9.834783e-01  1.485613e-01
    outer loop
      vertex  -1.586003e+01 -5.556731e+01 -6.863750e+01
      vertex  -2.923437e+00 -5.793452e+01 -7.530097e+01
      vertex  -2.142892e+01 -5.060404e+01 -3.965807e+01
    endloop
  endfacet
  facet normal  1.854256e-01 -7.554869e-01  6.283765e-01
    outer loop
      vertex  -1.586003e+01 -5.556731e+01 -6.863750e+01
      vertex  -1.872676e+01 -6.678691e+01 -8.128070e+01
      vertex  -2.923437e+00 -5.793452e+01 -7.530097e+01
    endloop
  endfacet
  facet normal -9.177880e-01 -1.699115e-01  3.588804e-01
    outer loop
      vertex  -1.872676e+01 -6.678691e+01 -8.128070e+01
      vertex  -1.586003e+01 -5.556731e+01 -6.863750e+01
      vertex  -2.044377e+01 -4.645305e+01 -7.604465e+01
    endloop
  endfacet
  facet normal -9.886569e-01 -4.672714e-02 -1.427378e-01
    outer loop
      vertex  -1.834094e+01 -5.176564e+01 -8.887048e+01
      vertex  -1.872676e+01 -6.678691e+01 -8.128070e+01
      vertex  -2.044377e+01 -4.645305e+01 -7.604465e+01
    endloop
  endfacet
  facet normal -3.849074e-01  1.475686e-01 -9.110817e-01
    outer loop
      vertex  -2.193555e+01 -3.396572e+01 -2.706451e+01
      vertex  -1.181599e+01  8.789237e+00 -2.441470e+01
      vertex   3.562130e+00 -2.959653e+01 -3.712891e+01
    endloop
  endfacet
  facet normal -9.027866e-01  2.359639e-01 -3.595793e-01
    outer loop
      vertex  -2.193555e+01 -3.396572e+01 -2.706451e+01
      vertex  -2.852515e+01 -2.212433e+01 -2.749585e+00
      vertex  -1.181599e+01  8.789237e+00 -2.441470e+01
    endloop
  endfacet
  facet normal -9.450962e-01  1.076452e-01 -3.085543e-01
    outer loop
      vertex  -2.193555e+01 -3.396572e+01 -2.706451e+01
      vertex  -2.869395e+01 -4.884437e+01 -1.155436e+01
      vertex  -2.852515e+01 -2.212433e+01 -2.749585e+00
    endloop
  endfacet
  facet normal -8.411027e-01 -1.815300e-01  5.095028e-01
    outer loop
      vertex  -2.852515e+01 -2.212433e+01 -2.749585e+00
      vertex  -1.163023e+01 -2.157467e+01  2.533690e+01
      vertex  -2.867520e+01  3.450372e+01  1.717863e+01
    endloop
  endfacet
  facet normal -3.951559e-01  3.439352e-01 -8.517983e-01
    outer loop
      vertex   3.562130e+00 -2.959653e+01 -3.712891e+01
      vertex  -1.147737e+01 -4.198711e+01 -3.515498e+01
      vertex  -2.193555e+01 -3.396572e+01 -2.706451e+01
    endloop
  endfacet
  facet normal  6.266223e-01  7.783829e-01  3.826975e-02
    outer loop
      vertex  -7.775867e+00 -4.300363e+01 -7.508736e+01
      vertex  -2.193555e+01 -3.396572e+01 -2.706451e+01
      vertex  -1.147737e+01 -4.198711e+01 -3.515498e+01
    endloop
  endfacet
  facet normal -7.579432e-01  5.605509e-01  3.336238e-01
    outer loop
      vertex  -3.674795e+01  4.546709e+01 -1.958196e+01
      vertex  -2.867520e+01  3.450372e+01  1.717863e+01
      vertex  -7.021281e+00  6.396474e+01  1.687301e+01
    endloop
  endfacet
  facet normal  9.760779e-01 -1.227929e-01 -1.794266e-01
    outer loop
      vertex  -1.836657e+01  4.255339e+01 -7.883044e+01
      vertex  -1.225918e+01  6.408813e+01 -6.034393e+01
      vertex  -1.457436e+01  4.911530e+01 -6.269159e+01
    endloop
  endfacet
  facet normal  8.645602e-01  1.629059e-01 -4.753918e-01
    outer loop
      vertex  -1.225918e+01  6.408813e+01 -6.034393e+01
      vertex  -1.836657e+01  4.255339e+01 -7.883044e+01
      vertex  -2.263747e+01  4.653630e+01 -8.523277e+01
    endloop
  endfacet
  facet normal  9.097898e-01 -3.743430e-01  1.793040e-01
    outer loop
      vertex  -2.663032e+01  2.371424e+01 -7.623166e+01
      vertex  -2.206006e+01  2.942129e+01 -8.750627e+01
      vertex  -1.836657e+01  4.255339e+01 -7.883044e+01
    endloop
  endfacet
  facet normal  8.546947e-01  9.659057e-02 -5.100658e-01
    outer loop
      vertex  -1.836657e+01  4.255339e+01 -7.883044e+01
      vertex  -2.206006e+01  2.942129e+01 -8.750627e+01
      vertex  -2.263747e+01  4.653630e+01 -8.523277e+01
    endloop
  endfacet
  facet normal -9.654808e-02  8.319260e-01 -5.464226e-01
    outer loop
      vertex  -1.225918e+01  6.408813e+01 -6.034393e+01
      vertex  -2.263747e+01  4.653630e+01 -8.523277e+01
      vertex  -2.425814e+01  6.339202e+01 -5.928364e+01
    endloop
  endfacet
  facet normal -8.031712e-01  4.754377e-01 -3.589920e-01
    outer loop
      vertex  -2.263747e+01  4.653630e+01 -8.523277e+01
      vertex  -2.863590e+01  4.352672e+01 -7.579829e+01
      vertex  -2.425814e+01  6.339202e+01 -5.928364e+01
    endloop
  endfacet
  facet normal -8.618817e-01  4.257061e-01 -2.755617e-01
    outer loop
      vertex  -2.672186e+01 -6.658507e+01  7.748734e+01
      vertex  -1.631974e+01 -6.570631e+01  4.630994e+01
      vertex  -2.536045e+01 -7.821280e+01  5.526596e+01
    endloop
  endfacet
  facet normal -3.120920e-01 -9.208660e-01  2.336757e-01
    outer loop
      vertex  -2.072376e+01 -6.068102e+01  1.087649e+02
      vertex  -2.672186e+01 -6.658507e+01  7.748734e+01
      vertex  -1.017518e+01 -6.770219e+01  9.518436e+01
    endloop
  endfacet
  facet normal -9.080620e-01  4.073917e-01  9.723864e-02
    outer loop
      vertex  -2.072376e+01 -6.068102e+01  1.087649e+02
      vertex  -1.873420e+01 -5.046924e+01  8.456102e+01
      vertex  -2.672186e+01 -6.658507e+01  7.748734e+01
    endloop
  endfacet
  facet normal -6.896182e-01 -7.117226e-01 -1.337084e-01
    outer loop
      vertex  -2.142892e+01 -5.060404e+01 -3.965807e+01
      vertex  -1.779925e+01 -5.698866e+01 -2.439356e+01
      vertex  -2.869395e+01 -4.884437e+01 -1.155436e+01
    endloop
  endfacet
  facet normal -7.952195e-01 -5.822600e-01 -1.691132e-01
    outer loop
      vertex  -2.142892e+01 -5.060404e+01 -3.965807e+01
      vertex  -2.869395e+01 -4.884437e+01 -1.155436e+01
      vertex  -2.682092e+01 -4.365883e+01 -3.821582e+01
    endloop
  endfacet
  facet normal -9.020738e-01  4.310959e-01  2.047343e-02
    outer loop
      vertex  -2.869395e+01 -4.884437e+01 -1.155436e+01
      vertex  -2.193555e+01 -3.396572e+01 -2.706451e+01
      vertex  -2.682092e+01 -4.365883e+01 -3.821582e+01
    endloop
  endfacet
  facet normal -8.564877e-01  4.315709e-02  5.143603e-01
    outer loop
      vertex  -9.118911e+00 -3.732128e+01  3.083983e+01
      vertex  -1.163023e+01 -2.157467e+01  2.533690e+01
      vertex  -2.852515e+01 -2.212433e+01 -2.749585e+00
    endloop
  endfacet
  facet normal -7.232860e-01  3.679539e-01  5.843519e-01
    outer loop
      vertex  -2.539152e+01 -5.592203e+01  2.241079e+01
      vertex  -9.118911e+00 -3.732128e+01  3.083983e+01
      vertex  -2.852515e+01 -2.212433e+01 -2.749585e+00
    endloop
  endfacet
  facet normal -9.635811e-02 -9.554133e-01 -2.791067e-01
    outer loop
      vertex  -1.181599e+01  8.789237e+00 -2.441470e+01
      vertex  -3.112178e+01  1.512966e+01 -3.945358e+01
      vertex  -1.880711e+01  1.628244e+01 -4.765116e+01
    endloop
  endfacet
  facet normal -4.903784e-01 -3.706156e-01 -7.887796e-01
    outer loop
      vertex  -1.880711e+01  1.628244e+01 -4.765116e+01
      vertex  -3.112178e+01  1.512966e+01 -3.945358e+01
      vertex  -2.359848e+01  4.807403e+01 -5.960998e+01
    endloop
  endfacet
  facet normal -9.289907e-01 -1.412793e-02 -3.698333e-01
    outer loop
      vertex  -2.925931e+01  4.181336e+01 -4.515128e+01
      vertex  -2.359848e+01  4.807403e+01 -5.960998e+01
      vertex  -3.112178e+01  1.512966e+01 -3.945358e+01
    endloop
  endfacet
  facet normal -9.594045e-01  6.759864e-03 -2.819524e-01
    outer loop
      vertex  -3.112178e+01  1.512966e+01 -3.945358e+01
      vertex  -3.674795e+01  4.546709e+01 -1.958196e+01
      vertex  -2.925931e+01  4.181336e+01 -4.515128e+01
    endloop
  endfacet
  facet normal  2.167657e-01 -9.210457e-01  3.235544e-01
    outer loop
      vertex  -1.836657e+01  4.255339e+01 -7.883044e+01
      vertex  -1.457436e+01  4.911530e+01 -6.269159e+01
      vertex  -2.359848e+01  4.807403e+01 -5.960998e+01
    endloop
  endfacet
  facet normal -1.043058e-02 -9.618363e-01  2.734266e-01
    outer loop
      vertex  -1.836657e+01  4.255339e+01 -7.883044e+01
      vertex  -2.359848e+01  4.807403e+01 -5.960998e+01
      vertex  -2.863590e+01  4.352672e+01 -7.579829e+01
    endloop
  endfacet
  facet normal -9.498999e-01 -4.748853e-02  3.089259e-01
    outer loop
      vertex  -2.863590e+01  4.352672e+01 -7.579829e+01
      vertex  -2.359848e+01  4.807403e+01 -5.960998e+01
      vertex  -2.425814e+01  6.339202e+01 -5.928364e+01
    endloop
  endfacet
  facet normal  4.838060e-01 -7.730969e-01  4.101864e-01
    outer loop
      vertex  -2.142892e+01 -5.060404e+01 -3.965807e+01
      vertex  -2.923437e+00 -5.793452e+01 -7.530097e+01
      vertex  -1.147737e+01 -4.198711e+01 -3.515498e+01
    endloop
  endfacet
  facet normal  6.958525e-01 -5.885211e-01 -4.116215e-01
    outer loop
      vertex  -1.779925e+01 -5.698866e+01 -2.439356e+01
      vertex  -2.142892e+01 -5.060404e+01 -3.965807e+01
      vertex  -1.147737e+01 -4.198711e+01 -3.515498e+01
    endloop
  endfacet
  facet normal -8.627748e-01 -4.991699e-01 -8.030477e-02
    outer loop
      vertex  -1.586003e+01 -5.556731e+01 -6.863750e+01
      vertex  -2.142892e+01 -5.060404e+01 -3.965807e+01
      vertex  -2.044377e+01 -4.645305e+01 -7.604465e+01
    endloop
  endfacet
  facet normal -7.956517e-01 -5.990489e-01 -8.988163e-02
    outer loop
      vertex  -2.142892e+01 -5.060404e+01 -3.965807e+01
      vertex  -2.682092e+01 -4.365883e+01 -3.821582e+01
      vertex  -2.044377e+01 -4.645305e+01 -7.604465e+01
    endloop
  endfacet
  facet normal  5.416387e-01 -4.068075e-01 -7.356190e-01
    outer loop
      vertex  -7.729831e+00  2.784644e+01 -4.588998e+01
      vertex  -1.880711e+01  1.628244e+01 -4.765116e+01
      vertex  -1.457436e+01  4.911530e+01 -6.269159e+01
    endloop
  endfacet
  facet normal -2.607537e-01 -3.740782e-01 -8.899848e-01
    outer loop
      vertex  -1.880711e+01  1.628244e+01 -4.765116e+01
      vertex  -2.359848e+01  4.807403e+01 -5.960998e+01
      vertex  -1.457436e+01  4.911530e+01 -6.269159e+01
    endloop
  endfacet
  facet normal -7.705096e-01  4.644807e-01  4.365462e-01
    outer loop
      vertex  -2.038354e+01  4.983809e+01 -3.802366e+01
      vertex  -2.425814e+01  6.339202e+01 -5.928364e+01
      vertex  -2.925931e+01  4.181336e+01 -4.515128e+01
    endloop
  endfacet
  facet normal -9.259430e-01 -3.185802e-02 -3.763172e-01
    outer loop
      vertex  -2.425814e+01  6.339202e+01 -5.928364e+01
      vertex  -2.359848e+01  4.807403e+01 -5.960998e+01
      vertex  -2.925931e+01  4.181336e+01 -4.515128e+01
    endloop
  endfacet
  facet normal -4.649278e-01  8.604174e-01 -2.086242e-01
    outer loop
      vertex  -2.038354e+01  4.983809e+01 -3.802366e+01
      vertex  -3.674795e+01  4.546709e+01 -1.958196e+01
      vertex  -5.100496e+00  6.667405e+01 -2.646920e+00
    endloop
  endfacet
  facet normal -5.188023e-01  8.118173e-01 -2.679493e-01
    outer loop
      vertex  -2.925931e+01  4.181336e+01 -4.515128e+01
      vertex  -3.674795e+01  4.546709e+01 -1.958196e+01
      vertex  -2.038354e+01  4.983809e+01 -3.802366e+01
    endloop
  endfacet
  facet normal -5.764472e-01  8.151841e-01  5.642188e-02
    outer loop
      vertex  -7.021281e+00  6.396474e+01  1.687301e+01
      vertex  -5.100496e+00  6.667405e+01 -2.646920e+00
      vertex  -3.674795e+01  4.546709e+01 -1.958196e+01
    endloop
  endfacet
  facet normal -9.489830e-01 -3.141867e-01  2.679949e-02
    outer loop
      vertex  -1.891922e+01 -7.692245e+01  5.397136e+00
      vertex  -2.539152e+01 -5.592203e+01  2.241079e+01
      vertex  -2.869395e+01 -4.884437e+01 -1.155436e+01
    endloop
  endfacet
  facet normal -9.954892e-01 -2.396056e-02  9.179863e-02
    outer loop
      vertex  -2.869395e+01 -4.884437e+01 -1.155436e+01
      vertex  -2.539152e+01 -5.592203e+01  2.241079e+01
      vertex  -2.852515e+01 -2.212433e+01 -2.749585e+00
    endloop
  endfacet
  facet normal  2.838448e-01  7.760125e-03  9.588389e-01
    outer loop
      vertex  -2.663032e+01  2.371424e+01 -7.623166e+01
      vertex  -1.836657e+01  4.255339e+01 -7.883044e+01
      vertex  -2.863590e+01  4.352672e+01 -7.579829e+01
    endloop
  endfacet
  facet normal -5.429598e-01 -7.326119e-02  8.365569e-01
    outer loop
      vertex  -2.663032e+01  2.371424e+01 -7.623166e+01
      vertex  -2.863590e+01  4.352672e+01 -7.579829e+01
      vertex  -3.897530e+01  2.649291e+01 -8.400072e+01
    endloop
  endfacet
  facet normal -7.509074e-01  5.943900e-01 -2.878171e-01
    outer loop
      vertex  -2.863590e+01  4.352672e+01 -7.579829e+01
      vertex  -2.263747e+01  4.653630e+01 -8.523277e+01
      vertex  -3.897530e+01  2.649291e+01 -8.400072e+01
    endloop
  endfacet
  facet normal -9.608338e-01 -2.393917e-01  1.396067e-01
    outer loop
      vertex  -2.867520e+01  3.450372e+01  1.717863e+01
      vertex  -3.674795e+01  4.546709e+01 -1.958196e+01
      vertex  -2.847664e+01  1.627033e+01 -1.272059e+01
    endloop
  endfacet
  facet normal  6.709318e-02 -9.008939e-01 -4.288224e-01
    outer loop
      vertex  -2.663032e+01  2.371424e+01 -7.623166e+01
      vertex  -3.897530e+01  2.649291e+01 -8.400072e+01
      vertex  -2.206006e+01  2.942129e+01 -8.750627e+01
    endloop
  endfacet
  facet normal -2.214901e-01  1.210631e-01 -9.676186e-01
    outer loop
      vertex  -3.897530e+01  2.649291e+01 -8.400072e+01
      vertex  -2.263747e+01  4.653630e+01 -8.523277e+01
      vertex  -2.206006e+01  2.942129e+01 -8.750627e+01
    endloop
  endfacet
  facet normal  5.877408e-01 -7.015057e-01 -4.030516e-01
    outer loop
      vertex   1.789975e-02  2.530927e+01 -3.591110e+01
      vertex  -1.181599e+01  8.789237e+00 -2.441470e+01
      vertex  -1.880711e+01  1.628244e+01 -4.765116e+01
    endloop
  endfacet
  facet normal -7.290032e-01 -1.236352e-01  6.732523e-01
    outer loop
      vertex  -1.163023e+01 -2.157467e+01  2.533690e+01
      vertex  -9.277390e+00  1.953720e+01  3.543431e+01
      vertex  -2.867520e+01  3.450372e+01  1.717863e+01
    endloop
  endfacet
  facet normal -9.323087e-02 -9.538304e-01 -2.855095e-01
    outer loop
      vertex  -1.175165e+00 -8.407481e+01  2.349756e+01
      vertex  -1.891922e+01 -7.692245e+01  5.397136e+00
      vertex   4.223168e+00 -7.220683e+01 -1.791378e+01
    endloop
  endfacet
  facet normal -6.957647e-01 -3.475227e-01  6.286011e-01
    outer loop
      vertex  -2.672186e+01 -6.658507e+01  7.748734e+01
      vertex  -1.599250e+00 -8.804117e+01  9.343217e+01
      vertex  -1.017518e+01 -6.770219e+01  9.518436e+01
    endloop
  endfacet
  facet normal -7.278539e-01 -5.202497e-01  4.467314e-01
    outer loop
      vertex  -2.672186e+01 -6.658507e+01  7.748734e+01
      vertex  -1.011444e+01 -1.046223e+02  6.024860e+01
      vertex  -1.599250e+00 -8.804117e+01  9.343217e+01
    endloop
  endfacet
  facet normal -8.653969e-01 -4.638018e-01  1.896736e-01
    outer loop
      vertex  -1.011444e+01 -1.046223e+02  6.024860e+01
      vertex  -2.672186e+01 -6.658507e+01  7.748734e+01
      vertex  -2.536045e+01 -7.821280e+01  5.526596e+01
    endloop
  endfacet
  facet normal -5.733885e-01 -2.177576e-02  8.189942e-01
    outer loop
      vertex  -6.608681e+00  2.704631e+01  1.326684e+02
      vertex  -2.374011e+00  5.323646e+01  1.363295e+02
      vertex  -1.223157e+01  4.119476e+01  1.291080e+02
    endloop
  endfacet
  facet normal -2.403972e-01  9.519082e-01  1.899468e-01
    outer loop
      vertex   1.869645e+00 -4.364837e+01  7.645486e+01
      vertex  -9.118911e+00 -3.732128e+01  3.083983e+01
      vertex  -1.873420e+01 -5.046924e+01  8.456102e+01
    endloop
  endfacet
  facet normal -3.638059e-01 -9.284008e-01  7.561151e-02
    outer loop
      vertex  -3.112178e+01  1.512966e+01 -3.945358e+01
      vertex  -1.181599e+01  8.789237e+00 -2.441470e+01
      vertex  -2.847664e+01  1.627033e+01 -1.272059e+01
    endloop
  endfacet
  facet normal -6.208546e-01 -1.963124e-01 -7.589473e-01
    outer loop
      vertex  -2.847664e+01  1.627033e+01 -1.272059e+01
      vertex  -1.181599e+01  8.789237e+00 -2.441470e+01
      vertex  -2.852515e+01 -2.212433e+01 -2.749585e+00
    endloop
  endfacet
  facet normal -9.999794e-01 -3.980567e-04 -6.398309e-03
    outer loop
      vertex  -2.847664e+01  1.627033e+01 -1.272059e+01
      vertex  -2.852515e+01 -2.212433e+01 -2.749585e+00
      vertex  -2.867520e+01  3.450372e+01  1.717863e+01
    endloop
  endfacet
  facet normal  2.116602e-01 -3.990405e-01 -8.921696e-01
    outer loop
      vertex   3.562130e+00 -2.959653e+01 -3.712891e+01
      vertex   4.223168e+00 -7.220683e+01 -1.791378e+01
      vertex  -1.147737e+01 -4.198711e+01 -3.515498e+01
    endloop
  endfacet
  facet normal -1.296307e-01 -5.413224e-01 -8.307623e-01
    outer loop
      vertex   4.223168e+00 -7.220683e+01 -1.791378e+01
      vertex  -1.779925e+01 -5.698866e+01 -2.439356e+01
      vertex  -1.147737e+01 -4.198711e+01 -3.515498e+01
    endloop
  endfacet
  facet normal -9.629769e-01 -2.479289e-01  1.058623e-01
    outer loop
      vertex  -3.112178e+01  1.512966e+01 -3.945358e+01
      vertex  -2.847664e+01  1.627033e+01 -1.272059e+01
      vertex  -3.674795e+01  4.546709e+01 -1.958196e+01
    endloop
  endfacet
endsolid vcg
