solid csg.js
facet normal -0.16404346423244034 -0.15951779186293077 -0.9734699871705315
outer loop
vertex 4.519702911376953 -27.076366424560547 16.792381286621094
vertex 1.0504841804504395 -40.00154495239258 19.494979858398438
vertex -6.527896881103516 -26.28252601623535 18.523975372314453
endloop
endfacet
facet normal -0.6263201545985769 -0.04805088159106052 -0.7780836566346426
outer loop
vertex 2.262441635131836 13.185613632202148 -16.36892318725586
vertex 7.611626625061035 8.07037353515625 -20.358867645263672
vertex 0.007159898988902569 10.123708724975586 -14.364439964294434
endloop
endfacet
facet normal 0.5580828097721094 0.7316284358332084 0.39148870905445093
outer loop
vertex 2.1756691932678223 13.558947563171387 37.99099349975586
vertex 3.2513558864593506 23.195466995239258 18.44847869873047
vertex -0.9805828332901001 15.916034698486328 38.08534622192383
endloop
endfacet
facet normal -0.13316697104679273 0.6495520036668265 0.7485644610550474
outer loop
vertex 0.7478579878807068 -17.459346771240234 30.581945419311523
vertex -4.070070743560791 -27.08087730407715 38.07374572753906
vertex 3.322204828262329 -26.329069137573242 38.7364387512207
endloop
endfacet
facet normal 0.3282617752562221 0.8919930451175218 -0.3107935236899321
outer loop
vertex 0.8686062693595886 27.511611938476562 16.159893035888672
vertex 4.091999530792236 23.70868682861328 8.649871826171875
vertex -2.8085124492645264 25.58589744567871 6.749203205108643
endloop
endfacet
facet normal 0.2192691493519107 0.963230150742695 0.15526981948432353
outer loop
vertex -2.8085124492645264 25.58589744567871 6.749203205108643
vertex 4.091999530792236 23.70868682861328 8.649871826171875
vertex -2.040198564529419 26.669620513916016 -1.0587679147720337
endloop
endfacet
facet normal 0.5510485086805738 0.7367397078630135 0.3918675081438079
outer loop
vertex -0.9805828332901001 15.916034698486328 38.08534622192383
vertex 3.2513558864593506 23.195466995239258 18.44847869873047
vertex -2.2259678840637207 22.6343936920166 27.205612182617188
endloop
endfacet
facet normal -0.6379467471650229 0.41261891267279793 0.6502073366906009
outer loop
vertex 0.7478579878807068 -17.459346771240234 30.581945419311523
vertex 3.322204828262329 -26.329069137573242 38.7364387512207
vertex 8.353117942810059 -22.127456665039062 41.006160736083984
endloop
endfacet
facet normal 0.9268356493402335 -0.33837912962954286 -0.1627121499557438
outer loop
vertex 0.5646370649337769 9.479076385498047 37.298858642578125
vertex 2.1756691932678223 13.558947563171387 37.99099349975586
vertex 2.0760788917541504 8.24199104309082 48.48094940185547
endloop
endfacet
facet normal -0.04882837566115819 -0.7582076091913365 0.6501822906652028
outer loop
vertex 1.3049010038375854 20.513107299804688 15.174277305603027
vertex 3.2513558864593506 23.195466995239258 18.44847869873047
vertex -2.7468111515045166 21.548250198364258 16.077123641967773
endloop
endfacet
facet normal 0.40727826750939883 -0.7651319266963026 -0.4986958467488441
outer loop
vertex 3.2513558864593506 23.195466995239258 18.44847869873047
vertex 0.5646370649337769 9.479076385498047 37.298858642578125
vertex -2.7468111515045166 21.548250198364258 16.077123641967773
endloop
endfacet
facet normal 0.9301834110566679 -0.3469656598639123 -0.11989016919740261
outer loop
vertex 3.2513558864593506 23.195466995239258 18.44847869873047
vertex 2.1756691932678223 13.558947563171387 37.99099349975586
vertex 0.5646370649337769 9.479076385498047 37.298858642578125
endloop
endfacet
facet normal -0.2575591668152147 0.9439141362052227 0.20661408243728324
outer loop
vertex 2.593278646469116 14.811868667602539 47.58478927612305
vertex -0.9805828332901001 15.916034698486328 38.08534622192383
vertex -2.354224681854248 14.258932113647461 43.943458557128906
endloop
endfacet
facet normal 0.5908100321640715 0.796315157573134 -0.12971382236894988
outer loop
vertex 2.593278646469116 14.811868667602539 47.58478927612305
vertex 2.1756691932678223 13.558947563171387 37.99099349975586
vertex -0.9805828332901001 15.916034698486328 38.08534622192383
endloop
endfacet
facet normal 0.9960308669469966 -0.08284855926747763 -0.032536568905118746
outer loop
vertex 2.593278646469116 14.811868667602539 47.58478927612305
vertex 2.0760788917541504 8.24199104309082 48.48094940185547
vertex 2.1756691932678223 13.558947563171387 37.99099349975586
endloop
endfacet
facet normal 0.6586949827475435 0.6025614525897605 0.4506002835730701
outer loop
vertex -2.2259678840637207 22.6343936920166 27.205612182617188
vertex 3.2513558864593506 23.195466995239258 18.44847869873047
vertex 0.8686062693595886 27.511611938476562 16.159893035888672
endloop
endfacet
facet normal 0.0702763875654316 0.15652739134948496 0.9851702416882467
outer loop
vertex -3.71095609664917 7.814879894256592 14.173723220825195
vertex 4.858136177062988 7.577980041503906 13.600092887878418
vertex -1.8819656372070312 18.580955505371094 12.332700729370117
endloop
endfacet
facet normal 0.5974194378058678 -0.790957761620001 -0.13219619761853493
outer loop
vertex 1.3049010038375854 20.513107299804688 15.174277305603027
vertex -1.8819656372070312 18.580955505371094 12.332700729370117
vertex 4.091999530792236 23.70868682861328 8.649871826171875
endloop
endfacet
facet normal 0.3072069997377228 0.29249613197432556 0.9055770934007799
outer loop
vertex 4.858136177062988 7.577980041503906 13.600092887878418
vertex 4.091999530792236 23.70868682861328 8.649871826171875
vertex -1.8819656372070312 18.580955505371094 12.332700729370117
endloop
endfacet
facet normal 0.7878276133866374 -0.6148785412264897 0.0353840518411744
outer loop
vertex 1.3049010038375854 20.513107299804688 15.174277305603027
vertex 4.091999530792236 23.70868682861328 8.649871826171875
vertex 3.2513558864593506 23.195466995239258 18.44847869873047
endloop
endfacet
facet normal 0.5402185283714581 -0.36240695857454797 0.759490051271853
outer loop
vertex -2.643472194671631 10.818522453308105 53.0673713684082
vertex 2.0760788917541504 8.24199104309082 48.48094940185547
vertex 3.184751510620117 19.672161102294922 53.14651107788086
endloop
endfacet
facet normal 0.995991909835102 -0.08296578684969771 -0.03341846428901987
outer loop
vertex 2.593278646469116 14.811868667602539 47.58478927612305
vertex 3.184751510620117 19.672161102294922 53.14651107788086
vertex 2.0760788917541504 8.24199104309082 48.48094940185547
endloop
endfacet
facet normal 0.4211344736035453 0.8776057525159611 0.22902816048154065
outer loop
vertex -0.9496042728424072 21.29458236694336 54.53181457519531
vertex 3.184751510620117 19.672161102294922 53.14651107788086
vertex -1.7713931798934937 23.516244888305664 47.52979278564453
endloop
endfacet
facet normal 0.8054844653213565 0.4011413531976535 -0.4362114061790726
outer loop
vertex -1.7713931798934937 23.516244888305664 47.52979278564453
vertex 3.184751510620117 19.672161102294922 53.14651107788086
vertex 2.593278646469116 14.811868667602539 47.58478927612305
endloop
endfacet
facet normal -0.12748405627627074 -0.8636941896169917 -0.487627072891976
outer loop
vertex 1.8269978761672974 -45.0024528503418 28.14967155456543
vertex -4.045777797698975 -41.84891891479492 24.099437713623047
vertex 1.0504841804504395 -40.00154495239258 19.494979858398438
endloop
endfacet
facet normal 0.5812151215773179 -0.7074441244736225 -0.40213404879170983
outer loop
vertex 1.6892672777175903 -28.882732391357422 -7.165512561798096
vertex 7.120108127593994 -22.433372497558594 -10.6620454788208
vertex 8.914183616638184 -28.596426010131836 2.7731754779815674
endloop
endfacet
facet normal -0.8533094351197318 -0.3798580535494321 0.35717064141567006
outer loop
vertex 5.01356315612793 -23.044252395629883 -27.0206356048584
vertex 2.8645706176757812 -19.225112915039062 -28.093021392822266
vertex 2.3724822998046875 -23.56821060180664 -33.887630462646484
endloop
endfacet
facet normal -0.7082271449184343 0.5924710776194707 -0.3839170918116385
outer loop
vertex 2.3724822998046875 -23.56821060180664 -33.887630462646484
vertex 2.8645706176757812 -19.225112915039062 -28.093021392822266
vertex 6.405303001403809 -19.844568252563477 -35.580711364746094
endloop
endfacet
facet normal -0.42301613991970616 0.8870982916166058 -0.18469966534439342
outer loop
vertex 9.246973991394043 -14.073904991149902 -17.9697322845459
vertex 2.8645706176757812 -19.225112915039062 -28.093021392822266
vertex 6.3958563804626465 -14.556714057922363 -13.758735656738281
endloop
endfacet
facet normal -0.3497165501000615 0.9055172085773857 -0.24028507976220806
outer loop
vertex 2.8645706176757812 -19.225112915039062 -28.093021392822266
vertex 9.246973991394043 -14.073904991149902 -17.9697322845459
vertex 6.405303001403809 -19.844568252563477 -35.580711364746094
endloop
endfacet
facet normal 0.5202713877491472 0.7831540413795547 -0.3405692742460003
outer loop
vertex 9.246973991394043 -14.073904991149902 -17.9697322845459
vertex 9.915755271911621 -20.235389709472656 -31.11667251586914
vertex 6.405303001403809 -19.844568252563477 -35.580711364746094
endloop
endfacet
facet normal 0.6382484165390905 -0.4366646479897405 0.6340054763023263
outer loop
vertex 9.402192115783691 -30.081968307495117 30.80010986328125
vertex -0.6396998763084412 -35.216468811035156 37.37287139892578
vertex 1.8269978761672974 -45.0024528503418 28.14967155456543
endloop
endfacet
facet normal 0.30802731279710377 0.7098985889900463 0.6333744294814375
outer loop
vertex 4.588052272796631 -15.909608840942383 13.80030345916748
vertex 8.733634948730469 -11.257761001586914 6.570310115814209
vertex -4.652090549468994 -8.62986946105957 10.134761810302734
endloop
endfacet
facet normal 0.5866984141598405 0.7830170453719678 0.20656543147216527
outer loop
vertex 4.588052272796631 -15.909608840942383 13.80030345916748
vertex 0.7478579878807068 -17.459346771240234 30.581945419311523
vertex 9.187427520751953 -22.840557098388672 27.00969886779785
endloop
endfacet
facet normal -0.6107510490259962 -0.736378358416627 0.2910842994207675
outer loop
vertex 5.01356315612793 -23.044252395629883 -27.0206356048584
vertex 2.3724822998046875 -23.56821060180664 -33.887630462646484
vertex 7.380248546600342 -27.269147872924805 -32.742916107177734
endloop
endfacet
facet normal -0.05551114430653633 -0.36282748995741265 -0.9302014434459788
outer loop
vertex 2.3724822998046875 -23.56821060180664 -33.887630462646484
vertex 6.405303001403809 -19.844568252563477 -35.580711364746094
vertex 7.380248546600342 -27.269147872924805 -32.742916107177734
endloop
endfacet
facet normal 0.7730334770909608 -0.13537027474723182 -0.619753283179297
outer loop
vertex 6.405303001403809 -19.844568252563477 -35.580711364746094
vertex 9.915755271911621 -20.235389709472656 -31.11667251586914
vertex 7.380248546600342 -27.269147872924805 -32.742916107177734
endloop
endfacet
facet normal -0.9342201585782873 0.3190826206658971 0.1594332979491515
outer loop
vertex 2.262441635131836 13.185613632202148 -16.36892318725586
vertex 5.053946018218994 19.891658782958984 -13.432916641235352
vertex 5.177112102508545 25.402305603027344 -23.73996925354004
endloop
endfacet
facet normal -0.8663190103701295 -0.0897770663624238 -0.49135674476563
outer loop
vertex 6.499363422393799 19.964069366455078 -25.077617645263672
vertex 2.262441635131836 13.185613632202148 -16.36892318725586
vertex 5.177112102508545 25.402305603027344 -23.73996925354004
endloop
endfacet
facet normal -0.9595352400979161 -0.1800466822730565 -0.21650707889743398
outer loop
vertex 8.90137767791748 18.11431884765625 -34.18482971191406
vertex 6.499363422393799 19.964069366455078 -25.077617645263672
vertex 5.177112102508545 25.402305603027344 -23.73996925354004
endloop
endfacet
facet normal 0.22670169480911437 0.857781861304525 0.4613205176313098
outer loop
vertex 8.94880485534668 19.79579734802246 -15.168679237365723
vertex 5.177112102508545 25.402305603027344 -23.73996925354004
vertex 5.053946018218994 19.891658782958984 -13.432916641235352
endloop
endfacet
facet normal -0.2847402009947537 0.7400160214787312 0.6093433399096579
outer loop
vertex 8.040226936340332 26.456241607666016 -23.68201446533203
vertex 5.177112102508545 25.402305603027344 -23.73996925354004
vertex 8.94880485534668 19.79579734802246 -15.168679237365723
endloop
endfacet
facet normal -0.26188359695687646 0.7451567243358964 -0.613317566862327
outer loop
vertex 8.90137767791748 18.11431884765625 -34.18482971191406
vertex 5.177112102508545 25.402305603027344 -23.73996925354004
vertex 8.040226936340332 26.456241607666016 -23.68201446533203
endloop
endfacet
facet normal 0.7291668049856623 0.1729490302609812 0.6621211395498466
outer loop
vertex 4.519702911376953 -27.076366424560547 16.792381286621094
vertex 10.378079414367676 -22.022884368896484 9.02079963684082
vertex 4.588052272796631 -15.909608840942383 13.80030345916748
endloop
endfacet
facet normal 0.9203522510744314 -0.1064663440989364 -0.3763198792469428
outer loop
vertex 4.519702911376953 -27.076366424560547 16.792381286621094
vertex 4.588052272796631 -15.909608840942383 13.80030345916748
vertex 9.187427520751953 -22.840557098388672 27.00969886779785
endloop
endfacet
facet normal 0.7494371244814116 -0.5419072182523279 -0.3803689830349694
outer loop
vertex 1.8269978761672974 -45.0024528503418 28.14967155456543
vertex 1.0504841804504395 -40.00154495239258 19.494979858398438
vertex 10.730498313903809 -29.23754119873047 23.23206329345703
endloop
endfacet
facet normal 0.20407360395746965 0.9031555516161486 -0.37770890081217334
outer loop
vertex 11.501893043518066 22.42417335510254 -3.8935322761535645
vertex 5.053946018218994 19.891658782958984 -13.432916641235352
vertex -2.040198564529419 26.669620513916016 -1.0587679147720337
endloop
endfacet
facet normal 0.33692064464321164 -0.915818739258372 -0.21854179471306848
outer loop
vertex 8.914183616638184 -28.596426010131836 2.7731754779815674
vertex -0.4700660705566406 -33.62992477416992 9.399024963378906
vertex 1.6892672777175903 -28.882732391357422 -7.165512561798096
endloop
endfacet
facet normal 0.5957519997848413 -0.7568498555157572 0.26880820478203366
outer loop
vertex -0.4700660705566406 -33.62992477416992 9.399024963378906
vertex 8.914183616638184 -28.596426010131836 2.7731754779815674
vertex 4.519702911376953 -27.076366424560547 16.792381286621094
endloop
endfacet
facet normal 0.8223919374808907 -0.4773401068954326 0.3095447035817022
outer loop
vertex 8.914183616638184 -28.596426010131836 2.7731754779815674
vertex 10.378079414367676 -22.022884368896484 9.02079963684082
vertex 4.519702911376953 -27.076366424560547 16.792381286621094
endloop
endfacet
facet normal 0.9324663897958094 0.3430210363642878 -0.11332696286735834
outer loop
vertex 12.194527626037598 -18.29262924194336 -6.48629093170166
vertex 9.915755271911621 -20.235389709472656 -31.11667251586914
vertex 9.246973991394043 -14.073904991149902 -17.9697322845459
endloop
endfacet
facet normal -0.8655291451735335 -0.4038335224856895 0.2962731593850044
outer loop
vertex 2.8645706176757812 -19.225112915039062 -28.093021392822266
vertex 5.01356315612793 -23.044252395629883 -27.0206356048584
vertex 8.042438507080078 -20.35222625732422 -14.502760887145996
endloop
endfacet
facet normal 0.7116893634593889 -0.39141960294572925 0.5833429046183534
outer loop
vertex 9.915755271911621 -20.235389709472656 -31.11667251586914
vertex 5.01356315612793 -23.044252395629883 -27.0206356048584
vertex 7.380248546600342 -27.269147872924805 -32.742916107177734
endloop
endfacet
facet normal 0.33599225581641795 0.24930334450233457 -0.9082714607711426
outer loop
vertex 1.4248521327972412 -11.838611602783203 -14.851566314697266
vertex 6.1467156410217285 3.2346274852752686 -8.967512130737305
vertex 6.3958563804626465 -14.556714057922363 -13.758735656738281
endloop
endfacet
facet normal 0.7611214504144435 0.17857857418829542 -0.6235413623488736
outer loop
vertex 10.470744132995605 6.46755838394165 -2.763524293899536
vertex 6.3958563804626465 -14.556714057922363 -13.758735656738281
vertex 6.1467156410217285 3.2346274852752686 -8.967512130737305
endloop
endfacet
facet normal 0.8082498899838095 0.14218370239500977 -0.5714157069195832
outer loop
vertex 6.3958563804626465 -14.556714057922363 -13.758735656738281
vertex 10.470744132995605 6.46755838394165 -2.763524293899536
vertex 12.194527626037598 -18.29262924194336 -6.48629093170166
endloop
endfacet
facet normal 0.18752004809435474 -0.30935607365738677 0.9322741288129671
outer loop
vertex 4.858136177062988 7.577980041503906 13.600092887878418
vertex -4.652090549468994 -8.62986946105957 10.134761810302734
vertex 8.733634948730469 -11.257761001586914 6.570310115814209
endloop
endfacet
facet normal 0.7463349631581692 -0.09243360250389498 0.6591207415154271
outer loop
vertex 8.733634948730469 -11.257761001586914 6.570310115814209
vertex 11.30941390991211 11.216085433959961 6.8053879737854
vertex 4.858136177062988 7.577980041503906 13.600092887878418
endloop
endfacet
facet normal 0.9440845363462631 -0.11144940146785899 0.31029569630324805
outer loop
vertex 8.733634948730469 -11.257761001586914 6.570310115814209
vertex 12.194527626037598 -18.29262924194336 -6.48629093170166
vertex 11.30941390991211 11.216085433959961 6.8053879737854
endloop
endfacet
facet normal -0.9003296701451909 -0.2966741773650254 0.3184194050949737
outer loop
vertex 2.8645706176757812 -19.225112915039062 -28.093021392822266
vertex 8.042438507080078 -20.35222625732422 -14.502760887145996
vertex 6.3958563804626465 -14.556714057922363 -13.758735656738281
endloop
endfacet
facet normal 0.004774165617241279 -0.3655022062985015 -0.930798229764962
outer loop
vertex 1.4248521327972412 -11.838611602783203 -14.851566314697266
vertex 6.3958563804626465 -14.556714057922363 -13.758735656738281
vertex 7.120108127593994 -22.433372497558594 -10.6620454788208
endloop
endfacet
facet normal 0.2510784579364331 0.9276774809328242 0.2763586425831337
outer loop
vertex 9.246973991394043 -14.073904991149902 -17.9697322845459
vertex 6.3958563804626465 -14.556714057922363 -13.758735656738281
vertex 12.194527626037598 -18.29262924194336 -6.48629093170166
endloop
endfacet
facet normal 0.629277321459569 0.2551689984720787 0.7340972925405914
outer loop
vertex 4.858136177062988 7.577980041503906 13.600092887878418
vertex 11.30941390991211 11.216085433959961 6.8053879737854
vertex 4.091999530792236 23.70868682861328 8.649871826171875
endloop
endfacet
facet normal 0.8059890079478806 0.4014187468035789 0.43502265318237776
outer loop
vertex 4.091999530792236 23.70868682861328 8.649871826171875
vertex 11.30941390991211 11.216085433959961 6.8053879737854
vertex 11.501893043518066 22.42417335510254 -3.8935322761535645
endloop
endfacet
facet normal -0.9623198198751615 -0.12415026249663684 0.24192411330302088
outer loop
vertex 10.461860656738281 8.615960121154785 -32.851932525634766
vertex 10.295453071594238 16.385761260986328 -29.526569366455078
vertex 8.90137767791748 18.11431884765625 -34.18482971191406
endloop
endfacet
facet normal 0.42691727188028544 0.7248344952351771 -0.5407000993965698
outer loop
vertex 12.452507019042969 17.833518981933594 -31.75741195678711
vertex 8.90137767791748 18.11431884765625 -34.18482971191406
vertex 8.040226936340332 26.456241607666016 -23.68201446533203
endloop
endfacet
facet normal 0.62723284747627 -0.3170958949381343 -0.7113572579654994
outer loop
vertex 4.519702911376953 -27.076366424560547 16.792381286621094
vertex 10.730498313903809 -29.23754119873047 23.23206329345703
vertex 1.0504841804504395 -40.00154495239258 19.494979858398438
endloop
endfacet
facet normal 0.7068277081042278 0.47828155653074095 -0.5211922329991655
outer loop
vertex 9.187427520751953 -22.840557098388672 27.00969886779785
vertex 10.730498313903809 -29.23754119873047 23.23206329345703
vertex 4.519702911376953 -27.076366424560547 16.792381286621094
endloop
endfacet
facet normal 0.8212729252798529 0.28351363625322457 0.4951068574164041
outer loop
vertex 9.187427520751953 -22.840557098388672 27.00969886779785
vertex 3.322204828262329 -26.329069137573242 38.7364387512207
vertex 9.402192115783691 -30.081968307495117 30.80010986328125
endloop
endfacet
facet normal 0.6185071051116992 -0.7820257729774469 0.0767114810531798
outer loop
vertex 3.322204828262329 -26.329069137573242 38.7364387512207
vertex 9.187427520751953 -22.840557098388672 27.00969886779785
vertex 8.353117942810059 -22.127456665039062 41.006160736083984
endloop
endfacet
facet normal 0.9746355833411494 0.1257929248302075 0.18509894583146344
outer loop
vertex 10.730498313903809 -29.23754119873047 23.23206329345703
vertex 9.187427520751953 -22.840557098388672 27.00969886779785
vertex 9.402192115783691 -30.081968307495117 30.80010986328125
endloop
endfacet
facet normal 0.749010564268485 -0.5586182562824239 -0.3562707093800861
outer loop
vertex 7.120108127593994 -22.433372497558594 -10.6620454788208
vertex 12.194527626037598 -18.29262924194336 -6.48629093170166
vertex 8.914183616638184 -28.596426010131836 2.7731754779815674
endloop
endfacet
facet normal 0.7604176637896526 0.2523722522531891 0.5983921982189772
outer loop
vertex 10.378079414367676 -22.022884368896484 9.02079963684082
vertex 8.733634948730469 -11.257761001586914 6.570310115814209
vertex 4.588052272796631 -15.909608840942383 13.80030345916748
endloop
endfacet
facet normal 0.9701277388234014 0.1841442934657752 0.15793368718986034
outer loop
vertex 12.194527626037598 -18.29262924194336 -6.48629093170166
vertex 8.733634948730469 -11.257761001586914 6.570310115814209
vertex 10.378079414367676 -22.022884368896484 9.02079963684082
endloop
endfacet
facet normal 0.5656923145322849 -0.7827133732083064 -0.2595226014819924
outer loop
vertex 7.611626625061035 8.07037353515625 -20.358867645263672
vertex 16.226564407348633 11.582627296447754 -12.173391342163086
vertex 6.1467156410217285 3.2346274852752686 -8.967512130737305
endloop
endfacet
facet normal 0.7181632934792048 -0.31257837865921606 -0.6217203881922141
outer loop
vertex 7.611626625061035 8.07037353515625 -20.358867645263672
vertex 12.095367431640625 15.88023567199707 -19.106111526489258
vertex 16.226564407348633 11.582627296447754 -12.173391342163086
endloop
endfacet
facet normal -0.7132559213464935 -0.699388064806539 -0.046068703805605286
outer loop
vertex 10.295453071594238 16.385761260986328 -29.526569366455078
vertex 6.499363422393799 19.964069366455078 -25.077617645263672
vertex 8.90137767791748 18.11431884765625 -34.18482971191406
endloop
endfacet
facet normal -0.13167243434942213 -0.8242962056671748 0.5506343027411168
outer loop
vertex 11.139822959899902 20.815874099731445 -22.69280433654785
vertex 6.499363422393799 19.964069366455078 -25.077617645263672
vertex 10.295453071594238 16.385761260986328 -29.526569366455078
endloop
endfacet
facet normal 0.7285114256581163 -0.6123982352636241 0.3069845340266799
outer loop
vertex 10.295453071594238 16.385761260986328 -29.526569366455078
vertex 12.452507019042969 17.833518981933594 -31.75741195678711
vertex 11.139822959899902 20.815874099731445 -22.69280433654785
endloop
endfacet
facet normal -0.9159887058045895 -0.216915304099616 -0.3375091727432072
outer loop
vertex 6.3958563804626465 -14.556714057922363 -13.758735656738281
vertex 8.042438507080078 -20.35222625732422 -14.502760887145996
vertex 7.120108127593994 -22.433372497558594 -10.6620454788208
endloop
endfacet
facet normal 0.5298953874140296 -0.8463549925453144 0.05379688644295314
outer loop
vertex 8.042438507080078 -20.35222625732422 -14.502760887145996
vertex 5.01356315612793 -23.044252395629883 -27.0206356048584
vertex 9.915755271911621 -20.235389709472656 -31.11667251586914
endloop
endfacet
facet normal 0.38579741630244335 -0.9218405561249977 0.03701813957392036
outer loop
vertex 8.042438507080078 -20.35222625732422 -14.502760887145996
vertex 9.915755271911621 -20.235389709472656 -31.11667251586914
vertex 12.194527626037598 -18.29262924194336 -6.48629093170166
endloop
endfacet
facet normal 0.7114164069144862 -0.6751728312519631 -0.19500857394507082
outer loop
vertex 7.120108127593994 -22.433372497558594 -10.6620454788208
vertex 8.042438507080078 -20.35222625732422 -14.502760887145996
vertex 12.194527626037598 -18.29262924194336 -6.48629093170166
endloop
endfacet
facet normal -0.7398996080453226 -0.3067312830293852 -0.5987190409745835
outer loop
vertex 6.499363422393799 19.964069366455078 -25.077617645263672
vertex 7.611626625061035 8.07037353515625 -20.358867645263672
vertex 2.262441635131836 13.185613632202148 -16.36892318725586
endloop
endfacet
facet normal 0.47899850473270955 -0.2846539729035232 -0.8303809656862737
outer loop
vertex 6.499363422393799 19.964069366455078 -25.077617645263672
vertex 11.139822959899902 20.815874099731445 -22.69280433654785
vertex 7.611626625061035 8.07037353515625 -20.358867645263672
endloop
endfacet
facet normal 0.8114144323373156 0.4992122592737799 0.30396338461314765
outer loop
vertex 8.94880485534668 19.79579734802246 -15.168679237365723
vertex 11.139822959899902 20.815874099731445 -22.69280433654785
vertex 8.040226936340332 26.456241607666016 -23.68201446533203
endloop
endfacet
facet normal 0.7182485351935842 -0.31264879408487367 -0.6215864969974372
outer loop
vertex 7.611626625061035 8.07037353515625 -20.358867645263672
vertex 11.139822959899902 20.815874099731445 -22.69280433654785
vertex 12.095367431640625 15.88023567199707 -19.106111526489258
endloop
endfacet
facet normal 0.868400239929043 0.3903442812849574 0.30579791588451083
outer loop
vertex 11.139822959899902 20.815874099731445 -22.69280433654785
vertex 8.94880485534668 19.79579734802246 -15.168679237365723
vertex 12.095367431640625 15.88023567199707 -19.106111526489258
endloop
endfacet
facet normal -0.07020020326845 0.9748836793346526 -0.21136164086228776
outer loop
vertex 8.94880485534668 19.79579734802246 -15.168679237365723
vertex 5.053946018218994 19.891658782958984 -13.432916641235352
vertex 11.501893043518066 22.42417335510254 -3.8935322761535645
endloop
endfacet
facet normal 0.5673477855590927 0.7642622301661722 -0.30662637486462635
outer loop
vertex 11.501893043518066 22.42417335510254 -3.8935322761535645
vertex 12.095367431640625 15.88023567199707 -19.106111526489258
vertex 8.94880485534668 19.79579734802246 -15.168679237365723
endloop
endfacet
facet normal 0.8408220632514316 0.5083923621430114 -0.18589100049290866
outer loop
vertex 16.226564407348633 11.582627296447754 -12.173391342163086
vertex 12.095367431640625 15.88023567199707 -19.106111526489258
vertex 11.501893043518066 22.42417335510254 -3.8935322761535645
endloop
endfacet
facet normal 0.314916798407636 0.9449117953667868 0.08926986645783622
outer loop
vertex 11.501893043518066 22.42417335510254 -3.8935322761535645
vertex -2.040198564529419 26.669620513916016 -1.0587679147720337
vertex 4.091999530792236 23.70868682861328 8.649871826171875
endloop
endfacet
facet normal 0.9637735268488223 -0.2620194099100187 0.04986399277823749
outer loop
vertex 8.914183616638184 -28.596426010131836 2.7731754779815674
vertex 12.194527626037598 -18.29262924194336 -6.48629093170166
vertex 10.378079414367676 -22.022884368896484 9.02079963684082
endloop
endfacet
facet normal 0.8781981994870924 0.477362538934114 -0.029881914932036818
outer loop
vertex 8.040226936340332 26.456241607666016 -23.68201446533203
vertex 11.139822959899902 20.815874099731445 -22.69280433654785
vertex 12.452507019042969 17.833518981933594 -31.75741195678711
endloop
endfacet
facet normal -0.3375679330162255 -0.3764696352666019 0.8627389549112668
outer loop
vertex 15.041861534118652 10.820741653442383 -30.097803115844727
vertex 10.295453071594238 16.385761260986328 -29.526569366455078
vertex 10.461860656738281 8.615960121154785 -32.851932525634766
endloop
endfacet
facet normal 0.48871902357467534 0.5849489733896567 -0.647293144198672
outer loop
vertex 12.452507019042969 17.833518981933594 -31.75741195678711
vertex 15.084181785583496 12.500944137573242 -34.589412689208984
vertex 8.90137767791748 18.11431884765625 -34.18482971191406
endloop
endfacet
facet normal 0.532153351726466 0.37600868338972576 0.7585712097501547
outer loop
vertex 12.452507019042969 17.833518981933594 -31.75741195678711
vertex 10.295453071594238 16.385761260986328 -29.526569366455078
vertex 15.041861534118652 10.820741653442383 -30.097803115844727
endloop
endfacet
facet normal 0.8130162312724852 -0.5467832916446449 0.20008158252505923
outer loop
vertex 16.226564407348633 11.582627296447754 -12.173391342163086
vertex 11.30941390991211 11.216085433959961 6.8053879737854
vertex 10.470744132995605 6.46755838394165 -2.763524293899536
endloop
endfacet
facet normal 0.9430323414418627 0.22110918021284726 0.24859753301326373
outer loop
vertex 11.501893043518066 22.42417335510254 -3.8935322761535645
vertex 11.30941390991211 11.216085433959961 6.8053879737854
vertex 16.226564407348633 11.582627296447754 -12.173391342163086
endloop
endfacet
facet normal -0.21780048873663088 -0.1706333711969384 -0.960961601595013
outer loop
vertex 15.084181785583496 12.500944137573242 -34.589412689208984
vertex 10.461860656738281 8.615960121154785 -32.851932525634766
vertex 8.90137767791748 18.11431884765625 -34.18482971191406
endloop
endfacet
facet normal 0.9158163536743941 0.3732336561019169 0.14824656588040455
outer loop
vertex 15.041861534118652 10.820741653442383 -30.097803115844727
vertex 15.084181785583496 12.500944137573242 -34.589412689208984
vertex 12.452507019042969 17.833518981933594 -31.75741195678711
endloop
endfacet
facet normal 0.5504119116637067 -0.7836608335942791 -0.2879625416421788
outer loop
vertex 15.041861534118652 10.820741653442383 -30.097803115844727
vertex 10.461860656738281 8.615960121154785 -32.851932525634766
vertex 15.084181785583496 12.500944137573242 -34.589412689208984
endloop
endfacet
facet normal 0.04381704145201204 -0.591613404291819 -0.8050302147998157
outer loop
vertex -4.726394176483154 3.5156948566436768 -9.765880584716797
vertex 0.007159898988902569 10.123708724975586 -14.364439964294434
vertex 6.1467156410217285 3.2346274852752686 -8.967512130737305
endloop
endfacet
facet normal -0.5139613127236801 -0.7638492342987144 -0.3903563964950738
outer loop
vertex 0.007159898988902569 10.123708724975586 -14.364439964294434
vertex 7.611626625061035 8.07037353515625 -20.358867645263672
vertex 6.1467156410217285 3.2346274852752686 -8.967512130737305
endloop
endfacet
facet normal 0.058177943936626376 -0.24125403647955426 0.9687165822476813
outer loop
vertex -4.652090549468994 -8.62986946105957 10.134761810302734
vertex 4.858136177062988 7.577980041503906 13.600092887878418
vertex -3.71095609664917 7.814879894256592 14.173723220825195
endloop
endfacet
facet normal 0.6352041227448167 -0.3858207990236548 0.6690725173617104
outer loop
vertex -0.6396998763084412 -35.216468811035156 37.37287139892578
vertex 9.402192115783691 -30.081968307495117 30.80010986328125
vertex 3.322204828262329 -26.329069137573242 38.7364387512207
endloop
endfacet
facet normal 0.8794964160857793 -0.4647338875081873 0.10251081842321376
outer loop
vertex 9.402192115783691 -30.081968307495117 30.80010986328125
vertex 1.8269978761672974 -45.0024528503418 28.14967155456543
vertex 10.730498313903809 -29.23754119873047 23.23206329345703
endloop
endfacet
facet normal 0.25092554000349737 -0.1736929468093785 0.9522957175177402
outer loop
vertex -0.9496042728424072 21.29458236694336 54.53181457519531
vertex -2.643472194671631 10.818522453308105 53.0673713684082
vertex 3.184751510620117 19.672161102294922 53.14651107788086
endloop
endfacet
facet normal 0.847679501600057 0.5209961491881155 0.1000123747254999
outer loop
vertex 4.091999530792236 23.70868682861328 8.649871826171875
vertex 0.8686062693595886 27.511611938476562 16.159893035888672
vertex 3.2513558864593506 23.195466995239258 18.44847869873047
endloop
endfacet
facet normal 0.5342120950880299 0.8452759927944874 -0.01122200815145391
outer loop
vertex 9.187427520751953 -22.840557098388672 27.00969886779785
vertex 0.7478579878807068 -17.459346771240234 30.581945419311523
vertex 8.353117942810059 -22.127456665039062 41.006160736083984
endloop
endfacet
facet normal 0.6306952217679379 -0.7752131020933349 -0.03561156528320977
outer loop
vertex 16.226564407348633 11.582627296447754 -12.173391342163086
vertex 10.470744132995605 6.46755838394165 -2.763524293899536
vertex 6.1467156410217285 3.2346274852752686 -8.967512130737305
endloop
endfacet
facet normal 0.987516994947563 0.08835571798611842 -0.13039728443833665
outer loop
vertex 12.194527626037598 -18.29262924194336 -6.48629093170166
vertex 10.470744132995605 6.46755838394165 -2.763524293899536
vertex 11.30941390991211 11.216085433959961 6.8053879737854
endloop
endfacet
facet normal -0.09643363037544823 -0.41041199682519364 -0.906786936272556
outer loop
vertex 1.4248521327972412 -11.838611602783203 -14.851566314697266
vertex 7.120108127593994 -22.433372497558594 -10.6620454788208
vertex 1.6892672777175903 -28.882732391357422 -7.165512561798096
endloop
endfacet
facet normal 0.07760390115710263 0.34135396680092295 -0.9367257356742543
outer loop
vertex 1.4248521327972412 -11.838611602783203 -14.851566314697266
vertex -4.726394176483154 3.5156948566436768 -9.765880584716797
vertex 6.1467156410217285 3.2346274852752686 -8.967512130737305
endloop
endfacet
facet normal -0.1309060927815684 -0.895941702739882 -0.4244432355029635
outer loop
vertex -5.174480438232422 -25.30659294128418 16.04649543762207
vertex 4.519702911376953 -27.076366424560547 16.792381286621094
vertex -6.527896881103516 -26.28252601623535 18.523975372314453
endloop
endfacet
facet normal -0.13079394986490644 0.3084150654052925 0.9422171141036365
outer loop
vertex 4.588052272796631 -15.909608840942383 13.80030345916748
vertex -4.652090549468994 -8.62986946105957 10.134761810302734
vertex -3.647564172744751 -14.928510665893555 12.335933685302734
endloop
endfacet
facet normal 0.6180781623284474 -0.49963084272473 -0.6069171329356796
outer loop
vertex -7.522843837738037 6.512974739074707 -19.060462951660156
vertex -3.0919322967529297 11.138577461242676 -18.35599136352539
vertex 0.007159898988902569 10.123708724975586 -14.364439964294434
endloop
endfacet
facet normal -0.469070869167452 -0.2152314083111603 -0.8565325216095918
outer loop
vertex -3.0907742977142334 18.374698638916016 -14.741216659545898
vertex 2.262441635131836 13.185613632202148 -16.36892318725586
vertex 0.007159898988902569 10.123708724975586 -14.364439964294434
endloop
endfacet
facet normal 0.7923074706049487 0.27255508628073505 -0.545859502954826
outer loop
vertex -3.0907742977142334 18.374698638916016 -14.741216659545898
vertex 0.007159898988902569 10.123708724975586 -14.364439964294434
vertex -3.0919322967529297 11.138577461242676 -18.35599136352539
endloop
endfacet
facet normal -0.07694949047532681 0.8552006325940718 -0.5125530742530836
outer loop
vertex -3.0907742977142334 18.374698638916016 -14.741216659545898
vertex -2.040198564529419 26.669620513916016 -1.0587679147720337
vertex 5.053946018218994 19.891658782958984 -13.432916641235352
endloop
endfacet
facet normal 0.07929438876171097 0.37191579282011067 -0.9248735280901357
outer loop
vertex 2.262441635131836 13.185613632202148 -16.36892318725586
vertex -3.0907742977142334 18.374698638916016 -14.741216659545898
vertex 5.053946018218994 19.891658782958984 -13.432916641235352
endloop
endfacet
facet normal 0.29595223226309925 0.8065775012471658 -0.5117079349593543
outer loop
vertex -8.153414726257324 19.93523597717285 -15.209463119506836
vertex -2.040198564529419 26.669620513916016 -1.0587679147720337
vertex -3.0907742977142334 18.374698638916016 -14.741216659545898
endloop
endfacet
facet normal -0.7296543773074483 0.5413360723631968 0.41780347824601394
outer loop
vertex -2.2259678840637207 22.6343936920166 27.205612182617188
vertex -3.389995574951172 8.557550430297852 43.411712646484375
vertex -0.9805828332901001 15.916034698486328 38.08534622192383
endloop
endfacet
facet normal -0.07678975543520938 -0.11767285705388851 0.9900790029957084
outer loop
vertex -0.6396998763084412 -35.216468811035156 37.37287139892578
vertex 3.322204828262329 -26.329069137573242 38.7364387512207
vertex -4.070070743560791 -27.08087730407715 38.07374572753906
endloop
endfacet
facet normal 0.8030338438094172 0.05958332326853217 0.5929472769858632
outer loop
vertex -8.28950309753418 -24.27240753173828 43.50594711303711
vertex -4.070070743560791 -27.08087730407715 38.07374572753906
vertex 0.7478579878807068 -17.459346771240234 30.581945419311523
endloop
endfacet
facet normal -0.1560072119935467 0.9146001711172786 0.3730526461482953
outer loop
vertex -8.28950309753418 -24.27240753173828 43.50594711303711
vertex 0.7478579878807068 -17.459346771240234 30.581945419311523
vertex -7.493679523468018 -20.18769645690918 33.82440948486328
endloop
endfacet
facet normal -0.4237902600067782 -0.8141680447139843 -0.39690327598798536
outer loop
vertex -2.7468111515045166 21.548250198364258 16.077123641967773
vertex 0.5646370649337769 9.479076385498047 37.298858642578125
vertex -3.389995574951172 8.557550430297852 43.411712646484375
endloop
endfacet
facet normal -0.4108222459968239 0.911345651535042 -0.025965084677214922
outer loop
vertex -2.8085124492645264 25.58589744567871 6.749203205108643
vertex -3.499203681945801 25.495534896850586 14.505765914916992
vertex 0.8686062693595886 27.511611938476562 16.159893035888672
endloop
endfacet
facet normal 0.05088222842903697 -0.9918735945101221 -0.11660948222020913
outer loop
vertex 0.5646370649337769 9.479076385498047 37.298858642578125
vertex 2.0760788917541504 8.24199104309082 48.48094940185547
vertex -3.389995574951172 8.557550430297852 43.411712646484375
endloop
endfacet
facet normal -0.27568530717588935 -0.9309815749531557 0.23931343151832726
outer loop
vertex -2.643472194671631 10.818522453308105 53.0673713684082
vertex -3.389995574951172 8.557550430297852 43.411712646484375
vertex 2.0760788917541504 8.24199104309082 48.48094940185547
endloop
endfacet
facet normal -0.9311750368880428 -0.33236566746451995 0.1498202715503359
outer loop
vertex -4.892626762390137 16.4779052734375 51.643184661865234
vertex -3.389995574951172 8.557550430297852 43.411712646484375
vertex -2.643472194671631 10.818522453308105 53.0673713684082
endloop
endfacet
facet normal -0.9919547989634502 0.12178958214972621 0.034539462838563344
outer loop
vertex -3.389995574951172 8.557550430297852 43.411712646484375
vertex -2.2259678840637207 22.6343936920166 27.205612182617188
vertex -2.7468111515045166 21.548250198364258 16.077123641967773
endloop
endfacet
facet normal -0.9662179420187066 0.19160860376513836 -0.17236308039806442
outer loop
vertex -3.389995574951172 8.557550430297852 43.411712646484375
vertex -2.354224681854248 14.258932113647461 43.943458557128906
vertex -0.9805828332901001 15.916034698486328 38.08534622192383
endloop
endfacet
facet normal -0.9121990183329995 0.1991191065406577 -0.3581124577039482
outer loop
vertex -2.354224681854248 14.258932113647461 43.943458557128906
vertex -3.389995574951172 8.557550430297852 43.411712646484375
vertex -4.892626762390137 16.4779052734375 51.643184661865234
endloop
endfacet
facet normal -0.4799639029976008 0.8442946731910943 0.2383299323216723
outer loop
vertex 0.8686062693595886 27.511611938476562 16.159893035888672
vertex -3.499203681945801 25.495534896850586 14.505765914916992
vertex -2.2259678840637207 22.6343936920166 27.205612182617188
endloop
endfacet
facet normal -0.9846748007414324 -0.1630096006409937 0.06199521661938145
outer loop
vertex -2.7468111515045166 21.548250198364258 16.077123641967773
vertex -2.2259678840637207 22.6343936920166 27.205612182617188
vertex -3.499203681945801 25.495534896850586 14.505765914916992
endloop
endfacet
facet normal -0.06566058063940358 -0.7893795888690261 0.6103839388672213
outer loop
vertex -2.7468111515045166 21.548250198364258 16.077123641967773
vertex -1.8819656372070312 18.580955505371094 12.332700729370117
vertex 1.3049010038375854 20.513107299804688 15.174277305603027
endloop
endfacet
facet normal -0.9759800769903236 -0.20963572148802254 -0.0592937905193964
outer loop
vertex -2.7468111515045166 21.548250198364258 16.077123641967773
vertex -3.499203681945801 25.495534896850586 14.505765914916992
vertex -1.8819656372070312 18.580955505371094 12.332700729370117
endloop
endfacet
facet normal -0.975691948653231 -0.2001654081110171 -0.0892133999408774
outer loop
vertex -3.499203681945801 25.495534896850586 14.505765914916992
vertex -2.8085124492645264 25.58589744567871 6.749203205108643
vertex -1.8819656372070312 18.580955505371094 12.332700729370117
endloop
endfacet
facet normal -0.5660429317149674 0.23146145456484493 0.7912148851647388
outer loop
vertex -3.71095609664917 7.814879894256592 14.173723220825195
vertex -1.8819656372070312 18.580955505371094 12.332700729370117
vertex -11.470081329345703 13.801486015319824 6.871450901031494
endloop
endfacet
facet normal -0.6005731939436015 0.4482908304870984 0.662077918388439
outer loop
vertex -11.470081329345703 13.801486015319824 6.871450901031494
vertex -1.8819656372070312 18.580955505371094 12.332700729370117
vertex -2.8085124492645264 25.58589744567871 6.749203205108643
endloop
endfacet
facet normal 0.5507083974762506 0.2711562169821438 -0.7894267331051518
outer loop
vertex -1.7713931798934937 23.516244888305664 47.52979278564453
vertex 2.593278646469116 14.811868667602539 47.58478927612305
vertex -2.354224681854248 14.258932113647461 43.943458557128906
endloop
endfacet
facet normal -0.9131117077685221 0.1959906732480195 -0.35751176922702965
outer loop
vertex -1.7713931798934937 23.516244888305664 47.52979278564453
vertex -2.354224681854248 14.258932113647461 43.943458557128906
vertex -4.892626762390137 16.4779052734375 51.643184661865234
endloop
endfacet
facet normal -0.8177145446160113 0.5140304890037046 0.2590667479589799
outer loop
vertex -1.7713931798934937 23.516244888305664 47.52979278564453
vertex -4.892626762390137 16.4779052734375 51.643184661865234
vertex -0.9496042728424072 21.29458236694336 54.53181457519531
endloop
endfacet
facet normal -0.6462470709106644 -0.6033209979522793 0.46729915126100163
outer loop
vertex -4.045777797698975 -41.84891891479492 24.099437713623047
vertex 1.8269978761672974 -45.0024528503418 28.14967155456543
vertex -0.6396998763084412 -35.216468811035156 37.37287139892578
endloop
endfacet
facet normal -0.3735842086513124 -0.7643774165513014 -0.52551118362289
outer loop
vertex -7.567688465118408 -30.76898193359375 2.1588542461395264
vertex -7.1197004318237305 -22.79546546936035 -9.757423400878906
vertex 1.6892672777175903 -28.882732391357422 -7.165512561798096
endloop
endfacet
facet normal -0.7922792463558271 -0.4929217881159969 -0.3596132736626539
outer loop
vertex -7.567688465118408 -30.76898193359375 2.1588542461395264
vertex -11.477581024169922 -19.537748336791992 -4.621743679046631
vertex -7.1197004318237305 -22.79546546936035 -9.757423400878906
endloop
endfacet
facet normal -0.21189213942065546 0.8901327496119923 -0.4034419528506324
outer loop
vertex -8.177506446838379 -18.581220626831055 -30.417861938476562
vertex -3.110346794128418 -17.201452255249023 -30.034942626953125
vertex -7.336376190185547 -20.706254959106445 -35.548194885253906
endloop
endfacet
facet normal 0.09757946028168835 0.9887190540844945 0.11363485830235802
outer loop
vertex 4.588052272796631 -15.909608840942383 13.80030345916748
vertex -3.647564172744751 -14.928510665893555 12.335933685302734
vertex 0.7478579878807068 -17.459346771240234 30.581945419311523
endloop
endfacet
facet normal -0.9755954847873525 0.17577090313188418 -0.1315980230654417
outer loop
vertex -3.647564172744751 -14.928510665893555 12.335933685302734
vertex -6.527896881103516 -26.28252601623535 18.523975372314453
vertex -7.493679523468018 -20.18769645690918 33.82440948486328
endloop
endfacet
facet normal -0.8159615897876292 0.5175147488423164 -0.25765319466662717
outer loop
vertex -10.688741683959961 -26.63402557373047 30.994937896728516
vertex -7.493679523468018 -20.18769645690918 33.82440948486328
vertex -6.527896881103516 -26.28252601623535 18.523975372314453
endloop
endfacet
facet normal 0.9338688974002074 0.30614493924578207 -0.1848354907552054
outer loop
vertex -3.110346794128418 -17.201452255249023 -30.034942626953125
vertex -1.169374704360962 -23.173809051513672 -30.12038803100586
vertex -2.0874407291412354 -23.418550491333008 -35.164222717285156
endloop
endfacet
facet normal 0.5023123833119435 -0.8632658407833695 -0.049541474625382415
outer loop
vertex -7.490705966949463 -26.714763641357422 -32.51227951049805
vertex -2.0874407291412354 -23.418550491333008 -35.164222717285156
vertex -1.169374704360962 -23.173809051513672 -30.12038803100586
endloop
endfacet
facet normal 0.3736001455818902 0.6261165679045749 -0.6843982573155679
outer loop
vertex -2.0874407291412354 -23.418550491333008 -35.164222717285156
vertex -7.336376190185547 -20.706254959106445 -35.548194885253906
vertex -3.110346794128418 -17.201452255249023 -30.034942626953125
endloop
endfacet
facet normal -0.1636249908111587 -0.4415429785022564 -0.8821942306076391
outer loop
vertex -7.336376190185547 -20.706254959106445 -35.548194885253906
vertex -2.0874407291412354 -23.418550491333008 -35.164222717285156
vertex -7.490705966949463 -26.714763641357422 -32.51227951049805
endloop
endfacet
facet normal 0.9881045917994736 0.06859744252836983 -0.13763613821726703
outer loop
vertex -3.0919322967529297 11.138577461242676 -18.35599136352539
vertex -4.903672695159912 25.63525390625 -24.137569427490234
vertex -3.0907742977142334 18.374698638916016 -14.741216659545898
endloop
endfacet
facet normal 0.8912345532657512 -0.06748554859775541 -0.44849378122294714
outer loop
vertex -5.829743385314941 19.6461181640625 -25.076637268066406
vertex -4.903672695159912 25.63525390625 -24.137569427490234
vertex -3.0919322967529297 11.138577461242676 -18.35599136352539
endloop
endfacet
facet normal 0.1914623506480543 0.7941847214428807 0.5767259284192238
outer loop
vertex -3.0907742977142334 18.374698638916016 -14.741216659545898
vertex -4.903672695159912 25.63525390625 -24.137569427490234
vertex -8.153414726257324 19.93523597717285 -15.209463119506836
endloop
endfacet
facet normal -0.0013929663248607802 0.8430987588695698 0.5377569548015246
outer loop
vertex -4.903672695159912 25.63525390625 -24.137569427490234
vertex -9.70325756072998 25.356809616088867 -23.713455200195312
vertex -8.153414726257324 19.93523597717285 -15.209463119506836
endloop
endfacet
facet normal -0.17816137992090822 -0.673585564351486 0.7173151400897432
outer loop
vertex -5.174480438232422 -25.30659294128418 16.04649543762207
vertex -0.4700660705566406 -33.62992477416992 9.399024963378906
vertex 4.519702911376953 -27.076366424560547 16.792381286621094
endloop
endfacet
facet normal -0.8683498430373359 -0.04870534333853436 -0.4935547990115278
outer loop
vertex -5.174480438232422 -25.30659294128418 16.04649543762207
vertex -6.527896881103516 -26.28252601623535 18.523975372314453
vertex -3.647564172744751 -14.928510665893555 12.335933685302734
endloop
endfacet
facet normal -0.702757176456167 0.32893777377593236 0.6308187472822042
outer loop
vertex -10.156606674194336 -22.368810653686523 8.964314460754395
vertex -5.174480438232422 -25.30659294128418 16.04649543762207
vertex -3.647564172744751 -14.928510665893555 12.335933685302734
endloop
endfacet
facet normal -0.5512470784313312 -0.35785420747007113 -0.7537022122276735
outer loop
vertex -4.045777797698975 -41.84891891479492 24.099437713623047
vertex -6.527896881103516 -26.28252601623535 18.523975372314453
vertex 1.0504841804504395 -40.00154495239258 19.494979858398438
endloop
endfacet
facet normal -0.3500046210146231 -0.3648347118159974 -0.8627817790858522
outer loop
vertex -10.144181251525879 -31.285118103027344 22.106382369995117
vertex -6.527896881103516 -26.28252601623535 18.523975372314453
vertex -4.045777797698975 -41.84891891479492 24.099437713623047
endloop
endfacet
facet normal -0.6480448960157515 -0.6640793697586022 0.37287585522389577
outer loop
vertex -7.567688465118408 -30.76898193359375 2.1588542461395264
vertex -0.4700660705566406 -33.62992477416992 9.399024963378906
vertex -5.174480438232422 -25.30659294128418 16.04649543762207
endloop
endfacet
facet normal -0.7862581785940902 -0.5167648807737231 0.3387508444163995
outer loop
vertex -5.174480438232422 -25.30659294128418 16.04649543762207
vertex -10.156606674194336 -22.368810653686523 8.964314460754395
vertex -7.567688465118408 -30.76898193359375 2.1588542461395264
endloop
endfacet
facet normal 0.9483174878486933 0.3070504232695897 0.08008732615282652
outer loop
vertex -1.169374704360962 -23.173809051513672 -30.12038803100586
vertex -3.110346794128418 -17.201452255249023 -30.034942626953125
vertex -4.590948104858398 -16.794843673706055 -14.061993598937988
endloop
endfacet
facet normal -0.2372001285362057 0.9395956808567154 -0.2467712615719521
outer loop
vertex -8.77422046661377 -13.586289405822754 -10.8258056640625
vertex -3.110346794128418 -17.201452255249023 -30.034942626953125
vertex -8.177506446838379 -18.581220626831055 -30.417861938476562
endloop
endfacet
facet normal -0.7826858382795948 0.5970025662054148 -0.1760420816189055
outer loop
vertex -10.728367805480957 -17.463531494140625 -15.286330223083496
vertex -8.77422046661377 -13.586289405822754 -10.8258056640625
vertex -8.177506446838379 -18.581220626831055 -30.417861938476562
endloop
endfacet
facet normal -0.10344042041304927 -0.9834783402681664 0.14856121178875867
outer loop
vertex -6.344010353088379 -22.226924896240234 -27.454998016357422
vertex -1.169374704360962 -23.173809051513672 -30.12038803100586
vertex -8.571568489074707 -20.24161720275879 -15.863226890563965
endloop
endfacet
facet normal 0.18542556697220444 -0.75548686726953 0.6283764417101488
outer loop
vertex -6.344010353088379 -22.226924896240234 -27.454998016357422
vertex -7.490705966949463 -26.714763641357422 -32.51227951049805
vertex -1.169374704360962 -23.173809051513672 -30.12038803100586
endloop
endfacet
facet normal -0.9177880772826585 -0.1699115189322149 0.35888037133834516
outer loop
vertex -7.490705966949463 -26.714763641357422 -32.51227951049805
vertex -6.344010353088379 -22.226924896240234 -27.454998016357422
vertex -8.177506446838379 -18.581220626831055 -30.417861938476562
endloop
endfacet
facet normal -0.9886569142732081 -0.046727177379263615 -0.14273779020968963
outer loop
vertex -7.336376190185547 -20.706254959106445 -35.548194885253906
vertex -7.490705966949463 -26.714763641357422 -32.51227951049805
vertex -8.177506446838379 -18.581220626831055 -30.417861938476562
endloop
endfacet
facet normal -0.3849074527431394 0.14756865296621438 -0.9110816349178184
outer loop
vertex -8.77422046661377 -13.586289405822754 -10.8258056640625
vertex -4.726394176483154 3.5156948566436768 -9.765880584716797
vertex 1.4248521327972412 -11.838611602783203 -14.851566314697266
endloop
endfacet
facet normal -0.9027866545562891 0.23596388875148372 -0.35957933694852506
outer loop
vertex -8.77422046661377 -13.586289405822754 -10.8258056640625
vertex -11.41006088256836 -8.849730491638184 -1.0998340845108032
vertex -4.726394176483154 3.5156948566436768 -9.765880584716797
endloop
endfacet
facet normal -0.9450961681814635 0.10764515705957932 -0.30855429514160604
outer loop
vertex -8.77422046661377 -13.586289405822754 -10.8258056640625
vertex -11.477581024169922 -19.537748336791992 -4.621743679046631
vertex -11.41006088256836 -8.849730491638184 -1.0998340845108032
endloop
endfacet
facet normal -0.8411026839758782 -0.1815300112911476 0.5095028263014936
outer loop
vertex -11.41006088256836 -8.849730491638184 -1.0998340845108032
vertex -4.652090549468994 -8.62986946105957 10.134761810302734
vertex -11.470081329345703 13.801486015319824 6.871450901031494
endloop
endfacet
facet normal -0.39515593239227514 0.343935151605795 -0.851798333283818
outer loop
vertex 1.4248521327972412 -11.838611602783203 -14.851566314697266
vertex -4.590948104858398 -16.794843673706055 -14.061993598937988
vertex -8.77422046661377 -13.586289405822754 -10.8258056640625
endloop
endfacet
facet normal 0.6266223101030314 0.7783828795957647 0.03826974305303918
outer loop
vertex -3.110346794128418 -17.201452255249023 -30.034942626953125
vertex -8.77422046661377 -13.586289405822754 -10.8258056640625
vertex -4.590948104858398 -16.794843673706055 -14.061993598937988
endloop
endfacet
facet normal -0.7579431908698856 0.5605508546816622 0.3336238281802336
outer loop
vertex -14.699179649353027 18.18683433532715 -7.8327860832214355
vertex -11.470081329345703 13.801486015319824 6.871450901031494
vertex -2.8085124492645264 25.58589744567871 6.749203205108643
endloop
endfacet
facet normal 0.9760778697896361 -0.1227929063436795 -0.17942657065941633
outer loop
vertex -7.346628189086914 17.02135467529297 -31.532176971435547
vertex -4.903672695159912 25.63525390625 -24.137569427490234
vertex -5.829743385314941 19.6461181640625 -25.076637268066406
endloop
endfacet
facet normal 0.8645602280417455 0.16290571827850522 -0.47539177426683465
outer loop
vertex -4.903672695159912 25.63525390625 -24.137569427490234
vertex -7.346628189086914 17.02135467529297 -31.532176971435547
vertex -9.054987907409668 18.614519119262695 -34.09310531616211
endloop
endfacet
facet normal 0.9097897417565974 -0.3743429812040638 0.17930409425809982
outer loop
vertex -10.652127265930176 9.485697746276855 -30.492664337158203
vertex -8.824023246765137 11.768514633178711 -35.00251007080078
vertex -7.346628189086914 17.02135467529297 -31.532176971435547
endloop
endfacet
facet normal 0.8546948760126242 0.09659070267120945 -0.5100655889934618
outer loop
vertex -7.346628189086914 17.02135467529297 -31.532176971435547
vertex -8.824023246765137 11.768514633178711 -35.00251007080078
vertex -9.054987907409668 18.614519119262695 -34.09310531616211
endloop
endfacet
facet normal -0.09654806654214557 0.8319259521896479 -0.5464226211645353
outer loop
vertex -4.903672695159912 25.63525390625 -24.137569427490234
vertex -9.054987907409668 18.614519119262695 -34.09310531616211
vertex -9.70325756072998 25.356809616088867 -23.713455200195312
endloop
endfacet
facet normal -0.8031710861341909 0.47543770064305924 -0.3589919208077876
outer loop
vertex -9.054987907409668 18.614519119262695 -34.09310531616211
vertex -11.454360008239746 17.410686492919922 -30.319318771362305
vertex -9.70325756072998 25.356809616088867 -23.713455200195312
endloop
endfacet
facet normal -0.8618816146948297 0.4257062509539805 -0.2755617356414706
outer loop
vertex -10.688741683959961 -26.63402557373047 30.994937896728516
vertex -6.527896881103516 -26.28252601623535 18.523975372314453
vertex -10.144181251525879 -31.285118103027344 22.106382369995117
endloop
endfacet
facet normal -0.3120921236562288 -0.9208660226947766 0.23367557552737167
outer loop
vertex -8.28950309753418 -24.27240753173828 43.50594711303711
vertex -10.688741683959961 -26.63402557373047 30.994937896728516
vertex -4.070070743560791 -27.08087730407715 38.07374572753906
endloop
endfacet
facet normal -0.9080620508092422 0.40739164256031696 0.09723868289996616
outer loop
vertex -8.28950309753418 -24.27240753173828 43.50594711303711
vertex -7.493679523468018 -20.18769645690918 33.82440948486328
vertex -10.688741683959961 -26.63402557373047 30.994937896728516
endloop
endfacet
facet normal -0.6896181537830879 -0.7117224812032241 -0.13370830835341385
outer loop
vertex -8.571568489074707 -20.24161720275879 -15.863226890563965
vertex -7.1197004318237305 -22.79546546936035 -9.757423400878906
vertex -11.477581024169922 -19.537748336791992 -4.621743679046631
endloop
endfacet
facet normal -0.7952195114132953 -0.5822599537684527 -0.16911320145145212
outer loop
vertex -8.571568489074707 -20.24161720275879 -15.863226890563965
vertex -11.477581024169922 -19.537748336791992 -4.621743679046631
vertex -10.728367805480957 -17.463531494140625 -15.286330223083496
endloop
endfacet
facet normal -0.9020738374343891 0.4310958485441671 0.020473426298008277
outer loop
vertex -11.477581024169922 -19.537748336791992 -4.621743679046631
vertex -8.77422046661377 -13.586289405822754 -10.8258056640625
vertex -10.728367805480957 -17.463531494140625 -15.286330223083496
endloop
endfacet
facet normal -0.8564876090629269 0.04315706547299804 0.5143602270990926
outer loop
vertex -3.647564172744751 -14.928510665893555 12.335933685302734
vertex -4.652090549468994 -8.62986946105957 10.134761810302734
vertex -11.41006088256836 -8.849730491638184 -1.0998340845108032
endloop
endfacet
facet normal -0.7232860690174439 0.36795392469093335 0.5843519245025488
outer loop
vertex -10.156606674194336 -22.368810653686523 8.964314460754395
vertex -3.647564172744751 -14.928510665893555 12.335933685302734
vertex -11.41006088256836 -8.849730491638184 -1.0998340845108032
endloop
endfacet
facet normal -0.09635811711062241 -0.9554132884344229 -0.2791067207177531
outer loop
vertex -4.726394176483154 3.5156948566436768 -9.765880584716797
vertex -12.448711395263672 6.0518622398376465 -15.781429290771484
vertex -7.522843837738037 6.512974739074707 -19.060462951660156
endloop
endfacet
facet normal -0.4903784018993279 -0.3706155929475702 -0.7887795035463221
outer loop
vertex -7.522843837738037 6.512974739074707 -19.060462951660156
vertex -12.448711395263672 6.0518622398376465 -15.781429290771484
vertex -9.439393043518066 19.229612350463867 -23.843992233276367
endloop
endfacet
facet normal -0.9289907650625678 -0.014127913239671717 -0.3698331522402464
outer loop
vertex -11.703723907470703 16.725345611572266 -18.06051254272461
vertex -9.439393043518066 19.229612350463867 -23.843992233276367
vertex -12.448711395263672 6.0518622398376465 -15.781429290771484
endloop
endfacet
facet normal -0.9594045438529976 0.006759846191098181 -0.28195252386473607
outer loop
vertex -12.448711395263672 6.0518622398376465 -15.781429290771484
vertex -14.699179649353027 18.18683433532715 -7.8327860832214355
vertex -11.703723907470703 16.725345611572266 -18.06051254272461
endloop
endfacet
facet normal 0.21676580334876938 -0.9210456741546535 0.3235544044199714
outer loop
vertex -7.346628189086914 17.02135467529297 -31.532176971435547
vertex -5.829743385314941 19.6461181640625 -25.076637268066406
vertex -9.439393043518066 19.229612350463867 -23.843992233276367
endloop
endfacet
facet normal -0.010430539568647677 -0.9618363312249621 0.2734265454925906
outer loop
vertex -7.346628189086914 17.02135467529297 -31.532176971435547
vertex -9.439393043518066 19.229612350463867 -23.843992233276367
vertex -11.454360008239746 17.410686492919922 -30.319318771362305
endloop
endfacet
facet normal -0.9498998657828338 -0.04748845222171029 0.3089257061031674
outer loop
vertex -11.454360008239746 17.410686492919922 -30.319318771362305
vertex -9.439393043518066 19.229612350463867 -23.843992233276367
vertex -9.70325756072998 25.356809616088867 -23.713455200195312
endloop
endfacet
facet normal 0.4838060630627733 -0.7730968608546664 0.41018646623256644
outer loop
vertex -8.571568489074707 -20.24161720275879 -15.863226890563965
vertex -1.169374704360962 -23.173809051513672 -30.12038803100586
vertex -4.590948104858398 -16.794843673706055 -14.061993598937988
endloop
endfacet
facet normal 0.6958525698583724 -0.5885210306824722 -0.4116214249355097
outer loop
vertex -7.1197004318237305 -22.79546546936035 -9.757423400878906
vertex -8.571568489074707 -20.24161720275879 -15.863226890563965
vertex -4.590948104858398 -16.794843673706055 -14.061993598937988
endloop
endfacet
facet normal -0.8627748147738907 -0.49917006905659994 -0.08030480153706683
outer loop
vertex -6.344010353088379 -22.226924896240234 -27.454998016357422
vertex -8.571568489074707 -20.24161720275879 -15.863226890563965
vertex -8.177506446838379 -18.581220626831055 -30.417861938476562
endloop
endfacet
facet normal -0.7956518280832117 -0.5990487924993015 -0.08988165926913033
outer loop
vertex -8.571568489074707 -20.24161720275879 -15.863226890563965
vertex -10.728367805480957 -17.463531494140625 -15.286330223083496
vertex -8.177506446838379 -18.581220626831055 -30.417861938476562
endloop
endfacet
facet normal 0.5416385391332714 -0.4068074696511429 -0.7356190424136735
outer loop
vertex -3.0919322967529297 11.138577461242676 -18.35599136352539
vertex -7.522843837738037 6.512974739074707 -19.060462951660156
vertex -5.829743385314941 19.6461181640625 -25.076637268066406
endloop
endfacet
facet normal -0.2607537522058148 -0.37407812794092304 -0.8899848509423084
outer loop
vertex -7.522843837738037 6.512974739074707 -19.060462951660156
vertex -9.439393043518066 19.229612350463867 -23.843992233276367
vertex -5.829743385314941 19.6461181640625 -25.076637268066406
endloop
endfacet
facet normal -0.7705095755017397 0.4644807848498544 0.43654621125992155
outer loop
vertex -8.153414726257324 19.93523597717285 -15.209463119506836
vertex -9.70325756072998 25.356809616088867 -23.713455200195312
vertex -11.703723907470703 16.725345611572266 -18.06051254272461
endloop
endfacet
facet normal -0.925943037483093 -0.03185799091451221 -0.37631709999875673
outer loop
vertex -9.70325756072998 25.356809616088867 -23.713455200195312
vertex -9.439393043518066 19.229612350463867 -23.843992233276367
vertex -11.703723907470703 16.725345611572266 -18.06051254272461
endloop
endfacet
facet normal -0.46492783535185445 0.8604173762776183 -0.20862417528795305
outer loop
vertex -8.153414726257324 19.93523597717285 -15.209463119506836
vertex -14.699179649353027 18.18683433532715 -7.8327860832214355
vertex -2.040198564529419 26.669620513916016 -1.0587679147720337
endloop
endfacet
facet normal -0.518802245421079 0.8118173791034714 -0.267949198788907
outer loop
vertex -11.703723907470703 16.725345611572266 -18.06051254272461
vertex -14.699179649353027 18.18683433532715 -7.8327860832214355
vertex -8.153414726257324 19.93523597717285 -15.209463119506836
endloop
endfacet
facet normal -0.5764473164328826 0.8151840590154875 0.05642199309101196
outer loop
vertex -2.8085124492645264 25.58589744567871 6.749203205108643
vertex -2.040198564529419 26.669620513916016 -1.0587679147720337
vertex -14.699179649353027 18.18683433532715 -7.8327860832214355
endloop
endfacet
facet normal -0.9489828761812338 -0.3141867059825497 0.026799524223910135
outer loop
vertex -7.567688465118408 -30.76898193359375 2.1588542461395264
vertex -10.156606674194336 -22.368810653686523 8.964314460754395
vertex -11.477581024169922 -19.537748336791992 -4.621743679046631
endloop
endfacet
facet normal -0.9954892752359771 -0.023960570414155242 0.09179865987898421
outer loop
vertex -11.477581024169922 -19.537748336791992 -4.621743679046631
vertex -10.156606674194336 -22.368810653686523 8.964314460754395
vertex -11.41006088256836 -8.849730491638184 -1.0998340845108032
endloop
endfacet
facet normal 0.2838444611931727 0.007760117375558566 0.958838934560062
outer loop
vertex -10.652127265930176 9.485697746276855 -30.492664337158203
vertex -7.346628189086914 17.02135467529297 -31.532176971435547
vertex -11.454360008239746 17.410686492919922 -30.319318771362305
endloop
endfacet
facet normal -0.5429599406834917 -0.07326113331086871 0.8365568176513692
outer loop
vertex -10.652127265930176 9.485697746276855 -30.492664337158203
vertex -11.454360008239746 17.410686492919922 -30.319318771362305
vertex -15.590118408203125 10.597164154052734 -33.60028839111328
endloop
endfacet
facet normal -0.7509073233651474 0.5943900807073248 -0.2878169968457907
outer loop
vertex -11.454360008239746 17.410686492919922 -30.319318771362305
vertex -9.054987907409668 18.614519119262695 -34.09310531616211
vertex -15.590118408203125 10.597164154052734 -33.60028839111328
endloop
endfacet
facet normal -0.9608337756428168 -0.23939176275414456 0.1396067316050082
outer loop
vertex -11.470081329345703 13.801486015319824 6.871450901031494
vertex -14.699179649353027 18.18683433532715 -7.8327860832214355
vertex -11.390654563903809 6.508132457733154 -5.088236331939697
endloop
endfacet
facet normal 0.06709313668006675 -0.9008939435840809 -0.4288223564880365
outer loop
vertex -10.652127265930176 9.485697746276855 -30.492664337158203
vertex -15.590118408203125 10.597164154052734 -33.60028839111328
vertex -8.824023246765137 11.768514633178711 -35.00251007080078
endloop
endfacet
facet normal -0.2214901533667022 0.12106339750606197 -0.967618605518664
outer loop
vertex -15.590118408203125 10.597164154052734 -33.60028839111328
vertex -9.054987907409668 18.614519119262695 -34.09310531616211
vertex -8.824023246765137 11.768514633178711 -35.00251007080078
endloop
endfacet
facet normal 0.5877407433963594 -0.7015056858771949 -0.40305159872386215
outer loop
vertex 0.007159898988902569 10.123708724975586 -14.364439964294434
vertex -4.726394176483154 3.5156948566436768 -9.765880584716797
vertex -7.522843837738037 6.512974739074707 -19.060462951660156
endloop
endfacet
facet normal -0.7290031926538584 -0.12363521348840632 0.6732523145791314
outer loop
vertex -4.652090549468994 -8.62986946105957 10.134761810302734
vertex -3.71095609664917 7.814879894256592 14.173723220825195
vertex -11.470081329345703 13.801486015319824 6.871450901031494
endloop
endfacet
facet normal -0.09323076361183075 -0.9538303624904246 -0.28550948199270004
outer loop
vertex -0.4700660705566406 -33.62992477416992 9.399024963378906
vertex -7.567688465118408 -30.76898193359375 2.1588542461395264
vertex 1.6892672777175903 -28.882732391357422 -7.165512561798096
endloop
endfacet
facet normal -0.6957647696616291 -0.34752256533074116 0.6286011866705636
outer loop
vertex -10.688741683959961 -26.63402557373047 30.994937896728516
vertex -0.6396998763084412 -35.216468811035156 37.37287139892578
vertex -4.070070743560791 -27.08087730407715 38.07374572753906
endloop
endfacet
facet normal -0.7278540187172503 -0.5202496754297053 0.44673124208234527
outer loop
vertex -10.688741683959961 -26.63402557373047 30.994937896728516
vertex -4.045777797698975 -41.84891891479492 24.099437713623047
vertex -0.6396998763084412 -35.216468811035156 37.37287139892578
endloop
endfacet
facet normal -0.8653969260511298 -0.4638017849997306 0.1896735738375774
outer loop
vertex -4.045777797698975 -41.84891891479492 24.099437713623047
vertex -10.688741683959961 -26.63402557373047 30.994937896728516
vertex -10.144181251525879 -31.285118103027344 22.106382369995117
endloop
endfacet
facet normal -0.5733884176229653 -0.021775961030082013 0.8189942185736405
outer loop
vertex -2.643472194671631 10.818522453308105 53.0673713684082
vertex -0.9496042728424072 21.29458236694336 54.53181457519531
vertex -4.892626762390137 16.4779052734375 51.643184661865234
endloop
endfacet
facet normal -0.24039725948445498 0.9519082813281142 0.18994678615685848
outer loop
vertex 0.7478579878807068 -17.459346771240234 30.581945419311523
vertex -3.647564172744751 -14.928510665893555 12.335933685302734
vertex -7.493679523468018 -20.18769645690918 33.82440948486328
endloop
endfacet
facet normal -0.3638059519418882 -0.9284008406738011 0.07561156239515117
outer loop
vertex -12.448711395263672 6.0518622398376465 -15.781429290771484
vertex -4.726394176483154 3.5156948566436768 -9.765880584716797
vertex -11.390654563903809 6.508132457733154 -5.088236331939697
endloop
endfacet
facet normal -0.620854723696478 -0.19631235621923285 -0.7589472121692148
outer loop
vertex -11.390654563903809 6.508132457733154 -5.088236331939697
vertex -4.726394176483154 3.5156948566436768 -9.765880584716797
vertex -11.41006088256836 -8.849730491638184 -1.0998340845108032
endloop
endfacet
facet normal -0.9999794512583718 -0.0003980495852845131 -0.006398329276698964
outer loop
vertex -11.390654563903809 6.508132457733154 -5.088236331939697
vertex -11.41006088256836 -8.849730491638184 -1.0998340845108032
vertex -11.470081329345703 13.801486015319824 6.871450901031494
endloop
endfacet
facet normal 0.2116601746930157 -0.3990406513722702 -0.8921695629202536
outer loop
vertex 1.4248521327972412 -11.838611602783203 -14.851566314697266
vertex 1.6892672777175903 -28.882732391357422 -7.165512561798096
vertex -4.590948104858398 -16.794843673706055 -14.061993598937988
endloop
endfacet
facet normal -0.129630627205774 -0.5413223766270033 -0.8307622915450185
outer loop
vertex 1.6892672777175903 -28.882732391357422 -7.165512561798096
vertex -7.1197004318237305 -22.79546546936035 -9.757423400878906
vertex -4.590948104858398 -16.794843673706055 -14.061993598937988
endloop
endfacet
facet normal -0.9629768356432878 -0.24792896402010917 0.10586237676509837
outer loop
vertex -12.448711395263672 6.0518622398376465 -15.781429290771484
vertex -11.390654563903809 6.508132457733154 -5.088236331939697
vertex -14.699179649353027 18.18683433532715 -7.8327860832214355
endloop
endfacet
endsolid csg.js
